<svg xmlns="http://www.w3.org/2000/svg" xmlns:svg="http://www.w3.org/2000/svg" id="Layer_1" width="368.4" height="124.7" x="0" y="0" version="1.1" viewBox="0 0 368.4 124.7" xml:space="preserve"><style id="style907" type="text/css">.st0{fill:#231f20}</style><g id="g1134" transform="translate(-46.1,-88.2)"><path id="path909" d="m 137.5,117.8 c -18.2,0 -32.9,14.7 -32.9,32.9 0,18.2 14.7,32.9 32.9,32.9 18.2,0 32.9,-14.7 32.9,-32.9 0,-18.2 -14.8,-32.9 -32.9,-32.9 z m 3.3,34 v 9.6 c 0,1.6 -1.3,3 -3,3 -1.6,0 -3,-1.3 -3,-3 v -9.6 c -2.8,-1.2 -4.8,-4 -4.8,-7.2 0,-4.3 3.5,-7.8 7.8,-7.8 4.3,0 7.8,3.5 7.8,7.8 0,3.2 -2,6 -4.8,7.2 z" class="st0"/><g id="g929"><path id="path923" d="m 139.8,88.3 v 0 h -2 c 0.7,-0.1 1.3,0 2,0 z" class="st0"/><path id="path925" d="m 75.5,150.6 c 0,-34.4 27.9,-62.3 62.3,-62.3 h -77 c -8.1,0 -14.7,6.6 -14.7,14.7 v 95.2 c 0,8.1 6.6,14.7 14.7,14.7 h 77 c -34.4,0 -62.3,-27.9 -62.3,-62.3 z" class="st0"/><path id="path927" d="m 137.8,212.9 h 2 v 0 c -0.7,-0.1 -1.3,0 -2,0 z" class="st0"/></g><g id="g939"><path id="path931" d="m 372.5,135.5 c -3.7,0 -6.6,3 -6.6,6.6 0,3.7 3,6.6 6.6,6.6 h 6.6 v -6.6 c 0,-3.7 -2.9,-6.6 -6.6,-6.6 z" class="st0"/><path id="path933" d="m 389.6,152.4 h -6.8 v 35.4 c 1.5,0.1 3.1,0.2 4.6,0.2 h 2.2 z" class="st0"/><path id="path935" d="m 406.5,142.1 c 0,-3.7 -3,-6.6 -6.6,-6.6 -3.7,0 -6.6,3 -6.6,6.6 v 6.6 h 6.6 c 3.6,0 6.6,-2.9 6.6,-6.6 z" class="st0"/><path id="path937" d="m 399.7,88.2 h -77.8 v 34.2 c 0,33.3 25,60.9 57.2,65 v -35 h -6.6 c -5.7,0 -10.3,-4.6 -10.3,-10.3 0,-5.7 4.6,-10.3 10.3,-10.3 5.7,0 10.3,4.6 10.3,10.3 v 6.6 h 6.8 v -6.6 c 0,-5.7 4.6,-10.3 10.3,-10.3 5.7,0 10.3,4.6 10.3,10.3 0,5.7 -4.6,10.3 -10.3,10.3 h -6.6 V 188 h 21.2 v -85 c 0,-8.2 -6.6,-14.8 -14.8,-14.8 z" class="st0"/></g><path id="path941" d="M 359.5,212.9 C 320.9,201 292.8,164.9 292.8,122.5 V 88.2 h -56.6 c -8.7,3.9 -14.7,12.6 -14.7,22.7 0,13.7 11.2,24.9 24.9,24.9 29.9,0 54.3,24.4 54.3,54.3 0,8.1 -1.8,15.8 -5,22.7 z" class="st0"/><g id="g945"><path id="path943" d="m 137.1,88.2 c 0.2,0 0.4,0 0.6,0 z" class="st0"/></g><g id="g951"><path id="path947" d="m 193.3,122.3 c -0.8,-3.6 -1.2,-7.4 -1.2,-11.3 0,-8.1 1.8,-15.8 5,-22.7 h -59.3 c 24.2,-0.1 45.2,13.8 55.5,34 z" class="st0"/><path id="path949" d="m 271.3,190.2 c 0,-13.7 -11.2,-24.9 -24.9,-24.9 -20.7,0 -38.8,-11.7 -47.9,-28.8 1.1,4.5 1.6,9.3 1.6,14.1 0,33.8 -26.8,61.2 -60.4,62.3 v 0 h 116.9 c 8.7,-3.9 14.7,-12.6 14.7,-22.7 z" class="st0"/></g></g></svg>