<svg xmlns="http://www.w3.org/2000/svg" xmlns:xlink="http://www.w3.org/1999/xlink" width="500" height="500" x="0" y="0" version="1.1" viewBox="0 0 500 500" style="enable-background:new 0 0 500 500" xml:space="preserve"><style type="text/css">.st0{fill:#fff}.st1{fill:#e0e0e0}.st2{fill:#fafafa}.st3{fill:#fedc01}.st4{fill:#7abf44}.st5{fill:#263238}.st6{fill:#ffbf9d}.st7{fill:#f5f5f5}.st8{fill:gray}.st9{opacity:.2}.st10{fill:#455a64}.st11{opacity:.6}.st12{fill:#2495d3}.st13{opacity:.3}.st14{fill:#ff9a6c}.st15{fill:#ae7461}.st16{fill:#6f4439}.st17{fill:#226fa8}.st18{fill:#5effa0}.st19{fill:#02a6df}.st20{fill:#0f91c2}.st21{fill:#3f4146}.st22{fill-rule:evenodd;clip-rule:evenodd;fill:url(#SVGID_1_);filter:url(#Adobe_OpacityMaskFilter)}.st23{mask:url(#TranspMask_00000048496423899929273620000008248246890543615364_);fill:#7f7f7f}.st26{fill:#333}</style><switch><g><g id="Capa_1"><g id="freepik--background-complete--inject-124"><path d="M392.5,153.9" class="st0"/><path d="M392.5,153.9" class="st1"/><path d="M28.6,406.1c-3-1.9-6.3-3-9.8-3.4c-1.6-0.3-3.3,0-4.6,0.9c-0.3,0.2-0.5,0.5-0.5,0.8 c0.1,0.2,0.2,0.5,0.4,0.6C18.3,408,23.9,408.4,28.6,406.1" class="st1"/><path d="M28.3,405.8c-2.3-1.7-4.4-3.5-6.3-5.6c-2-2-3.3-4.6-4-7.3c-0.3-0.8-0.1-1.7,0.3-2.5 C23.3,394.4,27.3,399.5,28.3,405.8" class="st1"/><path d="M28.5,406c-0.5-2.8-0.4-5.6,0.1-8.3c0.6-2.8,2.1-5.2,4.4-6.9c0.9,2,0.5,4.4-0.1,6.5c-1,3.3-2.4,6.4-4.4,9.2" class="st1"/><path d="M33.5,414.9c-3,0.5-5.7,1.9-7.9,4c-2.3,2-3.8,4.7-4.5,7.7c3-0.2,5.4-2.2,7.2-4.6S31.4,417.2,33.5,414.9" class="st1"/><path d="M34.5,416.3c-2.4-6.1-1.6-13,2.2-18.3C38.6,404.2,37.8,410.8,34.5,416.3" class="st1"/><path d="M41.1,424.1c-5.6-0.4-10.9,2.7-13.4,7.7c-0.2,0.3-0.3,0.8-0.1,1c0.2,0.2,0.6,0.3,0.9,0.3 c2.6-0.2,5-1.8,6.9-3.6S39,425.7,41.1,424.1" class="st1"/><path d="M40.8,423.7c-1.4-4.5-1.5-9.4-0.2-13.9c0.5-1.8,1.3-3.7,3-4.5c0.1-0.1,0.3-0.1,0.5-0.1 c0.1,0.1,0.2,0.2,0.3,0.3c0.6,1.3,0.8,2.6,0.7,4c-0.1,1.3-0.3,2.7-0.6,4c-0.5,2.5-0.8,5.1-2.2,7.3c-0.3,0.5-0.6,1.1-0.9,1.6 c-0.3,0.5-0.3,0.7-0.5,1.2" class="st1"/><path d="M58.1,426.2c-1.2-5.1,0-10.5,3.1-14.8c0.2-0.3,0.5-0.6,0.9-0.6c0.6,0.1,0.7,0.8,0.7,1.4 C62.6,417.3,61,422.1,58.1,426.2" class="st1"/><path d="M59.7,427.3c6.1,1.4,12.6,0.1,17.6-3.6c-3-1.5-6.3-1.9-9.6-1.2C64.6,423.1,61.7,424.8,59.7,427.3" class="st1"/><path d="M61,424.1c3.5-5.5,9.5-8.9,16-9.2c-0.9,2.6-2.8,4.7-5.2,5.8c-2.4,1.1-5,1.9-7.7,2.2 C63.1,423.1,61.7,423.3,61,424.1" class="st1"/><path d="M58.5,408.3c1-3,1.7-6.2,2-9.4c0.4-3.2-0.3-6.4-1.9-9.3c-3.2,5.9-3.3,13-0.3,19" class="st1"/><path d="M68.9,403.1c3.6-6.6,11-11.8,18.5-12.6C84.5,397.7,76.6,403.2,68.9,403.1" class="st1"/><path d="M66.6,404.4c5.4,0.8,10,4.3,15,6.4c1.1,0.5,2.2,0.7,3.4,0.6c1.5,0,2.6-1.2,2.6-2.7c0-0.8-0.4-1.5-1-2 c-0.7-0.7-1.6-1.2-2.5-1.5c-5.5-2.2-11.5-2.5-17.2-1" class="st1"/><path d="M63.5,408.1c1.2,0.4,1.6,1,2.6,1.8c3.3,2.8,7.2,4.8,11.4,5.9c0.4,0.1,1,0.1,1.2-0.2s0-0.8-0.3-1.1 c-1.8-2.1-4.2-3.8-6.9-4.7c-2.6-1-4.9-2.2-8.1-1.9" class="st1"/><path d="M60,385.3c4.5,4.1,10.5,6.2,16.6,5.6c0.3,0,0.5-0.1,0.8-0.3c0.4-0.5-0.1-1.1-0.6-1.5 C72.1,385.2,65.9,383.8,60,385.3" class="st1"/><path d="M64.1,383.7c5.9-4.4,13.6-5.6,20.7-3.4c-2.7,2.5-6.1,4-9.8,4.3C71.4,385,67.7,384.7,64.1,383.7" class="st1"/><path d="M62.5,373.2c-0.5-4.9-0.2-8.7-0.5-13.6c0-0.4-0.1-0.9-0.5-1s-0.9,0.4-1.1,1c-1.4,4.6-0.7,9.6,2.1,13.5" class="st1"/><path d="M62.1,373.8c3.2-2.1,5.9-4.7,8-7.8c1.6-2.2,2.9-4.8,2.6-7.5c-2.3,0.1-4.4,1.1-5.8,2.9c-1.4,1.8-2.4,3.8-3,6 C63.3,369.5,62.9,371.7,62.1,373.8" class="st1"/><path d="M70,371.6c7.2-2.7,14-6.6,19.8-11.7c-2.4-1-5.1-0.4-7.4,0.6c-5.4,2-9.8,6-12.5,11.1" class="st1"/><path d="M64.3,376.4c3.6,0.5,7.3,0.5,11,0.1c3.5-0.7,7-1.9,10.3-3.4c0.3-0.1,0.5-0.3,0.7-0.5c0.1-0.3,0-0.7-0.2-0.9 c-0.3-0.2-0.6-0.3-0.9-0.4c-3.7-0.9-7.5-0.7-11.1,0.7C70.7,373.1,67.4,374.6,64.3,376.4" class="st1"/><path d="M43.5,385.4c-2.4-5.1-2.4-11-0.2-16.1c1.5,2.3,1.7,5.3,1.4,8s-1.1,5.6-1.2,8.4" class="st1"/><path d="M33.5,380.4c-6.3-0.1-12.4,2.5-16.7,7.1c3.2,0.4,6.4-0.2,9.2-1.7c2.8-1.5,5.4-3.2,7.8-5.2" class="st1"/><path d="M26.8,378.2c-3-0.2-6-0.6-8.9,0.3c-3,0.8-5.5,2.9-6.8,5.8c2.9,0.2,5.8-0.3,8.3-1.6 C22,381.3,24.5,379.9,26.8,378.2" class="st1"/><path d="M36.7,378.3c-2.7-1.8-5.6-3.6-8.8-4.4s-6.9-0.2-9.1,2.2c2.6,1.5,5.7,1.7,8.7,1.7s6.7,0,9.5,1" class="st1"/><path d="M36.7,378.4c-4.7-4.6-6.5-12.9-4.6-19.2C35.9,364.9,37.5,371.7,36.7,378.4" class="st1"/><path d="M49.6,365.4c0.9-2.1,1.5-4.2,2.3-6.3c0.7-2.1,1.8-4.1,3.3-5.8c1.5-1.7,3.5-2.8,5.8-3 c-1.5,6.4-5.5,11.9-11.3,15.1" class="st1"/><path d="M47.3,368.1c-1.5-2-3.2-4.8-5.1-6.2c-1.9-1.6-4.5-2.3-7-1.8C37.7,364.5,42.2,367.4,47.3,368.1" class="st1"/><path d="M47.8,365.5c-1.1-2.4-1.8-4.9-2.3-7.5c-0.5-2.6-0.1-5.3,1.2-7.6c2.6,4.9,3.4,10.1,1.3,15.1" class="st1"/><path d="M49.7,350.4c1.5-4.8,5.9-8.4,10.6-10c0.6-0.2,1.2-0.3,1.9-0.3c0.6,0.1,1.2,0.5,1.4,1.1 c0.2,0.8-0.5,1.5-1.1,2.1C58.7,346.6,54.3,349,49.7,350.4" class="st1"/><path d="M49.7,346.5c0-3.1,0.5-6.2,1.4-9.2c0.9-3,3-5.5,5.8-7c0.5,3.1-0.9,6.3-2.6,9s-3.7,5.3-4.7,8.3" class="st1"/><path d="M49.6,348.6c-1.2-3.5-1.3-8-3.4-11c-1.5-2.1-3.8-3.6-5.1-5.9c-0.8,2.2-0.7,4.6,0.3,6.7c1,2.1,2.3,4,3.9,5.6 C46.9,345.7,48.2,346.9,49.6,348.6" class="st1"/><path d="M49.7,452.1c-0.1,0-0.2-23.4-0.2-52.3s0.1-52.3,0.2-52.3s0.2,23.4,0.2,52.3S49.8,452.1,49.7,452.1z" class="st1"/><path d="M70.1,381.9c-0.3,0.1-0.6,0.2-0.9,0.3l-2.4,0.8c-2,0.7-4.8,1.7-7.9,3s-5.9,2.4-7.5,3.8 c-0.6,0.5-1.2,1.2-1.5,2c-0.2,0.5-0.3,0.9-0.3,0.9c0-0.1,0-0.2,0-0.2c0-0.2,0.1-0.5,0.2-0.7c0.3-0.8,0.8-1.5,1.5-2.1 c1-0.8,2.1-1.5,3.2-2c1.3-0.6,2.7-1.2,4.3-1.9c3.1-1.2,5.9-2.2,8-2.9c1-0.3,1.9-0.6,2.5-0.7C69.5,382,69.8,381.9,70.1,381.9z" class="st1"/><path d="M76.8,365.4c0,0-0.1,0.1-0.2,0.3l-0.8,0.7l-2.8,2.6l-9.3,8.3c-3.7,3.2-6.8,6.4-9,8.7 c-1.1,1.2-2,2.1-2.5,2.8l-0.7,0.8c-0.1,0.1-0.2,0.2-0.2,0.3c0.1-0.1,0.1-0.2,0.2-0.3c0.1-0.2,0.3-0.5,0.6-0.8 c0.6-0.7,1.4-1.7,2.5-2.9c2.8-3.1,5.8-6,9-8.8c3.7-3.2,7-6.1,9.4-8.2c1.2-1,2.2-1.9,2.9-2.5l0.8-0.7 C76.6,365.5,76.7,365.5,76.8,365.4z" class="st1"/><path d="M59.8,380.5c-0.1,0,0.7-1.8,1.4-4s1.1-4.1,1.2-4.1c-0.1,1.4-0.4,2.9-0.9,4.2c-0.3,1-0.7,1.9-1.1,2.8 C60.2,379.8,60,380.2,59.8,380.5z" class="st1"/><path d="M49.7,394.7c-0.2-0.2-0.4-0.4-0.6-0.6l-1.4-1.9c-1.2-1.6-2.9-3.7-4.8-6.1s-3.6-4.5-4.8-6l-1.5-1.8 c-0.2-0.2-0.4-0.4-0.5-0.7c0.2,0.2,0.4,0.4,0.6,0.6c0.4,0.4,0.9,1,1.6,1.8c1.3,1.5,3,3.6,4.9,6s3.5,4.5,4.7,6.1 c0.6,0.8,1,1.5,1.3,1.9C49.4,394.3,49.5,394.5,49.7,394.7z" class="st1"/><path d="M45.2,389c-0.9-1-1.6-2.2-1.9-3.5c-0.4-1.1-0.5-2.4-0.4-3.5H43c-0.1,0.3-0.1,0.4-0.2,0.4c0-0.1,0-0.3,0-0.4 H43c0.1,1.2,0.3,2.3,0.6,3.5C44,386.6,44.6,387.8,45.2,389z" class="st1"/><path d="M39.4,381.7c-0.4-0.3-0.9-0.6-1.3-0.8c-1.2-0.4-2.4-0.5-3.6-0.3c-1.2,0.1-2.5,0.3-3.7,0.6 c-0.5,0.2-1,0.3-1.5,0.4c0.5-0.3,0.9-0.5,1.5-0.6c1.2-0.4,2.5-0.6,3.7-0.7c1.3-0.2,2.6,0,3.8,0.4 C38.7,380.9,39.1,381.2,39.4,381.7z" class="st1"/><path d="M38,379.9c0,0.1-0.8-0.3-2-0.7c-3.3-1.1-6.7-1.4-10.1-0.8c-1.3,0.2-2.1,0.5-2.1,0.4s0.2-0.1,0.5-0.2 c0.5-0.2,1-0.3,1.5-0.4c1.7-0.4,3.5-0.5,5.2-0.4c1.7,0.1,3.4,0.6,5.1,1.2c0.5,0.2,1,0.4,1.4,0.6C37.7,379.7,37.9,379.8,38,379.9 z" class="st1"/><path d="M49.6,372.4c-1.1-3.4-2-6.8-2.6-10.3c0.6,1.7,1.1,3.4,1.5,5.1C49,369,49.4,370.7,49.6,372.4z" class="st1"/><path d="M49.7,372.4c-0.5-1.1-1-2.1-1.6-3c-0.7-0.9-1.5-1.8-2.4-2.5c0.3,0.1,0.7,0.2,0.9,0.5 c0.7,0.5,1.3,1.1,1.8,1.8C49.1,370.1,49.6,371.2,49.7,372.4z" class="st1"/><path d="M49.7,439.6c0,0-0.1-0.6-0.4-1.6c-0.4-1.4-0.9-2.7-1.6-4c-2.3-4.2-5.1-8.2-8.3-11.7c-1.9-2.1-3.7-4.1-5.2-6 c-1.4-1.7-2.6-3.5-3.7-5.3c-0.7-1.3-1.4-2.6-1.9-4c-0.2-0.5-0.3-0.9-0.4-1.1c0-0.1-0.1-0.3-0.1-0.4c0,0,0.2,0.5,0.6,1.5 c0.6,1.3,1.2,2.6,2,3.9c1.1,1.8,2.4,3.6,3.7,5.3c1.5,1.9,3.3,3.9,5.2,6c3.3,3.5,6.1,7.5,8.3,11.8c0.6,1.3,1.1,2.7,1.4,4.1 c0.1,0.5,0.2,0.9,0.2,1.2C49.6,439.3,49.7,439.5,49.7,439.6z" class="st1"/><path d="M68.2,418.7c-0.3,0.2-0.7,0.4-1,0.5c-0.9,0.5-1.7,1-2.5,1.7c-1.2,0.9-2.3,1.9-3.3,3 c-1.2,1.2-2.3,2.6-3.6,4.2c-2.4,3.1-4.7,5.8-6.1,7.9c-0.7,1.1-1.2,2-1.5,2.6c-0.1,0.3-0.3,0.7-0.5,1c0-0.1,0.1-0.2,0.1-0.3 c0.1-0.2,0.2-0.4,0.3-0.8c0.4-0.9,0.9-1.8,1.4-2.7c1.8-2.8,3.9-5.4,6-8c1.2-1.5,2.4-3,3.6-4.2c1-1.1,2.2-2.1,3.4-3 c0.8-0.6,1.7-1.1,2.6-1.6c0.3-0.2,0.6-0.3,0.8-0.3C67.9,418.7,68,418.7,68.2,418.7z" class="st1"/><path d="M68.5,425.5c-0.7,0.1-1.3,0.2-2,0.3c-1.6,0.2-3.3,0.5-4.9,1c-1.6,0.5-3.1,1.2-4.4,2.2 c-1,0.8-1.5,1.4-1.5,1.4s0.1-0.2,0.3-0.5c0.3-0.4,0.7-0.8,1.1-1.1c1.3-1.1,2.8-1.9,4.4-2.4c1.6-0.5,3.3-0.8,4.9-0.9 C67.1,425.4,67.8,425.4,68.5,425.5z" class="st1"/><path d="M56.3,429.6c-0.1-0.1,0.8-1.5,1.5-3.4s0.8-3.6,1-3.6c0.1,0.4,0.1,0.7,0,1.1c-0.1,0.9-0.3,1.8-0.6,2.6 c-0.3,0.8-0.8,1.6-1.3,2.4C56.6,429.4,56.4,429.7,56.3,429.6z" class="st1"/><path d="M74.2,400.5l-0.3,0.2l-1,0.4c-0.4,0.2-0.9,0.4-1.5,0.7s-1.2,0.6-2,1l-1.1,0.6c-0.4,0.2-0.8,0.5-1.2,0.8 c-0.8,0.5-1.7,1.1-2.5,1.7c-3.8,2.8-7.1,6.2-9.8,10.1c-0.6,0.9-1.2,1.8-1.7,2.6c-0.2,0.4-0.5,0.8-0.7,1.2l-0.6,1.1 c-0.4,0.7-0.7,1.4-1,2s-0.5,1.1-0.7,1.5s-0.3,0.7-0.4,1c0,0.1-0.1,0.2-0.2,0.3c0-0.1,0.1-0.2,0.1-0.4c0.1-0.3,0.2-0.6,0.3-1 s0.3-1,0.6-1.6s0.5-1.3,0.9-2l0.6-1.2c0.2-0.4,0.5-0.8,0.7-1.2c0.5-0.9,1-1.7,1.7-2.6c1.4-2,2.9-3.8,4.6-5.5 c1.7-1.7,3.5-3.2,5.3-4.7c0.9-0.6,1.7-1.2,2.6-1.7c0.4-0.2,0.8-0.5,1.2-0.7l1.1-0.6c0.7-0.4,1.4-0.7,2-1s1.1-0.5,1.5-0.7l1-0.4 C73.9,400.5,74,400.5,74.2,400.5z" class="st1"/><path d="M59.5,410.3c0.1-0.5,0.4-0.9,0.8-1.2c0.9-0.8,2.1-1.2,3.2-1.2c1.2,0,2.3,0.2,3.4,0.7 c0.5,0.1,0.9,0.4,1.3,0.6c-0.5-0.1-0.9-0.2-1.4-0.4c-1.1-0.4-2.2-0.5-3.3-0.5c-1.1,0-2.2,0.4-3.1,1.1 C60.1,409.6,59.8,409.9,59.5,410.3z" class="st1"/><path d="M57.3,412.6c0.4-1,0.7-2,0.9-3c0.1-1,0-2.1-0.2-3.1c0,0,0.2,0.3,0.4,0.9c0.2,0.7,0.3,1.5,0.2,2.3 c-0.1,0.8-0.3,1.5-0.7,2.2C57.6,412.3,57.3,412.6,57.3,412.6z" class="st1"/><path d="M33.5,443c0.5,9,3.2,18.1,7.3,27.3h18.1c4-9.1,6.5-18.2,6.9-27.3H33.5z" class="st1"/><path d="M62.9,457.5c0,0.1-6,0.2-13.3,0.2s-13.3-0.1-13.3-0.2s5.9-0.2,13.3-0.2S62.9,457.4,62.9,457.5z" class="st2"/><path d="M62.5,460.7c0,0.1-5.6,0.2-12.5,0.2s-12.4-0.1-12.4-0.2s5.6-0.2,12.4-0.2S62.5,460.6,62.5,460.7z" class="st2"/><path d="M41.1,448.8c0.2,2.8,0.2,5.6,0,8.3C40.9,454.4,40.9,451.6,41.1,448.8z" class="st2"/><path d="M50.8,448.8c0.2,2.9,0.2,5.7,0,8.6C50.6,454.6,50.6,451.7,50.8,448.8z" class="st2"/><path d="M59.9,448.8c0.2,2.9,0.2,5.9,0,8.8C59.6,454.6,59.6,451.7,59.9,448.8z" class="st2"/><path d="M65.2,448.8c0,0.1-7,0.2-15.6,0.2s-15.6-0.1-15.6-0.2s7-0.2,15.6-0.2S65.2,448.8,65.2,448.8z" class="st2"/><path d="M337.6,62l5.9-0.7c7.4,7.5,19.5,7.7,27,0.3s7.7-19.5,0.3-27s-19.5-7.7-27-0.3c-5.7,5.6-7.3,14.1-4.1,21.4 l0,0L337.6,62z" class="st0"/><path d="M337.6,62l0.1-0.4c0.1-0.3,0.2-0.7,0.4-1.2l1.6-4.7h-0.1l0,0c0,0,0,0,0.1,0c0,0,0,0,0,0c0,0,0,0,0-0.1 c-1.3-2.9-1.8-6.1-1.5-9.2c0.1-1,0.2-1.9,0.5-2.9c0.3-1,0.6-2,1-3c4.1-9.6,15.2-14,24.8-9.9c6.1,2.6,10.4,8.3,11.3,14.9 c0.4,2.9,0.1,5.9-0.9,8.7c-0.9,2.6-2.4,5-4.3,7c-3.4,3.5-8.1,5.6-13,5.7h-0.8c-0.3,0-0.5,0-0.8,0l-1.5-0.1 c-1-0.2-1.9-0.4-2.9-0.6c-3-0.9-5.8-2.6-8-4.8l0,0l-4.4,0.5L338,62H337.6l0.4,0.1l1.1-0.1l4.4-0.5h0c2.2,2.3,5,4,8,4.9 c1,0.3,1.9,0.5,2.9,0.7l1.6,0.2c0.3,0,0.5,0,0.8,0h0.8c5-0.1,9.7-2.2,13.2-5.7c2-2,3.5-4.4,4.4-7c1-2.8,1.3-5.8,0.9-8.8 c-0.4-3.1-1.5-6-3.4-8.6c-0.2-0.4-0.5-0.7-0.7-1.1l-0.7-0.9l-0.8-0.8c-0.3-0.3-0.5-0.5-0.8-0.8l-0.9-0.7 c-0.3-0.2-0.6-0.4-0.9-0.7c-0.3-0.2-0.6-0.4-1-0.6l-1-0.5c-2.6-1.4-5.4-2.1-8.4-2.1c-5.3-0.1-10.5,2-14.2,5.9 c-1.6,1.7-2.9,3.6-3.8,5.7c-0.4,1-0.7,2-1,3c-0.2,1-0.4,1.9-0.5,2.9c-0.3,3.2,0.3,6.4,1.6,9.3l0.1-0.1l0,0c0,0-0.1,0-0.1,0l0,0 c-0.7,2.1-1.2,3.7-1.5,4.8c-0.2,0.5-0.3,0.9-0.4,1.2L337.6,62z" class="st1"/><path d="M363.1,46.9l-5.4-6.9l-5.7,6.7l2.9,0l-0.1,9.3h5.2l0.2-9.2L363.1,46.9z" class="st3"/><path d="M85.8,212.2l4.4-4c10.3,1.9,20.2-5,22.1-15.3c1.9-10.3-5-20.2-15.3-22.1c-10.3-1.9-20.2,5-22.1,15.3 c-1.4,7.8,2.1,15.6,8.9,19.7l0,0L85.8,212.2z" class="st0"/><path d="M85.8,212.2l-0.1-0.4l-0.4-1.2l-1.4-4.7l-0.1,0.1l0,0c0,0,0.1,0,0.1,0c0,0,0,0,0-0.1 c-3.6-2.2-6.3-5.4-7.8-9.3c-0.4-1-0.7-2-0.9-3c-2.2-10.2,4.3-20.2,14.5-22.4c3.4-0.7,7-0.5,10.3,0.7c2.9,1,5.5,2.7,7.6,5 c2,2.2,3.4,4.8,4.2,7.6c0.8,2.7,0.9,5.4,0.5,8.2c-0.8,4.9-3.4,9.2-7.3,12.2l-0.7,0.5c-0.2,0.2-0.4,0.3-0.7,0.4l-1.3,0.8 c-0.9,0.4-1.8,0.8-2.7,1.1c-3,1-6.2,1.2-9.3,0.7l0,0l-3.3,3l-0.8,0.8L85.8,212.2l0.4-0.2l0.8-0.8l3.3-2.9l0,0 c3.1,0.6,6.3,0.4,9.4-0.6c0.9-0.3,1.9-0.7,2.8-1.1l1.4-0.8c0.2-0.1,0.5-0.3,0.7-0.4l0.7-0.5c1.9-1.4,3.5-3.1,4.7-5.1 c1.4-2.2,2.3-4.6,2.7-7.2c0.5-2.8,0.3-5.6-0.5-8.3c-0.8-2.9-2.3-5.5-4.3-7.7c-2.1-2.3-4.7-4.1-7.7-5.1c-0.4-0.1-0.7-0.3-1.1-0.4 l-1.1-0.3l-1.1-0.2c-0.4-0.1-0.8-0.1-1.1-0.1l-1.1-0.1c-0.4,0-0.8,0-1.1,0c-0.4,0-0.8,0-1.1,0l-1.1,0.1 c-2.9,0.4-5.7,1.5-8.2,3.1c-4.4,3-7.4,7.7-8.2,13c-0.3,2.3-0.3,4.6,0.2,6.9c0.2,1,0.5,2,0.9,3c0.4,0.9,0.8,1.8,1.3,2.7 c1.6,2.8,3.9,5.1,6.7,6.7v-0.1l0,0c0,0-0.1,0-0.1,0l0,0l1.5,4.8c0.2,0.5,0.3,0.9,0.4,1.2L85.8,212.2z" class="st1"/><polygon points="84.2 190.4 86.8 187.5 92.3 191.9 100.4 182.6 103.1 185.2 92.2 197.2" class="st4"/></g><g id="freepik--Floor--inject-124"><path d="M481.4,475.8c0,0.1-102.5,0.3-228.8,0.3S23.7,476,23.7,475.8s102.4-0.3,228.9-0.3S481.4,475.7,481.4,475.8z" class="st5"/></g><g id="freepik--character-3--inject-124"><path d="M331.2,80.7c-3.1,0-5.8-2.3-6.4-5.4c-0.1-0.6,0.3-1.1,0.8-1.2c0.6-0.1,1.1,0.3,1.2,0.8 c0.4,2.4,2.7,4,5.1,3.7c2.4-0.4,4.1-2.7,3.7-5.1c0,0,0,0,0,0c0-0.1-0.7-3.4-5.4-3.7c-0.5,0-0.9-0.4-0.9-0.9l-0.4-3.8 c-0.1-0.6,0.3-1,0.9-1.1c0.6-0.1,1,0.3,1.1,0.9l0.3,3c4.4,0.6,6.1,3.7,6.4,5.3c0.6,3.5-1.8,6.8-5.3,7.4 C331.9,80.7,331.6,80.7,331.2,80.7z" class="st1"/><path d="M331.3,64.6c0.2,1-0.4,1.9-1.3,2.1c-1,0.2-1.9-0.4-2.1-1.3c-0.2-1,0.4-1.9,1.3-2.1c0,0,0,0,0,0 C330.1,63,331,63.6,331.3,64.6C331.3,64.6,331.3,64.6,331.3,64.6z" class="st5"/><path d="M346.4,92.2c-0.2-0.3-0.4-0.6-0.7-0.8c-0.3-0.2-0.7-0.3-1-0.2c-0.5,0.3-0.5,1-0.4,1.6 c0.2,1.2,0.5,2.3,0.9,3.4c0.4,1.2,0.9,2.4,1.4,3.6c0.6,0.8,1.3,1.5,2.1,2.1c0.5,0.3,1.3-1.4,1.4-0.7l1.3-1.8 C349.6,97.1,347.9,94.7,346.4,92.2z" class="st6"/><path d="M354.6,95.5c0,0,3-1.4,2.2,5.7c-0.2,1.5-0.5,3-0.9,4.4l-7.9-1.6l1.4-4l-1.6-5.2L354.6,95.5z" class="st6"/><path d="M264.7,195.7c-0.4,0.4-4.1,5.4-4.3,7.3s-0.8,5,0,5.6s1.7-0.3,1.7-0.3s-0.6,2.5,2.3,2.4c0,0,0.2,1.7,1.5,1.6 s1.3-1.6,1.3-1.6s-0.8,5.3-0.4,6.2s1.4,0.3,1.8-1.2l1.7-7.1c1-1.2,1.9-2.6,2.5-4c0.6-1.6,0.2-2.7-0.4-4.6 c-0.3-1.1-0.6-2.3-0.7-3.4l1.4-3.7l-8-0.9L264.7,195.7z" class="st6"/><path d="M277.3,78.2c-0.6-2.3-4.3-1.5-5.6-0.9c-3.5,1.6-5.2,3.3-6.6,7.1c-1.7,4.8-0.9,10.4-2.8,15.1 c-1.1,2.7-2.9,5-4.3,7.5s-2.4,5.6-1.6,8.3s4.2,4.7,6.6,3.2c1,2.9,3.3,5.3,6.1,6.5c2.9,1.1,6.2,0.3,8.2-2c1.8-2.3,2-5.5,2.1-8.5 c0.2-6.4,0.4-12.8,0.6-19.2L277.3,78.2z" class="st5"/><path d="M284.5,199.1l-1,0.2l10.1,47.4l-2.4,0.3c-1.4,0.3-2.8,0.3-4.2-0.1c-3.8-0.8-7.7-0.5-11.3,0.9 c-7.6,3-12.5,10.5-11.8,18.2c1,10.6,11.5,17.6,22.2,15.3c2.5-0.5,4.9-1.5,7-3c1.1-0.7,2.2-1.3,3.5-1.5l3.3-0.5l9.9,46.7l0.8-0.2 h0.3l54.8-11.7l0.5,3.2c0.3,1.4,0.3,2.8,0,4.1c-0.8,3.8-0.5,7.7,0.9,11.3c3,7.6,10.5,12.5,18.2,11.8c10.6-1,17.6-11.4,15.3-22.2 c-0.5-2.5-1.5-4.9-3-7c-0.7-1.1-1.3-2.2-1.5-3.5l-0.7-4.1l47.8-10.2l-0.1-0.5l-23.8-111.7c-1.4-6.4-7.7-10.6-14.1-9.2 c0,0,0,0,0,0L284.5,199.1z" class="st7"/><path d="M284.5,199.1c0,0,0.4-0.1,1.2-0.3l3.7-0.8l14.2-3l52.7-11.3l36.8-7.9l10.2-2.2c1.7-0.5,3.5-0.7,5.3-0.6 c1.8,0.2,3.6,0.7,5.2,1.7c1.6,1,3,2.3,4,3.9l0.4,0.6l0.3,0.6c0.2,0.4,0.4,0.9,0.5,1.3c0.3,0.9,0.5,1.8,0.7,2.8 c0.8,3.7,1.6,7.4,2.4,11.2c6.4,30.2,13.6,63.8,21.2,99.6l0,0.2l-0.2,0.1l-47.8,10.1l0.2-0.3c0.1,0.9,0.3,1.9,0.4,2.9 c0.1,0.5,0.1,1,0.2,1.4c0.1,0.5,0.3,0.9,0.5,1.4c0.4,0.9,0.9,1.8,1.5,2.6c0.5,0.9,1,1.8,1.4,2.8c0.9,2.3,1.5,4.8,1.5,7.3 c0,0.8,0,1.7-0.1,2.5c-0.4,3.3-1.6,6.5-3.5,9.1c-3.9,5.5-10.6,8.1-17.2,6.9c-3.2-0.6-6.1-2.1-8.5-4.3 c-4.8-4.3-7.1-10.7-6.3-17.1c0.1-0.8,0.3-1.6,0.4-2.3c0.1-0.7,0.2-1.5,0.1-2.2c-0.2-1.5-0.4-3-0.6-4.5l0.3,0.2l-55.8,11.9h-0.2 l0-0.2l-9.9-46.7l0.2,0.2l-3.2,0.5c-1,0.2-2,0.6-2.9,1.2c-1.7,1.2-3.7,2.2-5.7,2.9c-1,0.3-2,0.6-3.1,0.7c-0.5,0.1-1,0.2-1.6,0.2 c-0.5,0-1,0.1-1.6,0.1c-2,0-4.1-0.4-6-1c-1.9-0.6-3.7-1.6-5.3-2.8c-1.6-1.2-2.9-2.6-4-4.3c-1.1-1.6-1.9-3.3-2.3-5.2 c-0.5-1.8-0.6-3.7-0.5-5.5c0.3-3.6,1.7-7,4-9.8c2.1-2.6,4.9-4.6,8.1-5.8c2.9-1.1,6.1-1.5,9.2-1.2c1.4,0.3,2.9,0.5,4.4,0.6 c0.7,0,1.4-0.1,2.1-0.2l2.1-0.3l-0.1,0.2c-6.1-29.1-9.7-45.9-10-47.5l0,0C284.5,199.1,284.5,199.1,284.5,199.1l-1,0.2l0,0 c0.4,1.6,4,18.4,10.2,47.4v0.1h-0.1l-2.1,0.3c-0.7,0.1-1.4,0.2-2.1,0.2c-1.5-0.1-2.9-0.3-4.4-0.6c-3.1-0.3-6.2,0.1-9.1,1.2 c-3.1,1.2-5.8,3.1-7.9,5.7c-2.2,2.7-3.6,6.1-3.9,9.6c-0.1,1.8,0,3.7,0.5,5.4c1,3.7,3.1,7,6.2,9.2c1.6,1.2,3.3,2.1,5.2,2.7 c1.9,0.6,3.9,1,5.9,1c0.5,0,1,0,1.5-0.1c0.5,0,1-0.1,1.5-0.2c1-0.1,2-0.4,3-0.7c2-0.7,3.9-1.6,5.6-2.9c0.9-0.6,2-1,3.1-1.2 l3.2-0.5h0.2v0.2c3.1,14.6,6.4,30.2,10,46.7l-0.3-0.2l55.8-11.9l0.3-0.1v0.3c0.2,1.5,0.4,3,0.6,4.6c0.1,0.8,0,1.6-0.1,2.4 c-0.2,0.8-0.3,1.5-0.4,2.3c-0.4,3.1-0.1,6.2,1,9c1.1,2.9,2.8,5.5,5.1,7.6c2.3,2.1,5.2,3.5,8.3,4.2c6.4,1.2,12.9-1.4,16.7-6.6 c1.9-2.6,3.1-5.7,3.4-8.9c0.1-0.8,0.1-1.6,0.1-2.4c-0.1-2.4-0.6-4.8-1.5-7.1c-0.4-0.9-0.9-1.8-1.4-2.7c-0.6-0.8-1.1-1.7-1.5-2.7 c-0.2-0.5-0.4-1-0.5-1.5c-0.1-0.5-0.2-1-0.2-1.5c-0.1-1-0.3-1.9-0.4-2.9v-0.2l0.2,0l47.8-10.1l-0.2,0.3 c-7.6-35.8-14.8-69.4-21.2-99.7l-2.4-11.2c-0.2-0.9-0.4-1.8-0.7-2.7c-0.1-0.4-0.3-0.9-0.5-1.3l-0.3-0.6l-0.4-0.6 c-1-1.5-2.3-2.8-3.8-3.7c-1.5-0.9-3.2-1.5-5-1.6c-1.8-0.1-3.5,0.1-5.2,0.6l-10.2,2.2l-36.9,7.8l-52.7,11.1l-14.2,3l-3.7,0.8 L284.5,199.1z" class="st5"/><path d="M369.8,264.2c9.6-2.2,15.7-11.7,13.6-21.3c-2.2-9.7-11.7-15.7-21.4-13.5c-9.6,2.1-15.6,11.8-13.4,21.4 C350.7,260.3,360.3,266.4,369.8,264.2z M348,258c-4.2,2.2-8.4,4.4-12.5,6.5c-0.6,0.3-0.5,0.6-0.4,1.1c0.8,4.3-1.9,8.4-6.1,9.4 c-3.8,0.9-7.6-1.1-9.2-4.7c-1.5-3.4-0.4-7.5,2.6-9.7c3.1-2.3,7.4-2,10.2,0.6c0.2,0.2,0.5,0.5,0.8,0.8c4.3-2.3,8.7-4.5,13-6.8 c-2.5-6.2-2.2-12.3,0.7-18.1c-3.1-2-6.2-3.9-9.3-5.9c-3.3,3.9-7.6,6.1-12.8,6c-4,0-7.6-1.4-10.7-4.1c-6.2-5.5-7.3-14.7-2.5-21.5 c4.7-6.7,13.7-8.9,21-5c7.1,3.7,11,12.9,6.9,21.5c3.1,2,6.2,3.9,9.3,5.9c5.4-6.6,12.5-9.3,21.2-7.9c0.6-2,1.2-4,1.8-6.1 c-2.2-1.2-3.8-2.9-4.8-5.2c-2-4.9,0.4-10.5,5.5-12.7c4.6-2,10.4,0.3,12.5,5c3,6.7-1.9,14-9.2,13.8c-0.5,0-0.9,0-1,0.7 c-0.5,1.8-1,3.6-1.6,5.5c2.9,1.2,5.5,2.8,7.6,5c2.2,2.2,3.7,4.8,4.8,7.8c5.3-1.4,10.6-2.8,16-4.2c0.1-1.6,0.6-3.1,1.6-4.3 c2.5-2.8,6.8-2.9,9.4-0.3c2.6,2.6,2.5,6.9-0.2,9.3c-2.8,2.5-7.1,2.2-9.4-0.8c-0.5-0.7-0.9-0.7-1.7-0.5 c-4.9,1.3-9.9,2.6-14.9,3.9c0.7,4.7,0.1,9.3-2.1,13.5c3.1,2,6.2,3.9,9.4,5.9c6.3-7.5,16.5-7.5,22.9-2.3 c6.3,5.2,7.8,14.6,3.3,21.4c-4.7,7-13.7,9.4-21.1,5.5c-7.1-3.7-11.2-12.8-7.1-21.6c-3.1-1.9-6.2-3.9-9.2-5.8 c-1.5,1.3-2.9,2.9-4.6,4.2c-4.4,3.3-9.5,4.5-14.9,3.8c-0.8-0.1-1,0.1-1.2,0.8c-0.5,2.1-1.1,4.3-1.6,6.5c3.6,1.7,6,4.4,6.8,8.3 c0.6,2.7,0.2,5.3-1.2,7.8c-2.6,4.8-8.4,7.1-13.7,5.3c-5.2-1.7-8.4-7.1-7.6-12.5c0.7-4.9,5.2-10.1,12.5-9.6 c0.6-2.4,1.2-4.9,1.9-7.4C354.5,265.1,350.8,262.2,348,258z M354.5,277.6c-4.4,0.9-7.2,5.2-6.3,9.5c0.9,4.4,5.2,7.3,9.6,6.4 c4.4-0.9,7.3-5.2,6.3-9.6C363.2,279.5,358.9,276.7,354.5,277.6z M336.6,226.9c2.9-4.7,2.2-12.8-4.3-17c-6.3-4.1-14.6-2-18.3,4.4 c-3.8,6.7-0.7,14.1,3.5,16.7c-0.7-3.8,0.3-7,3-9.6c-3-2.8-3.6-6-1.7-8.9c1.7-2.6,5.1-3.7,7.9-2.5c1.4,0.6,2.5,1.6,3.2,2.9 c1.1,2.1,1,4.3-0.1,6.4C333.5,220.7,335.7,223.2,336.6,226.9z M401.8,273.4c-3.1-3.3-3.6-6.5-1.5-9.3c1.9-2.5,5.4-3.3,8.2-1.9 c1.4,0.7,2.5,1.9,3.1,3.4c0.8,1.9,0.5,3.8-0.4,5.7c3.6,1.3,5.9,3.8,6.8,7.5c3.2-5.6,1.6-13.9-5.3-17.6 c-6.5-3.5-14.7-0.8-17.8,5.8c-3.3,6.9,0.4,13.9,4,15.8C398.1,279.2,399.1,276,401.8,273.4z M377.8,217.5 c3.5-0.8,5.7-4.3,4.9-7.8c-0.8-3.5-4.2-5.7-7.7-4.9c-3.5,0.8-5.8,4.2-5,7.7C370.8,216.1,374.3,218.3,377.8,217.5z M326.1,262.3 c-2.6,0.6-4.2,3.2-3.7,5.8c0.6,2.6,3.2,4.3,5.8,3.7c2.6-0.6,4.2-3.2,3.7-5.8C331.3,263.4,328.7,261.7,326.1,262.3z M332.7,225.8 c-1.4-2.8-4.4-4.1-7.4-3.3c-2.7,0.7-4.8,3.3-4.7,6C324.6,227.6,328.6,226.7,332.7,225.8z M414.1,277.7c-1.4-2.8-4.5-4.1-7.4-3.3 c-2.7,0.7-4.8,3.3-4.7,6c0.2,0,0.5-0.1,0.7-0.1C406.5,279.4,410.2,278.6,414.1,277.7z M400.5,284.1c5.9,3.4,13.4,1,16.3-3.6 C411.4,281.7,406.1,282.9,400.5,284.1z M319.2,232.2c5.8,3.5,13.7,0.9,16.2-3.6C330.1,229.8,324.7,231,319.2,232.2z M327.4,215.4c-0.4-1.7-2.1-2.8-3.9-2.4c-1.8,0.4-2.9,2.2-2.4,4c0.4,1.7,2.2,2.8,3.9,2.4C326.7,218.8,327.8,217.1,327.4,215.4z M408.7,267.3c-0.4-1.7-2.1-2.8-3.9-2.5c-1.8,0.4-2.9,2.2-2.5,3.9c0.4,1.7,2.2,2.8,3.9,2.4C408,270.7,409.1,269,408.7,267.3z M407.7,232.6c-1.7,0.4-2.8,2.2-2.4,3.9c0.4,1.7,2.1,2.8,3.9,2.4c1.8-0.4,2.9-2.2,2.4-3.9C411.1,233.2,409.4,232.2,407.7,232.6z" class="st8"/><g class="st9"><path d="M369.7,220.9c-1-7.8-2.9-16.1-8.4-21.7c-8.4-8.4-19.7-2.9-29.4-9.7l-34.8,6.9c-0.2,5.7,6.5,10.4,11.6,13 s10.8,4.2,15.1,8.1c6.9,6.1,8.1,16.4,13.2,24.1c2.9,4.4,7,7.9,10.1,12.1c6,8,8.9,19.1,17.8,23.8c1,0.5,2.4,1,3.3,0.3 c0.6-0.6,1-1.5,1-2.4C372,257.3,372.2,239,369.7,220.9z"/></g><path d="M371,278.7l-14.1-18.6l-0.1,0.9c-0.1,0.7,0.1,1.4,0.6,1.9c1.1,1.9,4.3,6.1,11.9,15.1 C369.7,278.5,370.4,278.8,371,278.7L371,278.7z" class="st10"/><path d="M372.2,240.5c-0.2,0.7-4.1,20.9-4.1,20.9l-9.3-1l0.6-21.2L372.2,240.5z" class="st6"/><path d="M358.9,255.7c0,0,6.6,6.2,10.7,2l0.7,2.3l2.5,16.2c0.2,1.1-0.4,2.1-1.5,2.4c-0.8,0.2-1.6,0-2.1-0.6 c-2.7-3.2-12.8-15.1-12.5-16.6l0.5-3.6C357.5,256.8,358.1,256,358.9,255.7L358.9,255.7z" class="st5"/><path d="M365.1,265.8c0.9-0.5,1.8-0.9,2.8-1.2c1-0.2,2-0.3,3-0.4C368.8,263.6,366.5,264.2,365.1,265.8L365.1,265.8z" class="st1"/><path d="M367.4,269.5c0.5-0.6,1.2-1,1.9-1.4c0.8-0.2,1.6-0.3,2.3-0.2c0,0-0.2-0.2-0.7-0.3c-1.2-0.3-2.5,0.2-3.3,1.2 C367.4,269.2,367.3,269.5,367.4,269.5z" class="st1"/><path d="M368.7,272.4c0.6-0.3,1.2-0.6,1.9-0.9c1-0.3,1.9,0,1.9-0.2s-0.8-0.6-2-0.3S368.6,272.3,368.7,272.4z" class="st1"/><path d="M365.2,261c0,0.1,1.2-0.2,2.6-0.1s2.5,0.5,2.6,0.4c-0.7-0.6-1.6-0.9-2.6-0.9C367,260.3,366,260.5,365.2,261 z" class="st1"/><path d="M368.7,260.9c0-0.3,0-0.5,0-0.8c-0.1-0.7-0.4-1.3-0.8-1.9c-0.2-0.4-0.6-0.8-1.1-1c-0.3-0.1-0.7,0-0.9,0.3 c-0.2,0.3-0.3,0.6-0.2,0.9c0.2,1.4,1.4,2.4,2.8,2.5c1.4,0,2.6-0.8,3.2-2c0.2-0.3,0.2-0.7,0-1c-0.2-0.3-0.5-0.4-0.9-0.4 c-0.5,0.2-0.9,0.4-1.3,0.8c-0.5,0.5-0.9,1-1.2,1.7c-0.1,0.2-0.2,0.5-0.2,0.7c0.5-0.8,1-1.5,1.7-2.1c0.3-0.3,0.7-0.5,1.1-0.7 c0.2,0,0.4,0,0.5,0.2c0.1,0.2,0.1,0.4,0,0.6c-0.5,1.1-1.6,1.7-2.8,1.7c-1.2-0.1-2.2-0.9-2.4-2.1c0-0.2,0-0.5,0.1-0.6 c0.1-0.2,0.3-0.2,0.5-0.1c0.4,0.2,0.7,0.5,0.9,0.9C368.2,259.2,368.5,260,368.7,260.9z" class="st1"/><g class="st11"><path d="M388.8,269.6l-22.9-4.8l0.5,0.7c0.5,0.8,1,0.9,1.7,1.1c2.1,0.7,7.2,1.9,18.9,3.7 C387.6,270.3,388.3,270.1,388.8,269.6z" class="st10"/></g><path d="M364.6,240c0.4,0.6,10.6,18.5,10.6,18.5l-7.7,5.4l-13.4-16.4L364.6,240z" class="st6"/><path d="M280,104c-0.3-0.1-0.6-0.2-0.9-0.3c-0.8-0.4-1.5-0.9-2.2-1.5c-1-0.8-1.9-1.8-2.7-2.8 c-1-1.3-1.8-2.7-2.3-4.3c-0.7-2.8-0.7-5.8,0-8.7c0.2-0.9,0.5-1.7,0.8-2.5c0.1-0.3,0.3-0.6,0.5-0.9c0.1,0-0.5,1.3-0.9,3.4 c-0.6,2.8-0.5,5.7,0.1,8.4c0.5,1.5,1.2,2.9,2.1,4.1c0.8,1,1.6,2,2.6,2.8C278,102.7,279,103.4,280,104z" class="st10"/><path d="M364.5,260.4c0,0,9.1,0.1,9.5-5.8l2,1.3l12.5,10.6c0.8,0.7,1,1.8,0.5,2.8c-0.4,0.7-1.2,1-2,0.9 c-4.2-0.6-19.6-3.1-20.3-4.3l-2.2-3.2C364.1,262,364.1,261.1,364.5,260.4L364.5,260.4z" class="st5"/><path d="M380,265c0-0.8,0.2-1.6,0.5-2.3c0.6-1.2,1.7-1.6,1.6-1.7s-0.3,0-0.7,0.2c-0.5,0.3-1,0.7-1.3,1.3 c-0.3,0.5-0.4,1.2-0.4,1.8C379.8,264.8,380,265,380,265z" class="st1"/><path d="M382.7,266.4c0.1,0,0.3-0.9,1-1.7s1.5-1.2,1.5-1.3s-1,0.1-1.8,1.1C382.8,264.9,382.6,265.7,382.7,266.4z" class="st1"/><path d="M375.9,263.8c0.4-1,0.8-1.9,1.3-2.8c0.6-0.8,1.3-1.6,2-2.3c-1,0.4-1.9,1.1-2.4,2 C376.1,261.6,375.8,262.7,375.9,263.8z" class="st1"/><path d="M376.3,259c0,0-0.1-0.2-0.5-0.5c-0.5-0.5-1.2-0.8-1.8-1c-0.5-0.2-1-0.2-1.5-0.1c-0.3,0.1-0.5,0.4-0.5,0.8 c0,0.3,0.2,0.6,0.4,0.9c1.1,0.9,2.6,0.9,3.7,0.1c1-0.9,1.5-2.3,1.1-3.6c-0.1-0.3-0.3-0.6-0.7-0.7c-0.3-0.1-0.7,0-0.9,0.3 c-0.3,0.4-0.4,0.9-0.4,1.4c-0.1,0.7,0,1.4,0.1,2.1c0.1,0.5,0.2,0.7,0.3,0.7c-0.2-0.9-0.2-1.8-0.1-2.7c0-0.4,0.2-0.9,0.4-1.2 c0.1-0.2,0.3-0.2,0.5-0.2c0.2,0.1,0.3,0.3,0.4,0.5c0.3,1.1-0.1,2.4-1,3.1c-0.9,0.7-2.2,0.7-3.1,0c-0.2-0.2-0.3-0.4-0.3-0.6 c0-0.2,0.1-0.4,0.3-0.4c0.4-0.1,0.9-0.1,1.3,0C374.7,258,375.5,258.4,376.3,259z" class="st1"/><path d="M305.3,200.9c0.3-0.1,24.3,11.3,25.8,12.7s4.7,12.5,10.6,22.2s20.7,22.3,20.7,22.3l10.4-5.7 c0,0-19.3-42.2-23-48.9S337.5,186,337.5,186l-5.8-5.2l-3-10.1l-28,5.8c-0.3,0.1-4,10.4-1,18.5 C300.8,197.6,302.8,199.7,305.3,200.9z" class="st5"/><path d="M368.8,182.7c-5.8-6.5-23.2-15.1-23.2-15.1h-2.9l-16.8,3.6c0,0,2.2,7.6,2.3,8s12,17,12,17l12,4.8l2.3,1.7 c-0.4,5.3-0.4,10.6,0.1,15.9c0.8,6.8,5.7,26.7,5.7,26.7l11.9-0.5c0,0,2.6-32.4,2.5-37.7S377.3,192.3,368.8,182.7z" class="st5"/><path d="M372.8,252.4c0-0.1-0.1-0.1-0.1-0.2c-0.1-0.1-0.2-0.3-0.3-0.6c-0.3-0.5-0.6-1.3-1.1-2.3 c-0.9-2-2.3-4.9-3.9-8.4c-3.3-7.1-7.8-16.9-13-27.6c-2.6-5.4-5.1-10.5-7.6-14.9c-1.3-2.1-2.8-4-4.4-5.8 c-1.5-1.7-2.9-3.3-4.2-4.8l-6.2-6.9l-1.7-1.9l-0.4-0.5c-0.1-0.1-0.1-0.1-0.1-0.2c0,0,0.1,0,0.2,0.1l0.5,0.5l1.7,1.8 c1.5,1.6,3.7,3.9,6.3,6.8c1.3,1.4,2.8,3,4.3,4.8c0.8,0.9,1.5,1.8,2.3,2.7c0.8,1,1.5,2,2.2,3.1c2.6,4.5,5.1,9.6,7.7,14.9 c5.2,10.7,9.7,20.5,12.9,27.6c1.6,3.5,2.9,6.4,3.8,8.4l1,2.3c0.1,0.2,0.2,0.4,0.3,0.6S372.8,252.4,372.8,252.4z" class="st10"/><polygon points="344.7 112.6 348.2 103.2 356.6 102.1 353.2 119.5" class="st6"/><path d="M345.2,109.6l-3.5,9.2c0,0-6.1-3-15-7.5c-9.7-4.9-13.3-1.5-13.3-1.5l13.6,18.3l8.4,4.1 c0,0,10.1,4,12.8,2.6c5.4-2.8,7.2-22,7.2-22L345.2,109.6z" class="st12"/><path d="M330.7,129.8c-1.1-5.9-3-15.4-7.8-19.2c-1.7-1-3.6-1.7-5.5-1.9c-3.4,0-12.8,1.4-13.2,1.2l-12.6,4.8 l-10,7.9c-1.2,1.2-0.8,2.1-0.1,3.6l8.1,18.4l8.4,17c-0.1,2.7,0.1,11,0.1,16.5c0,2.6,0.8,2.5,0.8,2.5 c16.2,1.2,30.3-3.2,41.8-14.5c1.5-1.4,0.3-2.7-0.8-4.5c-2.5-4-1.9-2.3-3.4-5.4c-1.9-4-4.4-15.2-4.5-15.5S332,137.4,330.7,129.8z" class="st12"/><path d="M282.6,121.4c0,0-5.3,2.7-7.2,14.2c-2.3,13.3-6.1,23.4-7.8,31.5c-1.3,6.3-4,26.1-4,26.1l9.2,1.9l11-36.7 l2.9-11.9l2.2-9.5L282.6,121.4z" class="st12"/><path d="M285,136.4c0.1-0.1,3,5.5,6.6,12.5s6.4,12.6,6.3,12.6s-3-5.5-6.6-12.5S284.9,136.5,285,136.4z" class="st5"/><path d="M321.6,116.8c0,0,0.1,0.1,0.2,0.2l0.5,0.6c0.5,0.5,1.1,1.3,1.8,2.3c1.8,2.7,3.4,5.5,4.6,8.5 c1.2,3,2.2,6.1,2.9,9.3c0.2,1.2,0.4,2.2,0.5,2.9c0.1,0.4,0.1,0.7,0.1,1.1c-0.1-0.3-0.2-0.7-0.2-1.1c-0.1-0.7-0.3-1.7-0.6-2.9 c-0.7-3.1-1.7-6.2-2.9-9.2c-1.2-3-2.7-5.8-4.5-8.5c-0.7-1-1.3-1.8-1.7-2.4C322,117.4,321.8,117.1,321.6,116.8z" class="st5"/><path d="M335,167.8c-0.3,0.3-0.6,0.5-0.9,0.7c-0.6,0.4-1.5,1-2.7,1.7c-6.1,3.6-12.7,6.1-19.7,7.4 c-1.3,0.2-2.4,0.4-3.2,0.4c-0.4,0.1-0.8,0.1-1.2,0.1c0.4-0.1,0.8-0.2,1.2-0.2c0.7-0.1,1.8-0.3,3.1-0.6 c6.9-1.3,13.5-3.8,19.6-7.3c1.2-0.7,2.1-1.2,2.7-1.6C334.3,168.1,334.6,167.9,335,167.8z" class="st5"/><path d="M326.7,150.9c-0.1,0.3-0.3,0.6-0.5,0.9c-0.3,0.6-0.8,1.4-1.5,2.4c-1.3,2-3.2,4.7-5.5,7.5s-4.5,5.2-6.2,6.9 c-0.8,0.8-1.5,1.5-2,2c-0.2,0.3-0.5,0.5-0.8,0.7c0.2-0.3,0.4-0.5,0.7-0.8l1.9-2c1.6-1.7,3.8-4.1,6.1-6.9s4.2-5.4,5.5-7.4 l1.6-2.3C326.3,151.4,326.5,151.1,326.7,150.9z" class="st5"/><g class="st13"><path d="M323.7,119.6c0,0,6.7,7.2,7.8,11.5c0.6,2.7,0.7,5.5,0.2,8.2c0,0-1.9-7.9-3.3-10.9C327.1,125.3,323.7,119.6,323.7,119.6 z"/></g><path d="M345.2,123.9c-1.9-1.1-3.2-3.1-3.4-5.3c0.4,1,0.8,1.9,1.4,2.8C343.8,122.4,344.5,123.2,345.2,123.9z" class="st5"/><path d="M273.1,81.5c0.1-1.1,0.4-2.1,0.8-3.1c0.4-1,1.3-1.7,2.3-2c0.5-0.1,1,0,1.4,0.3c0.3,0.3,0.3,0.8-0.1,1.1 c0,0-0.1,0.1-0.2,0.1l-0.1,0.1c-0.6,1.3-1.3,2.6-2,3.9c-0.2,0.3-0.4,0.6-0.6,0.9c-0.3,0.2-0.7,0.3-1,0.2 C273,82.9,273,82.1,273.1,81.5z" class="st10"/><path d="M272.5,85.6c1.5-5.4,5.4-9.9,10.6-12.1c3-1.3,4.5-1.2,6.9-1.5c2.4-0.4,4.9,0.1,6.9,1.4 c2.5,1.5,4.6,3.5,6.1,6c1.5,2.6,2.8,5.3,3.8,8.1c1,2.8,1.2,5.9,0.6,8.8l-6.5,4.1c-3.8,1.7-7.7,3.4-11.8,4.1s-8.6,0.1-12-2.3 C272.6,98.7,270.8,91.2,272.5,85.6z" class="st5"/><path d="M278.7,83l7.8-7.5l2.5-0.7c5.5-2.2,11.7,2.3,13.6,6.7c2,4.9,4.4,11,5.1,14.9c1.4,7.9-4.6,11.1-4.6,11.1 s1.7,3.8,2.8,6.3l-1.5,8l-14-4.4l-13.1-30.8C276.8,85.2,277.4,83.7,278.7,83z" class="st6"/><path d="M301.9,88.7c0.2,0.5-0.1,1.1-0.6,1.3c0,0,0,0,0,0c-0.5,0.2-1.1,0-1.3-0.5c-0.2-0.5,0.1-1.1,0.6-1.3 c0,0,0,0,0,0C301.1,87.9,301.6,88.2,301.9,88.7z" class="st5"/><path d="M302,84.7c-0.1,0.2-1-0.1-2,0.2s-1.6,1.2-1.8,1.1s0-0.3,0.2-0.7c0.3-0.5,0.8-0.8,1.4-1 c0.5-0.2,1.1-0.2,1.7,0C301.8,84.4,302,84.6,302,84.7z" class="st5"/><path d="M298.7,95.3c0.5-0.4,1-0.7,1.6-0.9c0.3-0.1,0.5-0.3,0.5-0.5c-0.1-0.3-0.2-0.5-0.5-0.7l-1.5-1.8 c-1.3-1.5-2.5-3-3.6-4.7c1.5,1.3,2.8,2.8,4,4.4l1.4,1.8c0.3,0.3,0.5,0.6,0.5,1c0,0.2-0.1,0.4-0.3,0.5c-0.1,0.1-0.3,0.2-0.4,0.2 C299.9,95,299.3,95.2,298.7,95.3z" class="st5"/><path d="M303.1,107.5c-3.5,1.3-7.3,1.6-11,0.8c0,0,4.5,4.3,11.8,1L303.1,107.5z" class="st14"/><path d="M300.2,81.3c-0.1,0.3-0.9,0.4-1.8,0.8s-1.6,0.9-1.9,0.8c-0.1-0.1-0.1-0.4,0.1-0.7c0.3-0.5,0.8-0.8,1.3-1 c0.5-0.2,1.1-0.3,1.7-0.2C300,80.9,300.2,81.1,300.2,81.3z" class="st5"/><path d="M290.1,93.2c0.2,0.5,0.8,0.8,1.3,0.6c0,0,0,0,0,0c0.5-0.2,0.8-0.7,0.6-1.2c-0.2-0.5-0.8-0.8-1.3-0.6 c0,0,0,0,0,0C290.3,92.1,290,92.7,290.1,93.2z" class="st5"/><path d="M288.1,89.9c0.2,0.1,0.7-0.7,1.7-1.1s2-0.2,2-0.3s-0.2-0.2-0.6-0.4c-0.6-0.1-1.2-0.1-1.7,0.1 c-0.5,0.2-1,0.6-1.3,1.1C288,89.6,288,89.9,288.1,89.9z" class="st5"/><path d="M287.4,86.4c0.3,0.2,1-0.4,1.9-0.8s1.8-0.5,1.9-0.8c0-0.2-0.2-0.3-0.6-0.4c-1.2-0.2-2.4,0.3-3.1,1.3 C287.2,86,287.2,86.3,287.4,86.4z" class="st5"/><path d="M283.6,98.4c-0.2-0.6-1.3-1.7-1.9-1.6c-1.6,0.3-4.2,1.3-2.9,5.1c1.7,5.1,6.5,2.3,6.5,2.2 S284.3,100.3,283.6,98.4z" class="st6"/><path d="M283.3,102.7c0,0-0.1,0.1-0.2,0.2c-0.2,0.2-0.4,0.2-0.7,0.2c-0.6,0-1.4-0.7-1.7-1.7 c-0.2-0.4-0.2-0.9-0.2-1.4c0-0.4,0.2-0.7,0.4-0.9c0.2-0.1,0.5-0.1,0.6,0.1c0.1,0.1,0.1,0.2,0.1,0.2s0.1-0.1,0-0.3 c-0.1-0.1-0.2-0.2-0.3-0.2c-0.2-0.1-0.4-0.1-0.5,0c-0.4,0.2-0.7,0.7-0.7,1.1c-0.1,0.5,0,1.1,0.2,1.5c0.3,0.9,1,1.6,2,1.8 c0.3,0,0.6-0.2,0.8-0.4C283.3,102.9,283.3,102.7,283.3,102.7z" class="st14"/><path d="M281.5,97l1.8,0.8c3.4-7.5,8.7-25.1,8.4-24.1c-2.9,0.1-5.7,0.8-8.2,2.3c-3.8,2.4-10.7,7.6-8.6,12.4 C276.5,91.7,278.8,94.6,281.5,97z" class="st5"/><path d="M273.8,98.8c0-0.1,0-0.2,0-0.3c0-0.3,0-0.6,0-0.9c0.1-1.1,0.5-2.2,1.1-3.2c0.9-1.4,2.1-2.7,3.4-3.8 c1.5-1.2,3.2-2.4,4.7-4c1.5-1.4,2.7-3.1,3.8-4.8c0.9-1.4,1.6-2.9,2.2-4.5c0.4-1.1,0.8-2.1,1-3.2l0.2-0.9c0-0.1,0-0.2,0.1-0.3 c0,0.1,0,0.2,0,0.3c0,0.2-0.1,0.5-0.2,0.9c-0.3,1.1-0.6,2.2-1,3.3c-0.6,1.6-1.4,3.1-2.3,4.6c-1.1,1.8-2.4,3.4-3.9,4.9 c-1.5,1.4-3.1,2.8-4.7,4c-1.3,1-2.5,2.3-3.4,3.7c-0.6,1-1,2-1.2,3.1C273.8,98.4,273.8,98.8,273.8,98.8z" class="st10"/><path d="M275.6,99c-0.2-0.4-0.3-0.8-0.2-1.2c0-1.1,0.3-2.2,0.9-3.1c0.9-1.3,2.1-2.5,3.5-3.3 c1.6-1.1,3.2-2.3,4.5-3.8c1.3-1.4,2.5-3,3.5-4.8c0.8-1.4,1.4-2.9,1.9-4.4c0.3-1,0.6-2.1,0.8-3.2c0-0.3,0.1-0.6,0.1-0.9 c0-0.1,0-0.2,0.1-0.3c0,0.1,0,0.2,0,0.3c0,0.2,0,0.5-0.1,0.9c-0.2,1.1-0.4,2.2-0.7,3.2c-1,3.5-2.9,6.7-5.4,9.3 c-1.4,1.4-2.9,2.7-4.6,3.8c-1.4,0.8-2.6,2-3.5,3.2c-0.6,0.9-1,1.9-1,3C275.4,98.2,275.5,98.6,275.6,99z" class="st10"/><path d="M295.8,97.7c-0.2-0.1-0.3-0.1-0.5,0c-0.1,0.1-0.2,0.2-0.3,0.3c-0.4,0.9-0.1,2,0.9,2.5 c0.5,0.2,1,0.2,1.5,0.1c0.9-0.4,1.5-1.4,1.3-2.4C297.8,98.1,296.7,97.9,295.8,97.7z" class="st14"/><path d="M297.4,100.7c-0.4,0.1-0.8,0-1.2-0.1c-0.4-0.1-0.7-0.4-1-0.7c-0.3-0.4-0.3-1-0.2-1.4 c0.1-0.2,0.2-0.5,0.4-0.5c0.2,0,0.5,0,0.7,0.1l1.3,0.2c0.4,0.1,0.8,0.1,1.2,0.1c-0.4-0.2-0.8-0.3-1.2-0.3l-1.3-0.3 c-0.3-0.1-0.5-0.1-0.8-0.1c-0.2,0-0.3,0.2-0.4,0.3c-0.1,0.1-0.1,0.3-0.2,0.4c-0.2,0.5-0.1,1.1,0.2,1.6c0.3,0.4,0.7,0.7,1.1,0.8 C296.5,101,297,100.9,297.4,100.7z" class="st5"/><path d="M267.8,207.1c0.1,0.8,0.1,1.6-0.1,2.3c0,0.8-0.3,1.5-0.6,2.2c-0.1-0.8-0.1-1.6,0.1-2.3 C267.2,208.6,267.4,207.8,267.8,207.1z" class="st14"/><path d="M264.6,208.9c0.1,0,0.1,0.5,0.1,1s-0.2,1-0.3,1s-0.3-0.5-0.2-1.1S264.4,208.9,264.6,208.9z" class="st14"/><path d="M265.2,205.4c0.1,0.1,0.1,0.4,0,0.7s-0.1,0.7-0.2,0.7s-0.3-0.3-0.3-0.8S265.1,205.3,265.2,205.4z" class="st14"/><path d="M271.3,203.3c0.1,0.9,0,1.8-0.3,2.7c-0.1,0.9-0.4,1.8-0.8,2.6C270.3,206.8,270.6,205,271.3,203.3z" class="st14"/><path d="M406.4,172.9c0,0-0.1-0.1-0.4-0.5l-1.1-1.4c-1-1.3-2.4-3.1-4.3-5.5l-15.6-20.4l-51.8-67.8l0.3,0.1l-3,0.7 l0.2-0.2c-0.2,0.7-0.5,1.4-0.7,2.1c-11.6,32.7-22.1,62.3-29.7,83.8c-3.8,10.7-6.9,19.4-9.1,25.4c-1.1,3-1.9,5.3-2.5,6.9 c-0.3,0.8-0.5,1.4-0.7,1.8s-0.2,0.6-0.2,0.6s0.1-0.2,0.2-0.6s0.4-1,0.6-1.8c0.6-1.6,1.4-3.9,2.4-6.9c2.1-6,5.2-14.7,8.9-25.4 l29.6-83.8c0.2-0.7,0.5-1.4,0.7-2.1v-0.1h0.1l3-0.7h0.2l0.1,0.1c20.3,26.7,38.5,50.6,51.7,68l15.5,20.5l4.2,5.6l1.1,1.5 C406.2,172.7,406.4,172.9,406.4,172.9z" class="st5"/><path d="M347.7,89.3c1-0.2,1.2,1.9,1.2,1.9c0.5-0.3,1.8,0.6,1.7,1.3c0.3-0.2,0.4-0.5,0.8-0.5c0.4,0,0.8,0.1,1.1,0.4 c0.2,0.3,0.2,0.8,0,1.2c0.8-0.3,1.7,0,2,0.8c0.1,0.2,0.1,0.4,0.1,0.7c0,0.2,0,0.4-0.1,0.6c0,0.1,0,0.1-0.1,0.2l-0.1,0.1 c-0.1,0.1-0.3,0.1-0.4,0.2l-0.1,0.1c-0.2,0.2-0.4,0.3-0.6,0.5c-0.1,0.1-0.2,0.2-0.2,0.3c-0.1,0-0.1,0.1-0.2,0.1 c-0.5,0.3-0.5,0.8-0.8,1.2c-0.4,0.6-0.8,1-1.4,1.4c-0.6,0.1-1.2-0.2-1.5-0.8c-0.2,0.3-0.6,0.5-0.9,0.3c-0.3-0.2-0.6-0.5-0.6-0.8 c-0.1-0.4,0-0.7,0.2-1.1c-0.3,0.4-0.8,0.4-1.1,0.2c-0.3-0.3-0.5-0.7-0.5-1.1c0.1-0.4,0.2-0.8,0.4-1.2c0.2-0.4,1.1-2,1.2-2.3l0,0 c-0.3,0.2-0.7,0.2-1-0.1c-0.1-0.2-0.2-0.4-0.1-0.5V92c0.1-0.8,0.1-1,0.3-1.7C347.1,89.9,347.3,89.4,347.7,89.3z" class="st6"/><path d="M356,96.3c0.3,0.2,0.5,0.5,0.6,0.8c-0.1,0.5-0.3,1-0.6,1.4l-1-0.6l-0.3-0.2c-0.3,0-0.5,0.4-0.8,0.6 c-0.4,0.2-1,0.1-1.3-0.3c-0.2-0.4-0.2-1,0-1.4c0.3-0.4,0.7-0.7,1.2-0.8C354.6,95.7,355.4,95.9,356,96.3z" class="st6"/><path d="M352.7,93.5c-0.7,0.8-1.4,1.7-1.9,2.7c-0.6,0.9-1.2,1.8-1.7,2.8c0.7-0.8,1.4-1.7,1.9-2.6 C351.7,95.5,352.2,94.5,352.7,93.5z" class="st14"/><path d="M350.7,92.5c-0.7,0.7-1.3,1.5-1.8,2.4c-0.6,0.8-1,1.7-1.3,2.7c0.6-0.8,1.1-1.7,1.5-2.5 C349.7,94.2,350.2,93.3,350.7,92.5z" class="st14"/><path d="M348.7,91.4c-0.6,0.6-1.1,1.3-1.4,2c-0.4,0.7-0.8,1.4-1,2.2c0.5-0.6,1-1.3,1.3-2.1 C348.1,92.9,348.4,92.2,348.7,91.4z" class="st14"/><path d="M355.3,96.1c0,0-0.1-0.2-0.5-0.3c-0.5-0.1-1,0-1.4,0.3c-0.4,0.3-0.7,0.6-1,1c-0.2,0.3,0,0.6,0,0.6 s0-0.2,0.2-0.4c0.3-0.3,0.6-0.6,1-0.8c0.3-0.2,0.7-0.4,1.1-0.4C355.1,96,355.3,96.1,355.3,96.1z" class="st14"/><ellipse cx="331.9" cy="78.5" class="st5" rx="4.6" ry="4.6" transform="matrix(0.963 -0.2694 0.2694 0.963 -8.8714 92.3341)"/><path d="M323.4,14.3c0.1,0,1.6,11.3,3.3,25.3s3,25.4,2.8,25.4s-1.6-11.3-3.3-25.3S323.2,14.3,323.4,14.3z" class="st5"/><path d="M356.1,97.5c0,0-0.2,0.4-0.9,1c-0.4,0.4-0.9,0.6-1.4,0.6c-0.7,0.1-1.4-0.3-1.8-0.9h0.5 c-0.2,0.4-0.4,0.8-0.6,1.1c-0.3,0.4-0.7,0.7-1.2,0.8c-0.7,0.2-1.4-0.2-1.7-0.9c0-0.1-0.1-0.3-0.1-0.4l0.3,0.3 c-0.5,0.2-1.1,0-1.5-0.4c-0.3-0.4-0.4-0.9-0.2-1.3l0.2,0.3c-0.4,0.1-0.9-0.1-1.2-0.4c-0.2-0.2-0.3-0.5-0.4-0.9 c0-0.5,0.3-0.7,0.3-0.7s-0.1,0.2-0.1,0.7c0,0.3,0.1,0.5,0.3,0.7c0.2,0.2,0.6,0.3,0.9,0.2l0.3-0.1l-0.1,0.3 c-0.1,0.3,0,0.6,0.2,0.9c0.2,0.3,0.6,0.4,1,0.2l0.4-0.1v0.4c0,0.5,0.4,0.8,0.9,0.8c0.1,0,0.2,0,0.2,0c0.8-0.2,1.2-1,1.5-1.7 l0.2-0.5l0.2,0.5c0.3,0.5,0.8,0.8,1.3,0.7c0.5,0,0.9-0.2,1.3-0.5C355.4,98,355.7,97.7,356.1,97.5z" class="st14"/></g><g id="freepik--character-2--inject-124"><path d="M198.3,154.9l-8.4-30.9c-1.9-7.8-7.9-13.2-15.6-11.1l-0.7,0.2c-7,2.3-11.1,9.7-9.4,16.8 c1.6,6.7,3.5,14.1,4.7,17.6c2.5,7.2,10.1,6,10.1,6s1.3,4.5,1.9,6.6l-0.3,5.5l5.6-3.2L198.3,154.9z" class="st15"/><path d="M179.1,153.6c3.4-1.1,6.3-3.2,8.5-5.9c0,0-0.5,6.2-7.9,8L179.1,153.6z" class="st16"/><path d="M168.9,136.6c0.2,0.6,0.8,0.9,1.4,0.7c0.5-0.1,0.9-0.6,0.8-1.1c0-0.1,0-0.1,0-0.2c-0.2-0.6-0.8-0.9-1.4-0.7 c-0.5,0.1-0.9,0.6-0.8,1.1C168.8,136.5,168.8,136.5,168.9,136.6z" class="st5"/><path d="M166.8,132.7c0.2,0.1,0.8-0.8,1.9-1.1s2.1-0.1,2.2-0.2s-0.2-0.3-0.6-0.4c-0.6-0.2-1.2-0.2-1.8,0 c-0.6,0.2-1.1,0.6-1.5,1.1C166.8,132.4,166.7,132.7,166.8,132.7z" class="st5"/><path d="M178.4,133.3c0.2,0.6,0.8,0.9,1.3,0.7c0.5-0.1,0.9-0.6,0.8-1.2c0,0,0-0.1,0-0.1c-0.2-0.6-0.8-0.9-1.3-0.7 c-0.5,0.1-0.9,0.6-0.8,1.2C178.4,133.2,178.4,133.2,178.4,133.3z" class="st5"/><path d="M177.8,129.3c0.2,0.1,0.8-0.8,1.9-1.1c1.1-0.4,2.1-0.1,2.2-0.2c0.1-0.2-0.2-0.3-0.6-0.4 c-1.2-0.4-2.5,0.1-3.3,1.1C177.8,129,177.7,129.3,177.8,129.3z" class="st5"/><path d="M176.7,139.3c-0.6,0-1.3,0.1-1.9,0.3c-0.3,0.1-0.6,0.1-0.7-0.1c-0.1-0.3-0.2-0.6-0.1-0.9 c0-0.8,0.1-1.6,0.1-2.4c0.2-2.1,0.2-4.2,0-6.3c-0.3,2.1-0.5,4.2-0.5,6.3c0,0.9,0,1.7-0.1,2.4c-0.1,0.4,0,0.8,0.2,1.2 c0.2,0.2,0.4,0.3,0.6,0.3c0.2,0,0.3,0,0.5-0.1C175.5,139.7,176.1,139.5,176.7,139.3z" class="st5"/><path d="M176.3,126c0.2,0.2,1.2-0.4,2.5-0.9s2.5-0.6,2.5-1c0-0.2-0.3-0.3-0.8-0.4c-0.7-0.1-1.4,0-2.1,0.3 c-0.7,0.2-1.3,0.6-1.8,1.2C176.3,125.5,176.2,125.9,176.3,126z" class="st5"/><path d="M165.7,129.4c0.3,0.2,1.1-0.4,2.2-0.7s2.1-0.5,2.2-0.8c0-0.2-0.2-0.4-0.7-0.5c-0.7-0.1-1.3-0.1-1.9,0.2 c-0.6,0.2-1.2,0.6-1.6,1.1C165.6,129.1,165.5,129.4,165.7,129.4z" class="st5"/><path d="M191.1,129.5c0.1-0.1,4.5-3.1,6,1.9s-3.9,5.5-3.9,5.3S191.1,129.5,191.1,129.5z" class="st15"/><path d="M194.1,134.4c0,0,0.1,0,0.3,0.1c0.2,0,0.5,0,0.7-0.2c0.5-0.6,0.7-1.5,0.4-2.2c-0.1-0.4-0.3-0.8-0.6-1.2 c-0.2-0.3-0.5-0.5-0.9-0.5c-0.2,0-0.4,0.2-0.4,0.4c0,0.2,0,0.2,0,0.3s-0.1-0.1-0.1-0.3c0-0.1,0-0.3,0.1-0.4 c0.1-0.2,0.3-0.3,0.4-0.3c0.4,0,0.9,0.2,1.1,0.5c0.3,0.4,0.6,0.8,0.7,1.3c0.3,0.9,0.1,1.9-0.6,2.6c-0.2,0.2-0.6,0.2-0.8,0.1 C194.1,134.5,194.1,134.4,194.1,134.4z" class="st16"/><path d="M180.4,138.9c-0.2,0,0.1,1.2-0.6,2.3s-2,1.3-2,1.5s0.3,0.1,0.9,0c0.7-0.2,1.3-0.6,1.7-1.2 c0.4-0.5,0.6-1.2,0.4-1.9C180.7,139.2,180.5,138.9,180.4,138.9z" class="st5"/><path d="M152.1,126.3c0-0.3,0.1-0.6,0.4-0.9c0.5-0.4,1.1-0.7,1.8-0.9c1.6-0.5,3-1.4,4.2-2.5 c-0.6-0.1-1.1-0.3-1.6-0.5c-1.1-0.5-1.8-1.6-1.8-2.9c0-0.2,0.1-0.4,0.2-0.6c0.3-0.2,0.7,0,1,0.2c0.8,0.6,1.9,0.8,2.9,0.3 c0.7-0.2,1.3-0.6,1.7-1.1v-0.1c0.2-0.3,0.4-0.7,0.5-1l0,0c1-2,2.3-3.9,4-5.4c2.6-1.9,5.7-3.1,8.9-3.4c2.8-0.2,5.5,1.3,6.8,3.8 c1.2-1.6,3.2-2.4,5.2-2.1l0,0c2.1,0.1,3.9,1.8,5,3.6c0.1,0.1,0.1,0.2,0.2,0.3c1,0.9,2.2,1.5,3.5,1.8c0.2,0.1,0.5,0.1,0.6,0.3 c0.1,0.2,0,0.5-0.2,0.6c-0.4,0.4-0.9,0.8-1.4,1c0.3,0.4,0.7,0.8,1.1,1.2c0.3,0.3,0.7,0.7,0.6,1.1c-0.1,0.3-0.4,0.6-0.8,0.6 c-0.3,0-0.7,0-1-0.1l1.1,1.4c-0.7,0.3-1.4,0.5-2.1,0.5c0.1,2,0.9,5.5,0.8,6.9c-0.8,0.1-1.6,0.4-2.3,0.8c-0.8,0.6,0,2-1.2,1.9 c-0.6-0.1-2.2-2-2.6-2.5c-2.4-3.5-4.1-7.5-4.9-11.7c-1.1-0.6-2.2-1-3.5-1.2l0.1,0.1c-2.3-0.1-4.8-0.1-6.4,1.4 c-1.3,1.2-1.7,3-2.5,4.6c-1.2,2.9-3.7,5.1-6.6,6.1c0.4,2.3,1.4,5.9,1.9,8l-3-3.6l0,0c-0.2-0.2-0.4-0.4-0.6-0.6l-0.1-0.1l0,0 c-0.3-0.3-0.6-0.7-0.9-1l0,0c-0.4,0.6-1.3,0.8-1.9,0.3c-0.5-0.3-0.7-0.9-0.5-1.5c0.1-0.3,0.3-0.6,0.4-0.8 c-0.4,0.7-1.1,1.1-1.8,1.1c-0.8,0-1.4-0.5-1.6-1.2c-0.1-0.5,0.1-1,0.5-1.3c-0.9,0.3-1.9,0.4-2.8,0.2 C152.8,127.3,152.2,127,152.1,126.3z" class="st5"/><path d="M179.1,112.9c0.3,0.1,0.6,0.3,0.9,0.5c0.8,0.5,1.4,1.3,1.9,2.1c0.3,0.6,0.6,1.2,0.7,1.8 c0.2,0.7,0.4,1.4,0.6,2.2c0.2,0.8,0.4,1.6,0.7,2.4c0.1,0.4,0.3,0.8,0.6,1.2c0.2,0.4,0.5,0.8,0.9,1.1c0.4,0.2,0.8,0.2,1.1,0 c0.3-0.2,0.6-0.5,0.8-0.8c0.2-0.7,0.3-1.4,0.1-2.1l-0.1,0.1c0.4,0.5,0.8,0.9,1.4,1.3c0.5,0.3,1.1,0.5,1.7,0.4 c0.3-0.1,0.5-0.2,0.7-0.4c0.2-0.2,0.3-0.4,0.4-0.7c0.1-0.2,0.1-0.5,0-0.7c-0.1-0.2-0.2-0.4-0.4-0.5l-0.1,0.1 c0.6,0.4,1.2,0.6,1.9,0.7c0.2,0,0.4,0,0.5,0.1h0.2c0,0-0.1,0-0.2,0s-0.3,0-0.5-0.1c-0.7-0.1-1.3-0.4-1.9-0.8l-0.1,0.1 c0.3,0.2,0.5,0.7,0.4,1.1c-0.1,0.2-0.2,0.4-0.3,0.6c-0.2,0.2-0.4,0.3-0.6,0.3c-0.5,0.1-1.1,0-1.5-0.3c-0.5-0.3-0.9-0.8-1.3-1.2 l-0.2-0.2v0.3c0.1,0.7,0.1,1.4-0.1,2c-0.1,0.3-0.4,0.6-0.7,0.7c-0.3,0.2-0.7,0.2-1,0c-0.4-0.3-0.6-0.6-0.8-1 c-0.2-0.4-0.4-0.8-0.5-1.2c-0.3-0.8-0.5-1.6-0.7-2.4c-0.2-0.8-0.4-1.5-0.6-2.2c-0.2-0.6-0.5-1.2-0.8-1.8 c-0.4-0.9-1.1-1.6-1.9-2.1C179.8,113.1,179.5,113,179.1,112.9z" class="st10"/><path d="M158.6,126.8L158.6,126.8l0.3,0.1c0.1,0,0.2,0.1,0.4,0.1c0.2,0,0.3,0.1,0.5,0.1c1.1,0.2,2.3,0,3.3-0.4 c1.6-0.6,2.9-1.6,3.9-3c1.2-1.7,2-3.5,2.5-5.5c0.3-1,0.4-2.1,0.7-3.1c0.2-1,0.5-1.9,1-2.7c0.4-0.8,1-1.4,1.7-1.9 c0.3-0.2,0.7-0.4,1.1-0.5c0.3,0,0.7-0.1,1,0c0.6,0,1.2,0.2,1.8,0.5c0.4,0.2,0.8,0.5,1.1,0.8c0.3,0.3,0.5,0.6,0.7,1v-0.1 l-0.1-0.2c-0.2-0.3-0.3-0.5-0.5-0.7c-0.3-0.4-0.7-0.6-1.1-0.9c-0.6-0.3-1.2-0.5-1.9-0.5c-0.8,0-1.6,0.2-2.2,0.6 c-0.8,0.5-1.4,1.2-1.8,2c-0.5,0.9-0.8,1.8-1,2.8c-0.2,1-0.4,2-0.7,3.1c-0.4,2-1.3,3.8-2.4,5.5c-1,1.3-2.3,2.3-3.9,2.9 c-1,0.4-2.2,0.5-3.3,0.4C159.3,127.1,158.9,126.9,158.6,126.8z" class="st10"/><path d="M156.9,123.8c0.1,0,0.2,0.1,0.3,0.1c0.3,0.1,0.6,0.1,0.9,0.2c1,0.1,2,0,3-0.2c0.5-0.1,1.1-0.3,1.6-0.6 c0.4-0.2,0.8-0.4,1.2-0.7c0.2-0.2,0.5-0.4,0.7-0.6c0.1-0.2,0.2-0.2,0.2-0.2s-0.4,0.3-1,0.7c-0.4,0.2-0.8,0.5-1.2,0.7 c-0.5,0.2-1,0.4-1.5,0.6c-0.5,0.1-1.1,0.2-1.6,0.3c-0.4,0-0.9,0-1.3,0C157.4,123.9,156.9,123.7,156.9,123.8z" class="st10"/><path d="M149.6,183.5c0,0-1.1,19.9-1.2,21.8c0,4.9,3.5,9,8.4,9.7c4.7,0.6,8.9-2.5,11.2-6.7s2-19.7,2-19.7h-13.6 l-2.3-6.2L149.6,183.5z" class="st15"/><path d="M186.7,346.4l0.6,15c0,0-15,5.6-15.2,8.4l29.1-0.1l0.1-23.4L186.7,346.4z" class="st5"/><path d="M196.2,360c0.6,0.2,0.9,0.8,0.8,1.4c-0.2,0.6-0.7,1-1.3,0.8c-0.6-0.2-1-0.8-0.9-1.4 c0.2-0.6,0.9-0.9,1.5-0.7" class="st1"/><path d="M201.1,369.6l-0.1-2.4l-27.8,0.9c0,0-1.3,0.6-1.1,1.5L201.1,369.6z" class="st10"/><path d="M186.8,361.2c0,0.1,0.7,0.2,1.4,0.7s1.1,1,1.2,1s-0.1-0.9-0.9-1.4S186.8,361,186.8,361.2z" class="st0"/><path d="M183.7,362.5c0,0.1,0.6,0.4,1.1,1s0.6,1.2,0.8,1.2s0.2-0.8-0.4-1.5S183.7,362.3,183.7,362.5z" class="st0"/><path d="M182,366.1c0.1,0,0.3-0.7,0-1.5s-1-1.1-1.1-1s0.4,0.5,0.6,1.2S181.9,366.1,182,366.1z" class="st0"/><path d="M187,357.8c0.1,0.1,0.7-0.1,1.5,0s1.4,0.3,1.5,0.2s-0.5-0.6-1.5-0.7S187,357.6,187,357.8z" class="st0"/><path d="M221.2,344.5l1.6,18.1l-2.9,14.6c-0.2,1,0.5,2,1.5,2.2c0,0,0.1,0,0.1,0l0,0c0.6,0.1,1.2-0.1,1.6-0.6 c2.6-2.8,12.1-13.3,11.9-14.6c-0.2-1.5-0.4-19.2-0.4-19.2L221.2,344.5z" class="st5"/><path d="M221.5,379.4l13.4-16.4l0.1,0.8c0,0.7-0.2,1.3-0.6,1.9c-1.1,1.4-4.1,5.3-11.2,13.2 C222.7,379.3,222.1,379.5,221.5,379.4L221.5,379.4z" class="st10"/><g class="st11"><path d="M230.8,357.4c-0.4,0.4-0.5,1-0.2,1.5c0.4,0.5,1,0.5,1.5,0.2c0.5-0.4,0.6-1.1,0.2-1.6 C231.9,357.1,231.2,357.1,230.8,357.4" class="st0"/></g><path d="M225.1,371.2c-0.5-0.5-1-1-1.7-1.3c-0.7-0.2-1.4-0.3-2.1-0.3c0,0,0.2-0.2,0.6-0.3c0.6-0.1,1.1,0,1.6,0.2 c0.5,0.2,1,0.6,1.3,1C225.1,370.9,225.2,371.2,225.1,371.2z" class="st0"/><path d="M224,373.7c-0.1,0.1-0.7-0.5-1.6-0.7c-0.6-0.1-1.2-0.1-1.8-0.1c0.5-0.4,1.2-0.5,1.9-0.3 C223.5,372.9,224.1,373.7,224,373.7z" class="st0"/><path d="M227.3,368c-0.8-0.5-1.6-0.9-2.5-1.2c-0.9-0.2-1.8-0.4-2.7-0.5C224,365.8,226.1,366.5,227.3,368z" class="st0"/><path d="M227.3,362.4c0,0.1-1.1-0.2-2.4-0.2s-2.3,0.4-2.4,0.3C224,361.6,225.8,361.6,227.3,362.4z" class="st0"/><path d="M227,357.1c-1.6-0.5-3.4-0.4-4.8,0.5c0,0,0.1-0.3,0.6-0.5c0.5-0.3,1.1-0.6,1.8-0.6c0.6-0.1,1.3,0,1.9,0.2 C226.8,356.9,227,357.1,227,357.1z" class="st0"/><path d="M224.5,355.8c-0.1-0.2-0.1-0.5-0.1-0.7c0-0.6,0.2-1.3,0.4-1.8c0.2-0.4,0.5-0.8,0.8-1.1 c0.3-0.1,0.6-0.1,0.9,0.1c0.2,0.2,0.3,0.5,0.3,0.8c0,1.3-0.9,2.3-2.1,2.6c-1.2,0.2-2.4-0.4-3.1-1.4c-0.2-0.3-0.2-0.6-0.1-0.9 c0.1-0.3,0.4-0.5,0.7-0.4c0.5,0.1,0.9,0.3,1.2,0.5c0.5,0.4,1,0.8,1.3,1.3c0.2,0.2,0.3,0.4,0.3,0.6c-0.5-0.7-1.1-1.2-1.8-1.7 c-0.3-0.2-0.7-0.4-1.1-0.5c-0.2,0-0.3,0.1-0.4,0.2c0,0.2,0,0.4,0.1,0.6c0.6,0.9,1.6,1.4,2.7,1.2c1-0.2,1.8-1.1,1.9-2.2 c0-0.2-0.1-0.4-0.2-0.6c-0.1-0.1-0.3-0.1-0.5-0.1c-0.3,0.2-0.6,0.5-0.7,0.9C224.7,354.2,224.5,355,224.5,355.8z" class="st0"/><path d="M173.1,224.3c-1.4,6.2-1.9,12.6-1.4,18.9c0.3,4,13.9,115.3,13.9,115.3H204l-5.1-104.6l1.5,0.3 c0,0,10,44.6,10.8,51.9c0.7,6.5,9.2,53.7,9.2,53.7l16.8,0.2l-5.4-62.4l-6.2-59.9l-2.3-17.4L173.1,224.3z" class="st5"/><path d="M199.5,246.8c0,0,0,0.1-0.1,0.1c-0.1,0.1-0.3,0.2-0.4,0.2c-0.6,0.1-1.3,0-1.7-0.4 c-0.7-0.6-1.1-1.5-1.2-2.4c-0.1-1-0.1-2.1-0.2-3.2c-0.1-2.3-0.2-4.3-0.3-5.8c-0.1-0.8-0.1-1.6,0-2.4c0.1,0.8,0.2,1.6,0.2,2.4 c0.1,1.5,0.2,3.5,0.4,5.8c0.1,1.1,0.1,2.2,0.2,3.2c0,0.8,0.4,1.6,1,2.2c0.4,0.4,1,0.5,1.6,0.5 C199.1,247,199.3,246.9,199.5,246.8z" class="st10"/><path d="M219.9,204l1.8-33.9l-2.9-2.3l-1.6-14l-20.2-3.5c0,0,1,4.6-4.2,7.6c-6.8,3.8-13.1-2.1-13.1-2.1 s-13.6,4.5-16.2,7.5c-1.7,2-3,4.3-4,6.8l-7,20.7l15.3,2l3.7,47.7l53.9-11.5l0.2-5.1L219.9,204z" class="st12"/><path d="M167.4,172.6c0.1,0,0.5,5.3,0.8,11.9s0.4,11.9,0.2,11.9s-0.5-5.3-0.8-11.9S167.3,172.7,167.4,172.6z" class="st5"/><rect width="7.6" height="305.9" x="151.5" y="170.2" class="st10"/><rect width="7" height="305.9" x="200.4" y="170.2" class="st10"/><rect width="49.6" height="6" x="157.6" y="183.9" class="st10"/><rect width="49.6" height="6" x="157.5" y="203.1" class="st10"/><rect width="49.6" height="6" x="157.5" y="226.7" class="st10"/><rect width="49.6" height="6" x="157.5" y="250.2" class="st10"/><rect width="49.6" height="6" x="157.5" y="273.8" class="st10"/><rect width="49.6" height="6" x="157.5" y="297.4" class="st10"/><rect width="49.6" height="6" x="157.5" y="321" class="st10"/><rect width="49.6" height="6" x="157.5" y="344.6" class="st10"/><rect width="49.6" height="6" x="157.5" y="368.1" class="st10"/><rect width="49.6" height="6" x="157.5" y="391.7" class="st10"/><rect width="49.6" height="6" x="157.5" y="415.3" class="st10"/><rect width="49.6" height="6" x="157.5" y="438" class="st10"/><path d="M171.3,329.5l-0.3,3.2c0,1.4-0.4,2.8-1,4c-1.7,3.4-2.3,7.3-1.8,11.1c1,8,7.1,14.5,14.7,15.6 c10.5,1.5,19.6-6.9,19.9-17.7c0.1-2.5-0.3-5.1-1.2-7.5c-0.5-1.2-0.7-2.5-0.7-3.7l0.4-4.1l51.1,1.6l1.4-47.2l-3.2-0.3 c-1.3,0-2.5,0.2-3.7,0.7c-2.4,0.9-4.9,1.3-7.4,1.3c-10.9-0.3-19.2-9.5-17.7-19.9c1.1-7.6,7.6-13.7,15.6-14.7 c3.8-0.5,7.7,0.1,11.1,1.8c1.2,0.6,2.6,1,4,1l2.4,0.2l1.5-47.9l-123.9-3.8c-5.3-0.2-9.8,4-10,9.4c0,0,0,0,0,0l-3.5,114.7v0.7 L171.3,329.5z" class="st1"/><path d="M171.3,329.5h-0.9l-2.6-0.1l-10.3-0.3l-38.6-1.1h-0.1v-0.1c0.8-27.5,1.9-64.6,3.2-108 c0.1-2.7,0.1-5.4,0.3-8.2c0.3-2.9,1.9-5.5,4.4-7.1c1.2-0.8,2.6-1.3,4-1.6c1.4-0.1,2.9-0.1,4.3,0l8.6,0.3l35.9,1.1l76.8,2.3h0.3 v0.3c-0.1,2-0.1,4.1-0.2,6.2c-0.4,14.2-0.9,28.1-1.3,41.7v0.3h-0.3c-0.9-0.1-1.9-0.2-2.8-0.3c-1-0.1-1.9-0.3-2.8-0.6 c-0.9-0.4-1.7-0.8-2.6-1.1c-0.9-0.3-1.8-0.6-2.6-0.8c-3.6-0.8-7.4-0.5-10.8,0.8c-3.4,1.3-6.3,3.6-8.4,6.6c-2,3-3,6.5-2.9,10.1 c0.1,1.8,0.4,3.5,1.1,5.1c0.3,0.8,0.7,1.5,1.1,2.3c0.4,0.7,0.9,1.5,1.5,2.1c2.2,2.7,5.1,4.7,8.4,5.8c3.2,1.1,6.7,1.3,10,0.6 c0.8-0.2,1.6-0.4,2.4-0.7c0.8-0.3,1.6-0.6,2.5-0.7c0.8-0.1,1.7-0.2,2.6-0.1l2.5,0.2h0.2v0.2c-0.5,16.6-1,32.3-1.4,47.2v0.2h-0.2 l-51.1-1.6l0.2-0.2c-0.1,0.8-0.1,1.7-0.2,2.5c-0.1,0.8-0.1,1.6-0.1,2.5c0.1,0.8,0.2,1.6,0.5,2.4c0.3,0.8,0.6,1.5,0.8,2.3 c0.4,1.6,0.6,3.2,0.6,4.8c0,1.6-0.2,3.1-0.5,4.6c-1.3,5.8-5.3,10.5-10.7,12.9c-4.7,1.9-10.1,1.7-14.5-0.8 c-3.7-2.1-6.6-5.4-8.1-9.4c-1.7-4.4-1.7-9.3-0.1-13.8c0.4-1.1,1-2.1,1.3-3c0.3-0.8,0.5-1.7,0.5-2.5c0.1-0.8,0.1-1.4,0.2-1.9 L171.3,329.5c0,0,0,0.5-0.1,1.5c0,0.5-0.1,1.1-0.2,1.9c-0.1,0.9-0.2,1.7-0.5,2.6c-0.3,1-0.9,1.9-1.3,3 c-1.6,4.4-1.6,9.3,0.1,13.6c1.5,3.9,4.3,7.2,8,9.2c4.4,2.4,9.7,2.7,14.3,0.7c5.3-2.3,9.2-7,10.5-12.7c0.3-1.5,0.5-3,0.5-4.6 c0-1.6-0.2-3.1-0.6-4.7c-0.2-0.8-0.5-1.5-0.8-2.3c-0.3-0.8-0.4-1.6-0.5-2.5c0-0.8,0-1.7,0.1-2.5c0.1-0.8,0.1-1.7,0.2-2.5v-0.2 h0.2l51.1,1.5l-0.2,0.2c0.4-14.8,0.9-30.5,1.4-47.2l0.2,0.2l-2.5-0.2c-0.8-0.1-1.6-0.1-2.5,0c-0.8,0.1-1.6,0.4-2.4,0.7 c-0.8,0.3-1.6,0.5-2.5,0.7c-3.4,0.7-7,0.5-10.3-0.6c-3.4-1.1-6.4-3.2-8.6-6c-0.6-0.7-1.1-1.4-1.5-2.2c-0.4-0.8-0.8-1.6-1.1-2.4 c-0.7-1.7-1-3.5-1.1-5.3c-0.2-3.7,0.9-7.3,3-10.4c2.1-3.1,5.1-5.4,8.6-6.8c4.5-1.7,9.4-1.7,13.8,0c0.9,0.3,1.8,0.8,2.6,1.1 c1.7,0.7,3.6,0.6,5.5,0.9l-0.3,0.2c0.4-13.6,0.8-27.6,1.3-41.7c0.1-2.1,0.1-4.2,0.2-6.2l0.3,0.3l-76.8-2.3l-35.8-1.1l-8.6-0.3 c-1.4-0.1-2.8-0.1-4.2,0c-1.4,0.2-2.7,0.7-3.8,1.5c-2.3,1.5-3.8,4-4.2,6.7c-0.2,2.7-0.2,5.5-0.3,8.2c-1.3,43.5-2.5,80.5-3.4,108 l-0.1-0.1l38.7,1.3l10.2,0.4l2.6,0.1L171.3,329.5z" class="st5"/><g class="st13"><path d="M177.7,346.2c-3.1-0.3-6.6-0.9-9.8-1.2c0.1,7,3.4,13.5,9.6,16.7c-2.3-4.3,0.5-6,0.5-8.6S177.7,346.2,177.7,346.2z"/></g><path d="M195.7,196.8l22.5-7.2l-8.5-20.6l16.4,0.3c0,0,11.9,23.1,7.4,29.9c-4.1,6.2-34.2,6.5-34.2,6.5L195.7,196.8 z" class="st15"/><path d="M195.7,196.5c0,0-14,4.1-14.4,4.3s-5.9,4.2-6,5.6s1.8,7.8,1.8,7.8s1.9,0.3,2-3.1l0.1-3.4l2.3-2.1 c0,0-0.9,3.9-0.6,5.1s2.1,3.9,3.1,3.7c0.6-0.1,1.2-0.5,1.6-0.9c0,0,0.9,2.5,3.6,1c1,0.4,2.1,0.4,3.1,0c1.1-0.8,2-1.7,2.6-2.9 c0.1-0.6-0.4-1.2-1.1-1.3c-0.1,0-0.2,0-0.3,0c-1,0.1-1.9,0.5-2.7,1.1l-0.1-1.4c1-1.2,2.2-2.3,3.5-3.1c1.1-0.7,5.7-0.8,7.1-2.2 c1.2-1.2-1.1-3.9-2.6-4.8l0,0c-0.2-0.1-0.5-0.2-0.7-0.3L195.7,196.5z" class="st15"/><path d="M187.7,207.8c-0.1,0.1-0.1,0.2-0.1,0.2c-0.1,0.2-0.2,0.5-0.3,0.7c-0.3,0.9-0.3,1.8-0.1,2.6 c0.2,0.9,0.6,1.7,1.2,2.3c0.2,0.2,0.4,0.4,0.6,0.5c0.1,0.1,0.2,0.1,0.2,0.2c0,0-0.3-0.3-0.7-0.8c-0.6-0.7-0.9-1.5-1.1-2.3 c-0.2-0.8-0.2-1.7,0.1-2.6C187.6,208.2,187.8,207.8,187.7,207.8z" class="st16"/><path d="M185.1,205.8c-0.1,0.1-0.1,0.2-0.2,0.3c-0.1,0.1-0.1,0.2-0.2,0.3c-0.1,0.1-0.1,0.3-0.2,0.5 c-0.1,0.4-0.3,0.8-0.3,1.2c-0.1,0.5-0.1,1-0.1,1.6c0,0.5,0.1,1,0.2,1.5c0.1,0.4,0.2,0.8,0.4,1.2c0.1,0.2,0.1,0.3,0.2,0.4 c0.1,0.1,0.1,0.2,0.2,0.3c0.1,0.2,0.2,0.3,0.2,0.3s-0.2-0.4-0.5-1.1c-0.2-0.4-0.3-0.8-0.4-1.2c-0.1-0.5-0.2-1-0.2-1.5 c0-0.5,0-1.1,0-1.6c0.1-0.4,0.2-0.8,0.3-1.1C184.9,206.2,185.1,205.8,185.1,205.8z" class="st16"/><path d="M182.3,203.1c0,0-0.1,0.1-0.3,0.3c-0.2,0.3-0.4,0.6-0.4,0.9c-0.1,0.3-0.1,0.7,0,1c0,0.1,0.1,0.3,0.2,0.4 c-0.1-0.5-0.1-0.9,0-1.4C181.8,203.9,182,203.5,182.3,203.1z" class="st16"/><path d="M227.1,193.6c-0.1,0-0.3-0.6-1-1.4c-0.9-1.1-2-1.9-3.2-2.4c-1.3-0.5-2.7-0.6-4-0.3c-1,0.2-1.6,0.5-1.7,0.4 s0.1-0.1,0.4-0.2c0.4-0.2,0.8-0.3,1.2-0.4c1.4-0.4,2.8-0.3,4.2,0.2c1.3,0.5,2.5,1.4,3.3,2.6c0.3,0.3,0.5,0.7,0.6,1.1 C227.1,193.4,227.1,193.6,227.1,193.6z" class="st16"/><path d="M207.4,164c-0.2-8.7,9.3-13.9,14.4-6.8l0.1,0.1c4.8,6.8,10.6,23,10.6,23l-19.3,3l-4.6-13 C207.9,168.3,207.5,166.1,207.4,164z" class="st12"/><path d="M215.6,153.8c-0.8,0.3-1.5,0.6-2.2,0.9c-3.5,1.8-5.8,5.3-6,9.2c-0.1,1.5,0.1,2.4,0.1,2.4 c-0.1-0.2-0.1-0.4-0.1-0.6c-0.1-0.6-0.1-1.2-0.1-1.8c0.1-4,2.5-7.6,6.1-9.4c0.5-0.2,1.1-0.4,1.7-0.6 C215.2,153.9,215.4,153.9,215.6,153.8z" class="st5"/><path d="M159.5,178.6c-0.4-0.3-0.8-0.6-1.3-0.7c0.6,0,1.1-0.5,1.1-1.1c0-0.6-0.4-1.1-0.9-1.4 c-0.5-0.3-1.1-0.5-1.7-0.5c-0.8-0.1-1.5-0.2-2.2-0.4l-4.2-0.2c-0.7,0.3-0.9,2.5,0.1,2.9c-0.5,0.2-0.8,0.1-1.2,0.5 c-0.4,0.4-0.5,1-0.4,1.6c0.1,0.6,0.7,0.9,1.2,0.9c-1,0.6-1.3,1.9-0.7,2.9c0.2,0.3,0.4,0.5,0.6,0.6c0.2,0.1,0.4,0.3,0.7,0.3 c0.1,0,0.2,0,0.3,0c0,0,0.1,0,0.1,0c0.2-0.1,0.4-0.2,0.6-0.3c0.1,0,0.1-0.1,0.2-0.1c0.3-0.1,0.7-0.2,1.1-0.2c0.2,0,0.3,0,0.5,0 c0.1,0,0.2-0.1,0.3-0.1c0.7-0.2,1.4-0.3,2.1-0.2c0.8,0.1,1.6,0,2.3-0.4c0.7-0.4,1-1.3,0.6-2c0.5,0.1,1-0.3,1.1-0.8 C160.1,179.5,159.9,179,159.5,178.6z" class="st15"/><path d="M150.2,186.2c-0.1,0.5,0.1,1,0.4,1.3c0.4,0.4,0.2,0.7,0.8,0.7c0.1-0.7,0.4-1.2,0.5-1.8 c0-0.1,0.8-0.4,0.9-0.5c0.2-0.3,1-0.3,1.3-0.4c0.6-0.3,0.9-1,0.7-1.6c-0.3-0.6-0.9-1-1.6-1.1c-0.7,0-1.3,0.2-1.8,0.7 C150.8,184.2,150.3,185.1,150.2,186.2z" class="st15"/><path d="M149.9,180.3c1.5-0.1,3-0.1,4.5,0c1.5,0,3,0.2,4.5,0.4c-1.5,0.2-3,0.2-4.5,0 C152.8,180.8,151.3,180.6,149.9,180.3z" class="st16"/><path d="M150.3,177.2c1.3-0.2,2.7-0.3,4.1-0.1c1.4,0,2.7,0.3,4,0.8c-1.3,0-2.7-0.1-4-0.3 C153,177.6,151.6,177.4,150.3,177.2z" class="st16"/><path d="M150.7,174.2c1.1-0.2,2.3-0.2,3.4,0.1c1.1,0.1,2.2,0.3,3.3,0.6c-1.1,0.1-2.2,0-3.4-0.2 C152.9,174.7,151.8,174.5,150.7,174.2z" class="st16"/><path d="M150.6,185.2c-0.1,0-0.1-0.3,0.1-0.8c0.3-0.6,0.8-1,1.4-1.2c0.6-0.2,1.2-0.3,1.9-0.3 c0.6,0.1,0.7,0.5,0.6,0.5s-0.2-0.2-0.6-0.1c-0.6,0.1-1.1,0.2-1.7,0.4c-0.5,0.2-1,0.5-1.3,1C150.7,184.9,150.6,185.2,150.6,185.2 z" class="st16"/></g><g id="freepik--character-1--inject-124"><path d="M94.6,245.9c0.2-1.2-0.3-2.4-1.3-3.1c-0.1-0.2-0.2-0.4-0.3-0.6c-0.7-2.6-1.8-5.1-3.3-7.3 c1.4-0.4,1.8-2.5,1.1-3.8c-0.9-1.2-2.1-2.2-3.5-2.8c1.1,0.2,2-1.3,1.6-2.4c-0.5-1-1.4-1.9-2.4-2.2c-1.5-0.7-3.1-1.3-4.7-1.6 c-0.7-1.9-3.4-3.9-5.2-4.5c-7.2-2.7-12.3-3.1-20.3,3.4c-0.9-1.3-2.2-2.1-3.8-2.4c-2-0.3-4,0.4-5.6,1.7c-2.5-0.4-4.9,0.8-6.1,3.1 c-3.8-1.5-8.1,0.4-9.6,4.2c-0.8,2.2-0.6,4.6,0.6,6.6c-1.6,1.5-1.6,4.1-0.1,5.7c0.1,0.1,0.1,0.1,0.2,0.2 c-0.7,1.3-1.2,2.7-1.6,4.1c-0.3,0.9-0.3,2,0,2.9c0.4,0.9,1.4,1.3,2.2,0.9c0.1,0,0.1-0.1,0.2-0.1c-0.5,0.8-0.4,1.8,0.1,2.6 c-0.9,0.1-1.1,1.6-0.4,2.2c0.8,0.5,1.7,0.7,2.7,0.5c0.9-0.2,1.9-0.1,2.7,0.2c0,0.2-0.1,0.5-0.2,0.6c-1.5,1.4-1.7,3.7-0.4,5.3 l0.3,0.4c0.8,0.7,1.8,1.3,2.8,1.6c2.2,0.9,3.4,0.6,5.8,0.7c-0.5,1.6,3.6,4.5,7.6,0.9c2.7,0.5,5.2,0.8,7.6,1.1 c0.6,2.3,2.4,4,4.7,4.6c1.4,0.2,2.8-0.2,4.1,0c1.1,0.2,2.2,0.5,3.3,0.9c4.4,1,9-0.8,11.5-4.6c2.5,1.4,5.7,0.6,7.1-1.9 c1.4-2.5,0.6-5.7-1.9-7.1c2.2-0.1,3.9-2,3.8-4.2c-0.1-1.4-0.8-2.6-2-3.3C93.3,248.2,94.3,247.2,94.6,245.9z" class="st5"/><path d="M87.1,286.4c0,0,12.2,11,12.2,10.2s23.3-11.1,23.3-11.1v15.2c0,0-23.5,12.7-24.4,12s-13.1-15.2-13.1-15.2 L87.1,286.4z" class="st17"/><path d="M54.1,230.2l12.4-5.5c4.9-1.2,9.1,4.4,10.1,9.4c1.1,5.5,2.3,12.3,2.2,16.5c0,4.9-2.9,9.4-7.4,11.5l0.7,5.1 c-0.3,4-4.4,4.5-4.4,4.5c-11.4,1.4-12.8-5-12.8-5L52,235C51.7,233.5,52.6,230.5,54.1,230.2z" class="st15"/><path d="M69.7,247.6c0.6-0.3,1.2-0.5,1.8-0.6c0.3-0.1,0.6-0.2,0.6-0.4c0-0.3-0.1-0.6-0.3-0.8 c-0.4-0.7-0.8-1.4-1.2-2.1c-1.1-1.8-2-3.6-2.8-5.6c1.2,1.7,2.3,3.5,3.2,5.3l1.2,2.1c0.2,0.3,0.3,0.7,0.3,1.1 c-0.1,0.2-0.2,0.4-0.4,0.5c-0.2,0.1-0.3,0.1-0.5,0.1C71,247.5,70.4,247.6,69.7,247.6z" class="st5"/><path d="M71.5,262.1c-3.7-0.1-7.3-0.9-10.6-2.4c0,0,2.5,5.1,10.9,4.9L71.5,262.1z" class="st16"/><path d="M63.6,235.2c-0.1,0.3-1.2,0.4-2.6,0.7s-2.4,0.9-2.6,0.6s0-0.4,0.5-0.8c0.5-0.5,1.2-0.8,1.8-1 c0.7-0.2,1.4-0.2,2.1-0.1C63.3,234.8,63.6,235,63.6,235.2z" class="st5"/><path d="M74.7,233.9c-0.2,0.3-1,0.1-2,0.2s-1.7,0.4-2,0.2s0-0.4,0.3-0.7c0.4-0.4,1-0.6,1.5-0.6 c0.6-0.1,1.1,0,1.6,0.3C74.6,233.5,74.7,233.8,74.7,233.9z" class="st5"/><path d="M80.8,237.7c-0.2-1.3-0.8-2.6-1.8-3.5c-0.5-0.5-1.2-0.8-1.7-1.4c-1.1-1.1-1.1-2.9-1.6-4.3 c-0.7-1.9-2.4-3.4-4.3-3.9c-1.6-0.4-3.4-0.2-5-0.8c-1.2-0.5-2.1-1.4-3.2-1.8c-2.3-0.8-4.7,0.6-6.7,2c-0.2,1.7,0.9,3,2.1,4.3 c1.2,1.3,2.8,2,4.5,1.9c1.3,0,2.8-0.5,3.8,0.4s0.9,2.6,1.8,3.7c1.3,1.5,3.8,0.6,5.6,1.5c1.4,0.6,2.1,2.2,2.9,3.5 s2.1,2.6,3.6,2.4C80.9,240.4,80.9,239.1,80.8,237.7z" class="st5"/><path d="M60,226.8c-3.8,0.3-7.6,1.4-11,3.1c-1.1,0.4-2,1.2-2.6,2.2c-0.4,1-0.5,2-0.3,3c0.3,3.1,2,6.9,3.5,9.6l4.2,2 c3-1,1-6.1,0.7-8.7c2.1-1.2,3.2-3.4,3.1-5.8C59.1,230.9,60,228.9,60,226.8z" class="st5"/><path d="M53.6,245.5c-0.3-1.8-2.5-1.9-4-0.8c-0.8,0.6-1.3,1.7-1,3.6c0.8,5.1,5.7,3.2,5.7,3.1 S53.9,247.6,53.6,245.5z" class="st15"/><path d="M52.4,249.6c0,0-0.1,0.1-0.2,0.2c-0.2,0.1-0.4,0.2-0.7,0.1c-0.7-0.3-1.2-1-1.3-1.8c-0.1-0.4-0.1-0.9,0-1.3 c0-0.3,0.3-0.6,0.6-0.8c0.2-0.1,0.4,0,0.6,0.2c0.1,0.1,0.1,0.2,0.1,0.2s0.1-0.1,0-0.3c0-0.1-0.1-0.2-0.2-0.3 c-0.2-0.1-0.3-0.1-0.5,0c-0.4,0.1-0.7,0.5-0.8,0.9c-0.1,0.5-0.2,1-0.1,1.5c0.1,0.9,0.7,1.7,1.6,2c0.3,0,0.6-0.1,0.8-0.3 C52.4,249.8,52.4,249.6,52.4,249.6z" class="st16"/><path d="M65.2,243.2c0.1,0.6-0.3,1.1-0.9,1.2c-0.6,0.1-1.1-0.2-1.3-0.8c0,0,0,0,0,0c-0.1-0.6,0.3-1.1,0.9-1.3 C64.5,242.2,65.1,242.6,65.2,243.2C65.2,243.2,65.2,243.2,65.2,243.2z" class="st5"/><path d="M75.4,242.1c0.1,0.6-0.3,1.1-0.9,1.2c-0.6,0.1-1.1-0.2-1.3-0.8c0,0,0,0,0,0c-0.1-0.6,0.3-1.1,0.9-1.2 C74.7,241.1,75.2,241.5,75.4,242.1C75.4,242,75.4,242.1,75.4,242.1z" class="st5"/><path d="M74.9,237.8c-0.1,0.2-1-0.3-2.1-0.1s-1.7,1-1.9,0.9s0-0.4,0.3-0.7c0.4-0.5,0.9-0.8,1.4-0.9 c0.6-0.1,1.2,0,1.7,0.3C74.8,237.5,75,237.7,74.9,237.8z" class="st5"/><path d="M64.7,239.7c-0.1,0.2-1.1-0.4-2.4-0.3s-2.2,0.9-2.3,0.8s0-0.4,0.4-0.8c1-1,2.6-1.1,3.8-0.4 C64.5,239.3,64.7,239.6,64.7,239.7z" class="st5"/><path d="M64.9,250.6c0.1-0.8,0.7-1.4,1.5-1.4c0.6,0,1.1,0.3,1.4,0.8c0.3,0.5,0.4,1.1,0.3,1.6v0.1 c-0.5,0.6-1.3,0.9-2,0.7C65.3,252.1,64.8,251.4,64.9,250.6z" class="st16"/><path d="M68.9,251.6c0-0.2-1.3,0-2.3-0.9s-1.2-2.3-1.3-2.2s-0.2,0.3-0.1,0.9c0.1,0.7,0.5,1.4,1,1.9 c0.5,0.5,1.2,0.7,1.9,0.6C68.7,251.8,69,251.7,68.9,251.6z" class="st5"/><path d="M92.5,451.9l-1.4,14.7c0,0,16,6,16.2,9L77,475.6v-2.2l1.3-7.6l1.9-14.7L92.5,451.9z" class="st10"/><path d="M82,464.3c-0.6,0.2-1,0.8-0.9,1.5c0.2,0.6,0.8,1,1.4,0.9c0.7-0.2,1.1-0.9,0.9-1.5c-0.2-0.6-0.9-1-1.6-0.8" class="st1"/><path d="M77,475.6v-2.2l29.1,0.6c0,0,1.4,0.6,1.2,1.6L77,475.6z" class="st5"/><path d="M91.6,466.4c0,0.1-0.8,0.2-1.5,0.7s-1.2,1.1-1.3,1.1s0.1-0.9,1-1.5S91.7,466.3,91.6,466.4z" class="st5"/><path d="M94.9,467.8c0,0.1-0.6,0.4-1.1,1s-0.7,1.3-0.8,1.3s-0.2-0.9,0.4-1.6S94.9,467.6,94.9,467.8z" class="st5"/><path d="M96.7,471.7c-0.1,0-0.3-0.7,0-1.5s1.1-1.2,1.2-1s-0.4,0.6-0.7,1.2S96.9,471.7,96.7,471.7z" class="st5"/><path d="M92.7,462.9c-0.1,0.1-0.8-0.1-1.6,0s-1.5,0.3-1.6,0.2s0.6-0.7,1.6-0.7S92.8,462.8,92.7,462.9z" class="st5"/><path d="M55.3,452.3L54,466.7c0,0,15.8,5.8,16,8.7l-29.8,0.3v-2.2l1.2-7.5l1.8-14.5L55.3,452.3z" class="st10"/><path d="M45,464.5c-0.6,0.2-1,0.8-0.9,1.4c0.2,0.6,0.8,1,1.4,0.9c0.6-0.2,1-0.9,0.9-1.5c-0.2-0.6-0.9-0.9-1.6-0.7" class="st1"/><path d="M40.2,475.7v-2.2l28.6,0.4c0,0,1.4,0.6,1.2,1.5L40.2,475.7z" class="st5"/><path d="M54.5,466.6c0,0.1-0.8,0.2-1.5,0.7s-1.1,1.1-1.2,1.1s0.1-0.9,1-1.5S54.5,466.5,54.5,466.6z" class="st5"/><path d="M57.7,467.9c0,0.1-0.6,0.4-1.1,1s-0.6,1.3-0.8,1.3s-0.2-0.9,0.4-1.6S57.7,467.8,57.7,467.9z" class="st5"/><path d="M59.5,471.7c-0.1,0-0.3-0.7,0-1.5s1.1-1.1,1.1-1s-0.4,0.6-0.7,1.2S59.6,471.7,59.5,471.7z" class="st5"/><path d="M55.5,463.1c-0.1,0.1-0.8-0.1-1.6,0s-1.5,0.3-1.6,0.2s0.5-0.7,1.5-0.7S55.6,463,55.5,463.1z" class="st5"/><path d="M93.2,323.9c0,0,7.2,20.8,7.4,36.3s0.5,40.1-2.7,67.3s-4.7,38.1-4.7,38.1H76.8c-1-10.7-1.5-21.5-1.5-32.2 c0.2-15.2,1.4-20.1,0-36.8s-3.8-26.8-6.2-31.9c-4.2-5.5-6.8-12.1-7.2-19c-0.2-7,0.9-13.9,3.4-20.5L93.2,323.9z" class="st5"/><path d="M78.7,353.1c-0.3,0.8-5.1,35-8.7,50s-7.5,19-8.2,31.3c-0.8,14.1-4.7,31.2-4.7,31.2H39.7 c0,0,2.5-26,4.9-46.4s6-45.5,5.4-53s-1.9-16.8,0-27.4s6-13.3,6-13.3l14.8-0.7L78.7,353.1z" class="st5"/><path d="M62.3,333.5c-0.1,0.2-0.2,0.3-0.3,0.5c-0.2,0.5-0.4,1.1-0.6,1.6c-0.5,2-0.7,4.1-0.6,6.2 c0.1,3.1,0.6,6.2,1.4,9.2c0.5,1.8,1.1,3.5,1.9,5.2c0.9,1.7,2,3.4,3.1,5c2.1,3.1,3.6,6.6,4.4,10.3c0.7,3,1.3,6,1.7,9.1 c0.3,2.6,0.5,4.8,0.7,6.2c0.1,0.7,0.1,1.3,0.2,1.7c0,0.2,0,0.4,0.1,0.6c0-0.2,0-0.4,0-0.6c0-0.4-0.1-1-0.1-1.7 c-0.1-1.5-0.2-3.6-0.5-6.2c-0.3-3.1-0.9-6.1-1.6-9.2c-0.4-1.8-1-3.5-1.7-5.2c-0.4-0.9-0.8-1.8-1.2-2.6c-0.5-0.9-1-1.7-1.6-2.6 c-1.2-1.6-2.2-3.2-3.1-4.9c-0.8-1.6-1.4-3.3-1.9-5.1c-0.8-3-1.3-6-1.5-9.1c-0.1-2.1,0-4.2,0.5-6.2c0.1-0.5,0.3-1.1,0.5-1.6 C62.1,333.9,62.2,333.7,62.3,333.5z" class="st10"/><path d="M55.3,267.3l13.5-1.1c0,0,15.1,12,18.2,27.3s6.6,30.6,6.6,30.6l-27.5,3.4c-2.9,0.4-5.8,0.3-8.6-0.1 l-2.9-0.4l2.4-9.8c0,0-4.4-18.4-6.1-25.3C47.2,276.9,55.3,267.3,55.3,267.3z" class="st12"/><g class="st13"><path d="M81.3,296.5l11.2,21.9c-2.7-0.1-5.2-1.3-6.9-3.4c-1.9-2.2-3.4-4.7-4.6-7.3c-3.3-6.5-6.5-13.3-7.2-20.6 C76.5,290,79,293.2,81.3,296.5z"/></g><path d="M124.4,287.3c-0.4,0.1-0.9,0.3-1.3,0.5c0.2-0.9,0.5-1.7,1-2.4c0.4-0.6,0.7-1.3,0.9-2 c0.1-1.4-0.9-2.4-1.8-0.8c-0.5,0.7-1,1.4-1.7,2.1c-1.9,1.9-8,8.5-8,8.5l4.7,6.2c3-0.2,6-0.6,9-1.4c2.5-0.8,3.5-1.7,3.5-2.3 s-1-0.9-1-0.9c0.3-0.5,0.5-1.1,0.5-1.7c-0.1-0.8-1.2-1.2-1.2-1.2c0.2-0.5,0.4-1,0.4-1.5c0-0.8-1-1.8-1-1.8 c0.7-0.2,1.1-0.9,0.9-1.7c0-0.1-0.1-0.3-0.2-0.4c-0.3-0.4-1.1-0.6-2.5-0.1C125.9,286.7,124.4,287.3,124.4,287.3z" class="st15"/><path d="M114.4,291.1c-0.2,0.2-16.2,9.4-16.2,9.4s-7.5-14.3-10-19.4s-5.3-12-9.1-14.2s-10.2-0.8-10.2-0.8l2.6,18.7 l6.2,13.5c0,0,7.4,14.8,11.5,18.3c3.7,3.1,9.4,1.9,12.1,0.4s19.8-16.3,19.8-16.3L114.4,291.1z" class="st12"/><path d="M71.4,285.1c0,0.2,0.1,0.3,0.2,0.5c0.1,0.3,0.3,0.7,0.5,1.2c0.5,1.1,1.2,2.6,2,4.5c1.8,3.8,4.3,9,7.4,14.7 c1.3,2.7,2.9,5.3,4.7,7.8c0.8,1.1,1.8,2,2.9,2.8c0.9,0.7,2,1.3,3.1,1.6c1.6,0.5,3.3,0.6,5,0.3c0.4-0.1,0.9-0.2,1.3-0.4 c0.2,0,0.3-0.1,0.4-0.2c0,0-0.6,0.2-1.8,0.4c-1.6,0.3-3.3,0.1-4.9-0.4c-1.1-0.4-2.1-0.9-3-1.6c-1-0.8-1.9-1.8-2.7-2.8 c-1.7-2.5-3.3-5.1-4.6-7.8c-3-5.7-5.6-10.9-7.5-14.6c-0.9-1.9-1.6-3.4-2.2-4.5c-0.2-0.5-0.4-0.9-0.6-1.2S71.4,285.1,71.4,285.1z" class="st5"/><path d="M50.5,285.5c0,0.4,0,0.7,0.1,1.1c0.1,0.7,0.2,1.7,0.4,2.9c0.4,2.4,1,5.8,1.7,9.5s1.4,7,2,9.5 c0.3,1.2,0.5,2.2,0.7,2.8c0.1,0.3,0.2,0.7,0.3,1c0-0.4-0.1-0.7-0.2-1.1c-0.2-0.7-0.3-1.7-0.6-2.9c-0.5-2.4-1.2-5.8-1.9-9.5 s-1.3-7-1.8-9.5c-0.2-1.2-0.4-2.1-0.5-2.9C50.7,286.2,50.6,285.8,50.5,285.5z" class="st5"/><path d="M37.4,238.4c-2.3-0.1-4.6,0.4-6.7,1.4c-2.1,1-3.5,3.1-3.8,5.4c-0.1,2.3,1.7,4.7,4,4.7 c-2.7,1.3-3.8,4.6-2.4,7.3c0.9,1.8,2.8,3,4.8,3c-2.5,1.2-2.6,5-0.8,7.1c1.8,2.1,4.6,2.9,7.3,3.3c2.7,4.8,8.8,6.6,13.6,3.9 c1.9-1.1,3.5-2.7,4.3-4.8c3.3,0,5.9-2.7,5.8-6c0-3.1-2.5-5.6-5.6-5.8c0.3-1.6-0.1-3.2-1.2-4.4c-1.2-1.4-3.1-2.1-5-1.8 c0,0-2.6,0-3.4-1.7c-0.7-1.9-1.1-4-1.4-6L37.4,238.4z" class="st5"/><path d="M121,300.6c-0.2-0.2-0.4-0.4-0.5-0.6l-1.4-1.9c-1.2-1.7-2.9-4-4.9-6.9l0.3,0.1l-15.9,9.3l-0.3,0.2l-0.2,0.1 l-0.1-0.2c-3.7-7.3-7-13.9-9.4-18.8l-2.8-5.7l-0.7-1.6c-0.1-0.2-0.2-0.4-0.2-0.6c0.1,0.2,0.2,0.3,0.3,0.5 c0.2,0.4,0.5,0.9,0.8,1.5l3,5.6l9.6,18.7l-0.4-0.1l0.3-0.2l16-9.2l0.2-0.1l0.1,0.2l4.8,7l1.3,1.9 C120.8,300.1,120.9,300.3,121,300.6z" class="st5"/><path d="M96.5,306.8c0-1.1,0.1-2.1,0.4-3.1c0.1-1,0.5-2.1,0.9-3C97.8,302.8,97.3,304.8,96.5,306.8L96.5,306.8z" class="st5"/></g><g id="freepik--puzzle-piece--inject-124"><path d="M268.1,398.1c-2.5,0-4.9,0.5-7.2,1.4c-1.1,0.5-2.4,0.8-3.6,0.8l-3.2-0.2v-45.2h-50.5l-0.2,4 c0,1.2,0.3,2.5,0.8,3.6c1,2.3,1.4,4.7,1.4,7.2c0,10.6-8.6,19-18.9,17.8c-7.4-0.9-13.5-6.9-14.8-14.7c-0.6-3.7-0.1-7.4,1.4-10.8 c0.6-1.2,0.9-2.6,0.9-3.9l0.2-3.1h-51.3v111.8c0,5,4.1,9.1,9.1,9.1h0h121.7v-46.6l2.4,0.2c1.3,0,2.7,0.3,3.9,0.9 c3.4,1.5,7.2,2,10.8,1.4c7.8-1.2,13.9-7.4,14.7-14.8C287.1,406.7,278.6,398.1,268.1,398.1z" class="st7"/><path d="M268.1,398.1h1.2c0.5,0,1,0.1,1.5,0.1c0.7,0.1,1.3,0.2,2,0.4c1.9,0.4,3.6,1.2,5.3,2.2 c2.2,1.4,4.1,3.3,5.6,5.5c0.8,1.3,1.5,2.8,1.9,4.3c0.2,0.8,0.4,1.6,0.5,2.5c0.1,0.9,0.1,1.8,0.1,2.7c-0.2,4-1.8,7.8-4.6,10.7 c-3.2,3.3-7.6,5.3-12.2,5.5c-2.5,0.1-5.1-0.2-7.4-1.1c-0.6-0.2-1.2-0.5-1.8-0.7c-0.6-0.2-1.2-0.4-1.9-0.5 c-0.7-0.1-1.3-0.2-2-0.2l-2-0.1l0.2-0.2c0,13.8,0,29.4,0,46.6v0.2H254h-86.9h-33.7c-1.1,0-2.1,0-3.2-0.2 c-3.3-0.8-5.9-3.2-6.9-6.4c-0.3-1-0.5-2.1-0.4-3.2V354.6h0.8v0.2l0,0l-0.2-0.2h51.3v0.3c-0.1,1-0.1,1.9-0.2,2.9 c0,1-0.2,2-0.4,2.9c-0.3,1-0.8,1.8-1.1,2.7c-1.6,4.5-1.4,9.4,0.5,13.7c1.5,3.3,4,6.1,7.1,8c3.1,1.8,6.7,2.5,10.2,2 c3.4-0.5,6.6-2.1,9.1-4.5c1.2-1.2,2.2-2.5,3.1-4c2.4-4.4,2.9-9.5,1.5-14.3c-0.2-0.8-0.5-1.5-0.8-2.3c-0.3-0.8-0.5-1.6-0.5-2.4 c0-0.8,0-1.6,0.1-2.4c0-0.8,0.1-1.6,0.1-2.4v-0.2h0.2l50.5,0h0.1v0.1c0,20.2-0.1,35.5-0.1,45.2l-0.1-0.1 c1.2,0.1,2.4,0.2,3.4,0.2c1,0,1.9-0.2,2.9-0.5c1.4-0.6,2.8-1,4.3-1.3c0.9-0.2,1.7-0.3,2.6-0.3 C267.8,398.1,268.1,398.1,268.1,398.1l-0.9,0c-0.9,0.1-1.7,0.2-2.6,0.3c-1.5,0.3-2.9,0.7-4.2,1.3c-0.9,0.3-1.9,0.5-2.9,0.6 c-1.1,0-2.2-0.1-3.4-0.2H254V400c0-9.7,0-25-0.1-45.2l0.1,0.2h-50.5l0.2-0.2c0,0.8-0.1,1.6-0.1,2.4c-0.1,0.8-0.1,1.6-0.1,2.4 c0.1,0.8,0.2,1.5,0.5,2.3c0.3,0.7,0.6,1.5,0.8,2.3c1,3.2,1.1,6.6,0.3,9.9c-0.4,1.7-1,3.3-1.8,4.8c-0.9,1.5-1.9,2.9-3.1,4.1 c-2.5,2.5-5.8,4.2-9.4,4.7c-3.6,0.5-7.4-0.2-10.5-2c-3.3-1.9-5.8-4.8-7.3-8.2c-1.5-3.5-2-7.5-1.3-11.2c0.2-1,0.4-1.9,0.8-2.8 c0.3-0.9,0.8-1.8,1.1-2.7c0.3-0.9,0.4-1.9,0.4-2.8l0.2-2.9l0.2,0.3h-51.3v-0.3l0,0l0.3,0.3h-0.3l0.2-0.3c0,19,0,38.6,0,58.7 c0,18,0,35.6,0,52.7c0,1,0.1,2.1,0.4,3.1c0.3,1,0.8,1.9,1.4,2.7c1.3,1.7,3,2.8,5.1,3.3c1,0.2,2,0.3,3.1,0.2h33.8h86.9l-0.2,0.2 c0-17.2,0-32.8,0-46.6v-0.2h0.2l2,0.1c0.7,0,1.3,0.1,2,0.2c0.7,0.2,1.3,0.4,1.9,0.7c0.6,0.3,1.2,0.5,1.8,0.7 c2.3,0.8,4.8,1.2,7.3,1.1c4.6-0.2,8.9-2.2,12.1-5.4c2.8-2.8,4.4-6.6,4.6-10.5c0-0.9,0-1.8,0-2.6c-0.1-0.8-0.3-1.7-0.5-2.5 c-0.4-1.5-1-2.9-1.9-4.3c-1.4-2.2-3.3-4.1-5.5-5.5c-1.6-1-3.4-1.8-5.2-2.2c-0.7-0.2-1.3-0.3-2-0.4c-0.5-0.1-1-0.1-1.5-0.1 L268.1,398.1z" class="st5"/></g><g id="freepik--character-4--inject-124"><path d="M337.1,358.9c0,1.2,0.3,2.5,0.8,3.6c0.9,2.3,1.4,4.7,1.4,7.2c0,10.6-8.6,19-18.8,17.8 c-7.4-0.9-13.5-6.9-14.8-14.7c-0.6-3.7-0.1-7.4,1.4-10.8c0.6-1.2,0.9-2.6,0.9-3.9l0.1-2.3c0-0.5-0.3-0.8-0.8-0.9c0,0,0,0-0.1,0 h-53.2v44.4c0,0.4,0.3,0.8,0.8,0.8l2.4,0.1c1.2,0,2.5-0.3,3.6-0.8c2.3-1,4.7-1.4,7.2-1.4c10.5,0,19,8.6,17.8,18.9 c-0.9,7.4-6.9,13.5-14.7,14.8c-3.7,0.6-7.4,0.1-10.8-1.4c-1.2-0.6-2.5-0.9-3.9-0.9l-1.5-0.1c-0.5,0-0.8,0.3-0.9,0.8 c0,0,0,0,0,0.1v45.7h-0.7v0.2h118c7.1,0,12.9-5.8,12.9-12.9c0,0,0,0,0,0V355.7c0-0.5-0.4-0.8-0.8-0.8l0,0h-45.4 c-0.4,0-0.8,0.3-0.8,0.8L337.1,358.9z" class="st1"/><path d="M337.1,358.9c0,0,0-0.5,0.1-1.5c0-0.5,0-1.1,0.1-1.9c0.1-0.4,0.6-0.7,1-0.6h1.4l17.2,0h12.5h13.8 c0.2,0,0.4,0,0.5,0c0.2,0.1,0.4,0.2,0.5,0.3c0.1,0.2,0.2,0.3,0.2,0.5v3.6c0,1.4,0,2.8,0,4.2c0,2.8,0,5.8,0,8.8 c0,6,0,12.4,0,19.1c0,13.4,0,28.1,0,43.9c0,7.9,0,16,0,24.5v3.2c0,0.5,0,1.1-0.1,1.6s-0.1,1.1-0.3,1.6c-1,4.4-4.1,8-8.4,9.5 c-1.1,0.4-2.2,0.6-3.3,0.7c-1.1,0.1-2.2,0.1-3.3,0.1H253.3H253v-0.8h1l-0.3,0.3v-45.3c0-0.3,0-0.5,0.1-0.8 c0.1-0.3,0.3-0.5,0.6-0.6c0.2-0.1,0.4-0.1,0.5-0.1h0.4c0.5,0,0.9,0.1,1.4,0.1c1,0,1.9,0.2,2.8,0.5c0.9,0.3,1.7,0.8,2.6,1 c0.9,0.3,1.8,0.5,2.7,0.7c1.8,0.3,3.7,0.4,5.5,0.2c3.6-0.4,7-1.9,9.8-4.3c2.7-2.4,4.6-5.5,5.3-9.1c0.3-1.7,0.4-3.5,0.1-5.3 c-0.2-1.7-0.8-3.4-1.5-5c-0.8-1.6-1.8-3-3-4.2c-1.2-1.2-2.6-2.3-4.1-3.1c-1.5-0.8-3.1-1.4-4.8-1.8c-1.7-0.3-3.4-0.5-5.1-0.4 c-1.7,0.1-3.4,0.4-5,1c-0.8,0.3-1.5,0.6-2.4,0.9c-0.8,0.2-1.7,0.3-2.6,0.3l-1.3-0.1h-0.6c-0.2,0-0.5,0-0.7-0.1 c-0.3-0.1-0.5-0.3-0.6-0.5c-0.1-0.1-0.1-0.3-0.1-0.4v-6.5c0-13.2,0-25.9,0-37.9v-0.2h0.2h29.1h23.9c0.3,0,0.6,0,0.9,0.2 c0.2,0.2,0.4,0.5,0.4,0.8l0,0.8c0,0.5-0.1,1-0.1,1.5c0,0.5,0,1-0.1,1.5c-0.2,1-0.5,2-1,2.9c-0.8,1.8-1.2,3.7-1.4,5.6 c-0.3,3.7,0.5,7.4,2.2,10.6c1.6,3,4.1,5.4,7.1,7c1.4,0.7,2.9,1.2,4.5,1.5c1.5,0.3,3,0.3,4.5,0.2c2.8-0.3,5.4-1.3,7.7-2.9 c2-1.4,3.7-3.2,4.9-5.3c1.1-1.8,1.9-3.8,2.3-5.8c0.2-0.9,0.3-1.8,0.3-2.7c0.1-0.8,0.1-1.7,0-2.5c-0.1-1.4-0.4-2.7-0.8-4.1 c-0.3-1.1-0.8-2-1-2.8c-0.2-0.6-0.3-1.2-0.3-1.8C337.1,359,337.1,358.8,337.1,358.9c0,0,0,0.2,0,0.6c0.1,0.6,0.2,1.2,0.3,1.8 c0.2,0.8,0.7,1.7,1,2.8c0.4,1.3,0.7,2.7,0.8,4.1c0.1,0.8,0.1,1.7,0,2.5c0,0.9-0.2,1.8-0.3,2.8c-0.4,2.1-1.2,4.1-2.3,5.9 c-1.3,2.1-3,4-5,5.4c-2.3,1.6-5,2.6-7.8,2.9c-1.5,0.1-3,0.1-4.5-0.2c-1.6-0.3-3.1-0.8-4.5-1.5c-3.1-1.6-5.6-4.1-7.3-7.1 c-2.8-5.1-3.1-11.1-0.9-16.5c0.4-0.9,0.8-1.8,1-2.8c0.1-0.5,0.1-1,0.1-1.5c0-0.5,0.1-1,0.1-1.5l0-0.8c0-0.2-0.1-0.4-0.2-0.5 c-0.2-0.1-0.4-0.2-0.6-0.1h-23.8h-29.1l0.2-0.2c0,12.1,0,24.7,0,37.9c0,1.6,0,3.3,0,5v1.6c0,0.2,0.2,0.4,0.4,0.5 c0.2,0,0.4,0.1,0.5,0.1h0.6l1.2,0.1c0.8,0,1.6-0.1,2.4-0.3c0.8-0.2,1.5-0.6,2.4-0.9c1.6-0.6,3.3-0.9,5.1-1 c1.7-0.1,3.5,0.1,5.2,0.4c1.7,0.4,3.4,1,4.9,1.8c1.6,0.9,3,1.9,4.2,3.2c1.3,1.3,2.3,2.7,3.1,4.4c0.8,1.6,1.3,3.4,1.6,5.1 c0.2,1.8,0.2,3.6-0.2,5.4c-0.8,3.6-2.7,6.9-5.5,9.4c-2.8,2.5-6.3,4-10.1,4.5c-1.9,0.2-3.8,0.2-5.6-0.2c-0.9-0.2-1.8-0.4-2.7-0.7 c-0.9-0.3-1.8-0.7-2.6-1c-0.9-0.3-1.8-0.5-2.7-0.5c-0.5,0-0.9,0-1.4-0.1h-0.4c-0.1,0-0.2,0-0.2,0c-0.2,0.1-0.3,0.2-0.3,0.3 c0,0.2,0,0.4,0,0.6V476h-1l0.3-0.3v0.2l-0.3-0.3h115.8c1.1,0,2.2,0,3.3-0.1c5.5-0.5,10-4.5,11.2-9.8c0.1-0.5,0.2-1,0.2-1.5 s0.1-1,0.1-1.6v-3.2c0-8.4,0-16.6,0-24.5c0-15.8,0-30.5,0-43.9c0-6.7,0-13.1,0-19.1c0-3,0-6,0-8.8v-4.2c0-0.7,0-1.4,0-2v-1 c0-0.4,0-0.7-0.1-0.9c-0.2-0.2-0.5-0.3-0.8-0.2h-13.7h-12.5h-17.2h-1.4c-0.4-0.1-0.8,0.2-0.9,0.5c-0.1,0.7-0.1,1.4-0.1,1.9 C337.1,358.3,337.1,358.9,337.1,358.9z" class="st5"/><path d="M452.8,341.9c-2.1-11.3-7.7-15.9-7.7-15.9l-28.2,7.9c-1.7,5.4-1.6,15.4-2.6,21.1c-0.4,2.7-1.3,5.3-2.5,7.8 l10.7-0.6c0,0,0-3.5,0.4-3.8s1.5,3.5,1.5,3.5l27.6-3.7C452.1,358.2,454,348.5,452.8,341.9z" class="st5"/><path d="M445.1,326c-4-3.7-9.6-5.4-15-4.5c-3.1,0.5-4.3,1.3-6.5,2.3c-2.2,0.9-3.9,2.6-5,4.7c-1.3,2.5-2,5.3-2,8.1 c0.2,2.7,0.8,5.3,1.8,7.8c1.4,3.2,3.4,6.1,5.8,8.6l4.9-0.2c4-0.5,8.1-1.1,11.8-2.6s7.2-4.3,8.7-8.1 C451.8,336.8,449.4,329.7,445.1,326z" class="st5"/><path d="M438.6,327l-10.3-2.2l-2.5,0.7c-5.7,1-8.5,7.9-7.8,12.5c0.8,5.1,2,11.3,3.5,15c2.9,7.3,9.5,6.8,9.5,6.8 s0.2,1.6,0.5,3.6c0.5,4.1,4.3,7,8.4,6.5c0.1,0,0.2,0,0.3,0l0,0c4-0.7,6.8-4.5,6.2-8.5l-4.7-32.1 C441.4,327.8,440.1,326.8,438.6,327z" class="st6"/><path d="M432.6,349.2c-0.1-0.4-0.4-0.7-0.7-0.9c-0.6-0.4-1.5-0.3-2,0.2c-0.6,0.6-0.7,1.4-0.5,2.2l0,0 c0.4,0.4,1,0.6,1.6,0.6h0.3c0.5-0.1,0.9-0.3,1.1-0.7C432.7,350.3,432.8,349.7,432.6,349.2z" class="st14"/><path d="M421.6,343.9c0.1,0.5,0.6,0.9,1.1,0.8c0.5-0.1,0.9-0.5,0.8-1.1c0,0,0,0,0,0c-0.1-0.5-0.6-0.9-1.1-0.8 C421.9,342.8,421.6,343.3,421.6,343.9C421.6,343.8,421.6,343.9,421.6,343.9z" class="st5"/><path d="M420.7,340.7c0.1,0.1,0.9-0.2,1.9-0.1s1.8,0.5,2,0.4s-0.1-0.2-0.4-0.4c-0.5-0.2-1-0.4-1.6-0.4 c-0.5,0-1.1,0-1.5,0.2C420.7,340.5,420.6,340.7,420.7,340.7z" class="st5"/><path d="M428.4,347.4c-0.6,0-1.2,0-1.8,0.1c-0.3,0-0.5,0-0.6-0.1c-0.1-0.3-0.1-0.6,0-0.8c0.1-0.7,0.2-1.4,0.3-2.2 c0.3-1.9,0.5-3.8,0.6-5.7c-0.5,1.9-0.8,3.7-1,5.6c-0.1,0.8-0.2,1.5-0.3,2.2c-0.1,0.4-0.1,0.7,0.1,1.1c0.1,0.2,0.3,0.3,0.5,0.3 c0.2,0,0.3,0,0.5,0C427.3,347.7,427.9,347.6,428.4,347.4z" class="st5"/><path d="M431,359.8c3.6-0.8,6.9-2.5,9.5-5c0,0-1.5,5.9-9.2,6.9L431,359.8z" class="st14"/><path d="M431.6,347.4c-0.2,0,0.1,1.2-0.7,2.2s-2,1.2-2,1.3s0.3,0.2,0.8,0.1c0.7-0.1,1.3-0.5,1.7-1 c0.4-0.5,0.6-1.2,0.5-1.8C431.9,347.6,431.7,347.4,431.6,347.4z" class="st5"/><path d="M420,336.5c0.2,0.2,1-0.1,1.9-0.3s1.8-0.1,1.9-0.3s-0.1-0.4-0.5-0.5c-1-0.4-2.3-0.3-3.1,0.5 C420,336.1,419.9,336.4,420,336.5z" class="st5"/><path d="M433,341.8c0.1,0.5-0.2,1-0.8,1.2c-0.5,0.1-1-0.2-1.2-0.7c-0.1-0.5,0.2-1,0.8-1.2 C432.3,341,432.9,341.3,433,341.8z" class="st5"/><path d="M434.3,338.1c-0.1,0.1-0.9,0.2-1.8,0.8s-1.5,1.2-1.6,1.2s0-0.2,0.2-0.5c0.4-0.4,0.8-0.7,1.2-1 c0.5-0.3,0.9-0.4,1.5-0.5C434.2,338,434.3,338,434.3,338.1z" class="st5"/><path d="M433.2,334.2c-0.2,0.3-1,0.2-2,0.4s-1.8,0.5-2,0.3s0-0.4,0.3-0.7c0.4-0.4,1-0.6,1.5-0.7 c0.6-0.1,1.1,0,1.7,0.2C433.1,333.8,433.3,334,433.2,334.2z" class="st5"/><path d="M442.5,342.2c-0.1-0.6,0.2-2,0.8-2.2c1.4-0.6,4.1-1,5,2.7c1.2,5.1-4.2,5.3-4.3,5.1S442.9,344.1,442.5,342.2 z" class="st6"/><path d="M445,345.6c0,0,0.1,0,0.3,0.1c0.2,0,0.5,0,0.7-0.1c0.6-0.6,0.8-1.4,0.6-2.2c-0.1-0.4-0.3-0.9-0.5-1.2 c-0.2-0.3-0.5-0.5-0.8-0.5c-0.2,0-0.4,0.1-0.5,0.4c0,0.2,0,0.3,0,0.3s-0.1-0.1-0.1-0.3c0-0.1,0-0.3,0.1-0.4 c0.1-0.1,0.3-0.2,0.5-0.2c0.4,0,0.9,0.2,1.1,0.6c0.3,0.4,0.5,0.9,0.6,1.4c0.3,0.9-0.1,1.9-0.8,2.5c-0.3,0.1-0.6,0.2-0.9,0.1 C445,345.7,445,345.6,445,345.6z" class="st14"/><path d="M443.5,339.9l-1.1,1.6c-6.6-4.5-20.1-16.3-19.3-15.6c2.4-1.4,5.2-2.2,8-2.3c4.4,0,12.8,0.8,13.5,5.8 C444.9,333,444.5,336.5,443.5,339.9z" class="st5"/><polygon points="386.5 374.9 411.6 384.6 420.7 377.1 427.1 383.9 410.4 394 385.3 380.9" class="st14"/><path d="M431.5,363.6c-0.8,1.1-1.6,2.2-2.5,3.3c-1.4,1.5-10.9,11.3-10.9,11.3l3.5,4.7l7.8-2.3L431.5,363.6z" class="st12"/><path d="M421.7,382.8L421.7,382.8l-3.6-4.7l0,0c0.1-0.1,9.5-9.7,10.9-11.3c0.9-1,1.7-2.1,2.5-3.3l0-0.1v0.1 l-2,16.9l0,0L421.7,382.8z M418.2,378.1l3.5,4.6l7.8-2.3l2-16.8c-0.7,1.1-1.6,2.2-2.4,3.2C427.7,368.4,418.5,377.8,418.2,378.1z" class="st18"/><path d="M465.2,400.4v-0.8l-7.1-27c-1.5-6.4-6.7-11.3-13.2-12.5c-0.6-0.1-13.5,2.9-13.6,3l-4.3,12.6 c0,0-4,11.3-3.4,16.9c0.4,3.5,10.3,18.6,10.3,18.6l-2.6,4c13.9,6.9,29.3,10.4,44.8,10.2C474,414.3,465.2,400.4,465.2,400.4z" class="st12"/><path d="M449.6,404.4c-0.5,0.5-1.1,0.9-1.8,1.2c-1.1,0.7-2.7,1.7-4.5,2.6s-3.5,1.7-4.8,2.2c-0.6,0.3-1.3,0.5-2,0.7 c0.6-0.4,1.3-0.7,1.9-1c1.2-0.6,2.9-1.4,4.7-2.3s3.4-1.8,4.6-2.5C448.4,405,449,404.7,449.6,404.4z" class="st5"/><path d="M443.7,383.9c0,0-24.8,20.9-29,20.5s-35.3-20.2-35.3-20.2l4.5-7.6l29.8,13l22.5-20.3L443.7,383.9z" class="st6"/><path d="M386,378.3c0.1-0.2,0.9-6.8,0.9-6.8s0.5-7.2,0.5-7.3s-0.2-1.5-1.7,0.4c-1,1.4-1.4,3.2-1.3,4.9l-6-3 c0,0-2.3-1.4-2.7,0.1c-0.6-0.5-1.4-0.4-1.9,0.2c0,0,0,0.1-0.1,0.1c-0.4,0.7-0.5,1.5-0.1,2.2c0,0-1.3,1.4-0.4,2.5 c0,0-1.1,0.5-0.2,2.3l3.3,3.5c0,0,0.7,4.6,1.6,5.8s4.1,2.1,4.1,2.1l5.2-6L386,378.3z" class="st6"/><path d="M386.5,374.9c-0.5,1.5-0.8,3-1,4.5c-0.4,2.5-0.9,4.5-0.8,4.5c0.6-1.4,1-2.9,1.2-4.4 C386.2,378,386.4,376.4,386.5,374.9z" class="st14"/><path d="M375.9,366.9c1.1,0.9,2.2,1.7,3.4,2.3c1.1,0.8,2.4,1.5,3.6,2c-1.1-0.9-2.2-1.7-3.4-2.3 C378.4,368.1,377.2,367.4,375.9,366.9z" class="st14"/><path d="M373.5,368.8c1,0.9,2.2,1.7,3.4,2.4c1.2,0.8,2.4,1.4,3.7,1.8c-1.1-0.8-2.3-1.6-3.5-2.2 C376,370.1,374.8,369.4,373.5,368.8z" class="st14"/><path d="M373.2,371.6c1.3,1.3,2.9,2.3,4.6,3c-0.7-0.6-1.4-1.2-2.2-1.6C374.9,372.5,374.1,372,373.2,371.6z" class="st14"/><path d="M379,377c0.4,0.2,0.8,0.2,1.2,0.1c0.5-0.1,0.9-0.4,1.2-0.7c0.4-0.4,0.7-1,0.7-1.6l-0.3,0.2 c0.3,0.1,0.6,0.1,0.8,0c0.4-0.1,0.8-0.4,1-0.9c0.2-0.4,0.2-0.8,0.1-1.2l-0.3,0.2c0.3,0.2,0.8,0.3,1.2,0.1 c0.3-0.1,0.5-0.3,0.7-0.6c0.2-0.5,0.1-0.8,0.1-0.8s0,0.3-0.3,0.6c-0.3,0.5-0.9,0.6-1.4,0.3c0,0-0.1,0-0.1-0.1l-0.5-0.3l0.2,0.5 c0.2,0.7-0.2,1.3-0.8,1.5c-0.2,0-0.4,0-0.6,0l-0.2,0v0.2c-0.1,0.9-0.7,1.7-1.6,2C379.8,376.9,379.4,377,379,377z" class="st14"/><path d="M451.2,362.6c-4.3-3.4-12,1.4-17.3,5.4c-4.8,3.6-12.2,10.8-12.2,10.8l13.5,15.2l14-11.4 c3.5-2.7,6.5-7.5,6.3-11.8C455.3,367.6,453.8,364.6,451.2,362.6z" class="st12"/><path d="M451.2,362.6l0.2,0.1l0.5,0.4c0.6,0.5,1.1,1.1,1.6,1.7c0.8,1,1.3,2.1,1.7,3.4c0.5,1.6,0.6,3.3,0.3,5 c-0.7,3.7-3.3,7.7-7.4,10.7l-12.8,10.4l-0.2,0.1l-0.1-0.1l-4.8-5.4l-8.8-9.9l-0.1-0.1l0.1-0.1c3.7-3.6,7.3-6.8,10.6-9.5 c2.9-2.4,6.1-4.5,9.4-6.1c2.9-1.4,5.5-1.9,7.2-1.5l0.6,0.1c0.2,0.1,0.3,0.1,0.5,0.2c0.3,0.1,0.5,0.2,0.8,0.4l0.4,0.3 L451.2,362.6c-0.7-0.5-1.6-0.8-2.4-1c-1.7-0.3-4.2,0.2-7.1,1.6c-3.3,1.7-6.5,3.8-9.3,6.2c-3.3,2.7-6.9,6-10.5,9.5v-0.3l8.8,9.9 l4.8,5.4h-0.3l12.8-10.3c4-2.9,6.7-6.8,7.4-10.4c0.3-1.6,0.2-3.3-0.3-4.9c-0.4-1.2-0.9-2.3-1.6-3.3c-0.5-0.6-1-1.2-1.5-1.8 l-0.5-0.4L451.2,362.6z" class="st5"/><path d="M439.4,470.9l15.6-5.3c0,0,10.7,14.1,13.6,13.4l-9.3-30.6l-24.6,7.3L439.4,470.9z" class="st10"/><path d="M450.8,456.5c0-0.7,0.5-1.2,1.2-1.3c0.7,0,1.2,0.5,1.3,1.1c0,0.7-0.5,1.3-1.2,1.4c-0.7,0-1.2-0.6-1.2-1.3" class="st1"/><path d="M460,448.1l-2.4,0.7l9.1,29.4c0,0,1,1.2,1.9,0.7L460,448.1z" class="st1"/><path d="M454.9,466.1c0.1,0,0-0.8,0.2-1.7s0.8-1.5,0.7-1.6s-0.9,0.4-1.2,1.4S454.8,466.2,454.9,466.1z" class="st5"/><path d="M457.2,468.9c0.2,0,0.2-0.7,0.7-1.4s1.1-1,1.1-1.2s-0.9,0-1.5,0.9S457.1,469,457.2,468.9z" class="st5"/><path d="M461.6,469.6c0-0.1-0.8-0.1-1.5,0.5s-0.8,1.4-0.7,1.5s0.5-0.5,1-1S461.7,469.7,461.6,469.6z" class="st5"/><path d="M450.5,469.3c0.1-0.1-0.4-0.9-0.6-1.9s-0.2-1.9-0.3-1.9s-0.6,0.9-0.3,2.1S450.4,469.4,450.5,469.3z" class="st5"/><path d="M436,427.5c-0.7-0.2-33.3,30.7-34,36.2s0.4,10.3,4.1,13.4s45.4-7,45.4-7l-3.9-17.5l15.1-5.1l-13.5-24.6 L436,427.5z" class="st5"/><g class="st13"><path d="M428.9,433.8l-1.7,1.6c0,0,16.6,16.9,22,16.6l8.7-3l-27.8-16.4L428.9,433.8z"/></g><path d="M447,452.2c0,0.1-6.4,2.1-14.4,4.5s-14.5,4.2-14.6,4.1s6.4-2.1,14.4-4.5S447,452.1,447,452.2z" class="st10"/><path d="M412.6,455.5l5,15.9c0,0-14.5,10.5-13.9,13.5l31.3-8.6l-6.8-25.2L412.6,455.5z" class="st10"/><path d="M427,467.4c0.7,0,1.2,0.5,1.3,1.2c0,0.7-0.5,1.2-1.2,1.3c-0.7,0-1.3-0.6-1.4-1.3c0-0.6,0.8-1.4,1.4-1.2" class="st1"/><path d="M435.2,477l-0.6-2.4l-30,8.5c0,0-1.2,1-0.8,1.9L435.2,477z" class="st1"/><path d="M417.1,471.4c0,0.1,0.8,0,1.7,0.3s1.5,0.8,1.6,0.7s-0.4-0.9-1.4-1.2S417,471.3,417.1,471.4z" class="st5"/><path d="M414.2,473.7c0,0.1,0.7,0.2,1.4,0.7s1,1.1,1.2,1.1s0-0.9-0.9-1.5S414.2,473.5,414.2,473.7z" class="st5"/><path d="M413.4,478.1c0.1,0,0.1-0.8-0.5-1.6s-1.4-0.9-1.5-0.7s0.5,0.5,1,1.1S413.3,478.1,413.4,478.1z" class="st5"/><path d="M416.4,467.7c0.1,0.1,0.8-0.3,1.6-0.5s1.6-0.1,1.7-0.2s-0.8-0.5-1.8-0.3S416.3,467.6,416.4,467.7z" class="st5"/><g class="st13"><polygon points="436 473.5 433.7 464.5 435.4 463.6 425.3 437.2 422.9 436.9 431.1 463 434.1 473.9"/></g><path d="M411.2,402.9c-4.1-0.9-8.4,0-11.8,2.5c-3.5,2.4-5.2,6.7-4.4,10.8c1.7,11.8,16.8,52.2,16.8,52.2l20.9-6.3 c0.1,0,0.2-0.4,0.2-0.3c-0.2,0.3-10.6-33.4-10.4-33s21.1,17.2,29.8,20.3c8,2.9,16.9,0.2,21.9-6.5c2-2.8,7.3-15.5-1.9-27.9 l-18,0.9c0,0-41-12.2-41.6-12.5C412.3,403.1,411.8,403,411.2,402.9z" class="st5"/><path d="M475.1,442.3c0,0-0.1,0.1-0.3,0.4c-0.3,0.4-0.5,0.8-0.8,1.1c-1.2,1.3-2.6,2.5-4.1,3.5 c-2.4,1.5-5.2,2.6-8,3c-1.8,0.3-3.6,0.3-5.4,0.1c-2-0.2-4-0.8-5.9-1.8c-1-0.4-1.9-1-2.9-1.5s-2-1.1-3-1.8 c-2-1.2-4.1-2.6-6.2-4.1c-4.2-2.9-8.6-6.2-13.2-9.8l-1.7-1.4l-0.9-0.7l-0.2-0.2l-0.1-0.1c0.1,0-0.2-0.1,0.1,0 c0.3-0.3,0.1-0.1,0.1-0.2v0.2l0.2,0.5l1.3,4.4l2.9,9c2,6.1,4,12.5,6.1,19.2l0.1,0.2l-0.2,0.1l-21.2,6.4l-0.2,0l-0.1-0.2 c-1.4-3.6-2.8-7.5-4.2-11.4c-3-8.5-5.9-16.8-8.5-25c-1.3-4.1-2.5-8.1-3.4-12.1c-0.1-0.5-0.2-1-0.3-1.5s-0.2-1-0.3-1.5 c-0.2-1-0.3-2-0.3-3c0-2,0.6-4,1.7-5.7c2.2-3.2,5.7-5.3,9.6-5.8c1.8-0.3,3.7-0.2,5.5,0.2l1.3,0.3l1.3,0.4l2.5,0.8l18.5,5.5 c11.3,3.4,20.5,6.1,26.8,8l7.3,2.2l1.9,0.6c0.4,0.1,0.6,0.2,0.6,0.2l-0.6-0.2l-1.9-0.5L462,418l-26.9-8l-18.6-5.5l-2.5-0.7 l-1.3-0.4l-1.3-0.3c-1.8-0.4-3.6-0.5-5.4-0.2c-3.8,0.5-7.2,2.5-9.4,5.7c-1.1,1.6-1.6,3.6-1.6,5.5c0,1,0.1,2,0.3,3l0.3,1.5 c0.1,0.5,0.2,1,0.4,1.5c0.9,4,2.1,8,3.4,12c2.5,8.1,5.4,16.4,8.5,24.9c1.4,3.9,2.8,7.8,4.1,11.4l-0.2-0.1l21.2-6.4l-0.1,0.2 c-2.1-6.6-4.1-13-6.1-19.2l-2.8-9l-1.3-4.4l-0.1-0.5V429c0.1,0-0.1,0.1,0.1-0.2c0.4,0.2,0.1,0.1,0.2,0.1l0.1,0.1l0.2,0.2 l0.8,0.7l1.7,1.4c4.5,3.6,8.9,6.9,13.1,9.9c2.1,1.5,4.1,2.8,6.1,4.1c1,0.6,2,1.2,3,1.8s1.9,1.1,2.9,1.5c1.8,0.9,3.8,1.5,5.8,1.8 c1.8,0.2,3.6,0.2,5.4,0c2.8-0.4,5.6-1.5,8-3c1.5-0.9,2.9-2.1,4.1-3.4c0.4-0.5,0.7-0.8,0.9-1.1L475.1,442.3z" class="st10"/><path d="M413,419.6c0.6,0.2,1.2,0.6,1.7,1c1.3,0.9,2.6,1.9,3.8,3c1.2,1.1,2.2,2.3,3.1,3.6c0.4,0.5,0.8,1.1,1,1.7 c-0.4-0.5-0.8-1-1.2-1.6c-1-1.2-2-2.4-3.1-3.5c-1.1-1.1-2.4-2.1-3.6-3C414,420.5,413.5,420.1,413,419.6z" class="st5"/><path d="M420.2,417.3c0.3,0.5,0.6,1,0.8,1.6c0.5,1.3,0.9,2.6,1.2,4c0.3,1.4,0.5,2.8,0.6,4.2c0.1,0.6,0.1,1.2,0,1.8 c-0.1,0-0.3-2.6-1-5.8S420.1,417.4,420.2,417.3z" class="st5"/><path d="M430.1,365.8c-0.9,1.9-1.9,3.8-3.1,5.6c-1,1.9-2.2,3.7-3.5,5.3c0.9-1.9,1.9-3.8,3.1-5.6 C427.7,369.2,428.8,367.4,430.1,365.8z" class="st5"/></g></g><g id="Capa_2"><g><path d="M227.5,411c0,2.8,0,5.7,0,8.5c0,0.7-0.2,1-0.9,0.9c-0.8-0.1-1.7-0.1-2.5,0c-0.7,0-0.9-0.2-0.9-0.9 c0-1.8,0.1-3.6,0-5.4c0-0.9,0.2-1.1,1.1-1.1c1.3,0.1,2.2-0.6,2.4-1.7c0.2-1.2-0.6-2.4-1.9-2.6c-1.2-0.2-2.3,0.8-2.4,2.2 c0,0.4,0.3,1-0.3,1.3c-0.4,0.2-1.1,0.3-1.1-0.7c0.1-0.8-0.1-1.6-0.7-2.2c-0.8-0.7-1.6-0.8-2.5-0.3c-0.9,0.5-1.3,1.4-1.1,2.4 c0.2,1,0.9,1.6,1.9,1.7c1.6,0.1,1.6,0.1,1.6,1.7c0,1.6,0,3.2,0,4.8c0,0.6-0.2,0.7-0.8,0.6c-5.7-1.1-10.3-5.7-11-11.5 c-0.3-2.8-0.1-5.6-0.1-8.4c0-0.7,0.5-0.6,0.9-0.6c2.8,0,5.6,0,8.4,0c2.2,0,4.4,0,6.5,0c2.2,0,3.2,1.1,3.2,3.3 C227.5,405.7,227.5,408.4,227.5,411z" class="st3"/><path d="M167.3,399.8c-6.4,2-10,6.2-10.2,13c-0.1,3.2,1.1,6,3.2,8.4c2.1,2.4,4.7,3.7,7.8,4.4c-4.5,0-9,0-13.5,0 c-2.4,0-3.6-1.2-3.6-3.6c0-6.2,0-12.5,0-18.7c0-2.3,1.2-3.5,3.5-3.5C158.7,399.8,163,399.8,167.3,399.8z" class="st4"/><path d="M215.2,425.6c-1,0-1.9,0-2.9,0c-2.8,0-5.6,0-8.4,0c-0.8,0-0.9-0.2-0.7-0.9c2.6-7.3-2.7-14.9-10.5-15.1 c-2.6-0.1-4.4-1.4-5.1-3.9c-0.6-1.9,0.3-4.2,2-5.5c0.4-0.3,0.9-0.5,1.4-0.5c3.4,0,6.8,0,10.2,0c0.7,0,0.9,0.2,0.9,0.9 c0,2.6-0.1,5.1,0.1,7.7c0.6,6.3,3.5,11.1,8.6,14.7C212.3,424.1,213.7,424.8,215.2,425.6z" class="st19"/><path d="M182.9,410.3c1.8,2.6,3.9,4.2,6.7,5c0.9,0.3,1.9,0.3,2.8,0.3c3.3,0.1,5.6,2.5,5.4,5.8 c-0.2,2.3-2,4.1-4.3,4.1c-6.5,0-13,0-19.5,0c-0.4,0-0.8,0.1-1.1-0.1C179.1,423.8,183.8,418.4,182.9,410.3z" class="st20"/><path d="M169.9,405.9c3.5,0,6.9,2.6,6.8,6.8c0,4-2.9,6.7-6.8,6.8c-3.7,0.1-6.9-3.1-6.9-6.8 C163.1,409,166.2,405.9,169.9,405.9z M168.3,411.6c0.1,0.2,0.2,0.6,0.4,0.8c0.9,0.5,0.7,1.3,0.7,2.1c0,0.5-0.1,1.1,0.6,1.1 c0.7,0,0.7-0.6,0.7-1.1c0-0.8,0-1.5,0.7-2.2c0.6-0.5,0.4-1.3-0.1-1.9c-0.5-0.6-1.1-0.8-1.8-0.5 C168.8,410.2,168.4,410.7,168.3,411.6z" class="st4"/><path d="M172.7,399.8c3.1,0,6.3,0,9.6,0c-0.8,2-1.1,4-0.9,6.2C179.2,402.9,176.4,400.7,172.7,399.8z" class="st20"/><path d="M157.3,432.7c0,2.3-1.1,3.5-3.2,3.5c-2.1,0-3.2-1.3-3.2-3.6c0-2.2,1.2-3.5,3.2-3.5 C156.2,429.2,157.3,430.4,157.3,432.7z M156.6,432.7c0-2-0.7-2.9-2.4-2.9c-1.7,0-2.6,0.9-2.6,2.8c0,1.9,0.9,3,2.5,3 C155.7,435.7,156.6,434.6,156.6,432.7z" class="st21"/><path d="M178.1,429.2c0.8-0.1,1.5,0.3,2,0.9c0.2,0.2,0.3,0.3,0.1,0.6c-0.2,0.2-0.4,0.1-0.5-0.1 c-0.6-0.7-1.3-0.7-2.1-0.6c-0.5,0-0.8,0.3-1,0.7c-0.2,0.5,0.1,0.9,0.5,1.1c0.7,0.3,1.4,0.6,2.1,0.9c1.1,0.5,1.4,1.1,1.2,2.2 c-0.2,1-1,1.3-1.9,1.4c-0.9,0.1-1.8,0-2.5-0.7c-0.2-0.2-0.5-0.5-0.2-0.7c0.3-0.4,0.5,0.1,0.7,0.2c0.6,0.6,1.3,0.9,2.2,0.7 c0.6-0.1,1.1-0.4,1.1-1.1c0.1-0.7-0.2-1.1-0.8-1.4c-0.5-0.2-1-0.3-1.4-0.5c-1.2-0.4-1.7-1.1-1.5-2.1 C176.1,429.7,176.9,429.1,178.1,429.2z" class="st21"/><path d="M158.4,434.8c0-0.9,0-1.8,0-2.7c0-0.3,0-1,0.6-0.4c0.3,0.3,0.5-0.1,0.8-0.2c1-0.4,2,0,2.5,0.9 c0.5,1,0.5,2.2-0.2,3.1c-0.6,0.9-1.6,0.9-2.5,0.5c-0.3-0.1-0.5,0-0.5,0.3c0,0.2,0,0.4,0,0.6c-0.1,0.4,0.4,1.2-0.3,1.1 c-0.6,0-0.3-0.8-0.3-1.2C158.4,436.2,158.4,435.5,158.4,434.8z M159,433.8c0,1.2,0.5,1.9,1.5,1.9c0.9,0,1.5-0.7,1.5-1.9 c0-1.1-0.5-1.8-1.4-1.8C159.5,432,159,432.5,159,433.8z" class="st21"/><path d="M222.4,416.8c0,1,0,2,0,3c0,0.4-0.1,0.7-0.5,0.6c-0.4,0-0.8,0-0.8-0.6c0-2.1,0-4.1,0-6.2 c0-0.5,0.3-0.6,0.7-0.6c0.4,0,0.7,0,0.7,0.6C222.4,414.7,222.4,415.7,222.4,416.8z" class="st3"/><path d="M218,434.2c0,0.4,0,0.8,0,1.2c0,0.4,0.1,1.1-0.6,0.4c-0.2-0.2-0.4,0.1-0.6,0.2c-0.6,0.3-1.2,0.3-1.8,0.1 c-0.6-0.2-0.9-0.7-0.8-1.4c0.1-0.6,0.4-1.1,1-1.2c0.4-0.1,0.9,0,1.3-0.1c0.3,0,0.8,0.2,0.8-0.4c0-0.5-0.2-0.9-0.7-1 c-0.5-0.1-1.1-0.2-1.5,0.3c-0.2,0.2-0.4,0.4-0.6,0.1c-0.2-0.3,0.1-0.5,0.3-0.6c0.7-0.5,1.4-0.6,2.1-0.3c0.7,0.3,1,0.9,1,1.6 C218,433.5,218,433.9,218,434.2z M216.5,433.9c-0.7,0.1-1.6-0.1-1.6,1c0,0.6,0.5,0.9,1.2,0.8c0.8,0,1.5-0.6,1.4-1.3 C217.4,433.6,216.8,434,216.5,433.9z" class="st21"/><path d="M219.9,431.9c1.1-0.7,2.1-0.8,2.9,0.1c0.7,0.7,0.7,2.5,0.2,3.4c-0.6,0.9-1.4,0.9-2.3,0.8 c-0.8-0.2-1.3-0.8-1.3-1.6c0-1.7,0-3.3,0-5c0-0.2-0.1-0.5,0.2-0.5c0.4,0,0.3,0.3,0.3,0.5C219.9,430.3,219.9,431,219.9,431.9z M219.9,433.7c0,1.4,0.4,2,1.4,2c0.9,0,1.5-0.7,1.4-1.9c0-1.1-0.5-1.8-1.5-1.8C220.3,432,219.9,432.5,219.9,433.7z" class="st21"/><path d="M204.2,436.2c-1.4,0-2.1-0.8-2.1-2.4c0-1.5,0.8-2.5,2.1-2.4c0.9,0,1.5,0.5,1.8,1.3c0.3,1,0,1.3-1,1.3 c-0.4,0-0.9,0-1.3,0c-0.3,0-0.8-0.3-0.9,0.2c-0.1,0.4,0.2,0.8,0.5,1.1c0.7,0.5,1.3,0.5,2,0c0.2-0.1,0.4-0.2,0.6,0 c0.2,0.3-0.1,0.4-0.3,0.6C205.2,436.1,204.7,436.2,204.2,436.2z M204.1,433.6c0.4-0.3,1.2,0.4,1.3-0.5c0.1-0.8-0.5-1.1-1.2-1.1 c-0.8,0-1.4,0.4-1.3,1.1C202.9,434,203.7,433.2,204.1,433.6z" class="st21"/><path d="M167.2,435.4c-0.7,0.9-1.6,0.9-2.5,0.7c-1.1-0.3-1.6-1.5-1.4-3c0.2-1.2,1-1.8,2.1-1.8 c0.7,0,1.2,0.3,1.6,0.9c0.3,0.5,0.4,1,0.2,1.5c-0.2,0.4-0.7,0.2-1.1,0.2c-0.5,0-0.9,0-1.4,0c-0.9-0.1-0.9,0.3-0.5,0.9 c0.5,0.8,1.2,0.9,2,0.7C166.5,435.5,166.7,435,167.2,435.4z M165.3,433.5c0.4-0.3,1.3,0.4,1.3-0.5c0.1-0.7-0.5-1.1-1.3-1.1 c-0.8,0-1.4,0.4-1.3,1.1C164.1,434,164.9,433.2,165.3,433.5z" class="st21"/><path d="M190,436.2c-1.5,0-2.2-0.8-2.2-2.5c0-1.6,0.8-2.5,2.2-2.4c0.8,0,1.3,0.4,1.6,1.1c0.5,1,0.1,1.6-0.9,1.6 c-0.5,0-1.1,0-1.6,0c-0.7,0-0.7,0.3-0.5,0.8c0.4,0.9,1.3,1.2,2.3,0.7c0.3-0.1,0.6-0.4,0.7-0.1c0.2,0.4-0.3,0.5-0.6,0.6 C190.7,436.2,190.3,436.2,190,436.2z M189.7,433.6c0.4-0.4,1.3,0.5,1.3-0.6c0-0.7-0.5-1-1.2-1c-0.8,0-1.4,0.4-1.4,1.1 C188.5,434,189.4,433.2,189.7,433.6z" class="st21"/><path d="M192.8,433.8c0-0.4,0-0.9,0-1.3c0-0.5-0.2-1.3,0.8-0.7c0.1,0.1,0.4-0.2,0.7-0.3c1.1-0.4,2.2,0.2,2.4,1.3 c0.1,1,0,1.9,0.1,2.9c0,0.2-0.1,0.5-0.3,0.4c-0.2,0-0.3-0.2-0.3-0.4c0-0.8,0-1.7,0-2.5c0-0.8-0.3-1.2-1.2-1.2 c-0.9,0-1.4,0.3-1.4,1.2c0,0.8,0,1.6,0,2.4c0,0.2,0,0.5-0.3,0.5c-0.3,0-0.4-0.2-0.4-0.5C192.8,435,192.8,434.4,192.8,433.8z" class="st21"/><path d="M168.3,433.7c0-0.4,0-0.9,0-1.3c0-0.7,0-0.7,0.8-0.6c0.2,0,0.4-0.2,0.7-0.3c1.2-0.5,2.3,0.2,2.4,1.5 c0,0.9,0,1.7,0,2.6c0,0.2,0.1,0.6-0.3,0.6c-0.3,0-0.3-0.4-0.3-0.6c0-0.8,0-1.5,0-2.3c0-0.8-0.4-1.3-1.3-1.2 c-0.9,0-1.3,0.4-1.3,1.3c0,0.8,0,1.6,0,2.4c0,0.2,0,0.5-0.3,0.5c-0.3,0-0.3-0.2-0.3-0.5C168.3,435,168.3,434.4,168.3,433.7 C168.3,433.7,168.3,433.7,168.3,433.7z" class="st21"/><path d="M225.8,436.2c-0.3-0.1-0.6-0.1-0.9-0.2c-0.4-0.1-0.9-0.4-0.7-0.8c0.3-0.5,0.6,0.1,0.8,0.2 c0.4,0.2,0.8,0.2,1.2,0.2c0.4-0.1,0.7-0.3,0.8-0.7c0.1-0.4-0.2-0.6-0.6-0.7c-0.4-0.2-0.8-0.3-1.2-0.5c-0.7-0.3-1-0.7-0.8-1.5 c0.1-0.7,0.7-0.9,1.3-1c0.4-0.1,0.9,0,1.2,0.3c0.3,0.2,0.7,0.4,0.5,0.7c-0.2,0.4-0.5-0.1-0.7-0.2c-0.3-0.2-0.6-0.1-1-0.1 c-0.3,0-0.6,0-0.7,0.4c-0.1,0.4,0.1,0.6,0.4,0.8c0.3,0.2,0.7,0.2,1,0.4c0.7,0.3,1.3,0.8,1.1,1.7 C227.3,436.1,226.5,436.1,225.8,436.2z" class="st21"/><path d="M199.8,436.2c-1,0-1.7-0.4-2-1.2c-0.4-1.2-0.1-2.7,0.7-3.3c0.8-0.5,1.6-0.5,2.3,0c0.2,0.1,0.6,0.3,0.4,0.7 c-0.2,0.3-0.4-0.1-0.6-0.2c-0.7-0.3-1.3-0.4-1.9,0.2c-0.6,0.6-0.6,2.1-0.1,2.8c0.5,0.7,1.1,0.7,1.9,0.4c0.3-0.1,0.6-0.6,0.8-0.2 c0.2,0.5-0.4,0.6-0.7,0.7C200.2,436.2,199.9,436.2,199.8,436.2z" class="st21"/><path d="M209.9,432.1c0-0.8,0-1.6,0-2.4c0-0.2,0-0.5,0.3-0.5c0.4,0,0.3,0.3,0.3,0.6c0,1.3,0,2.7,0,4 c0,1.5,0.2,1.7,1.8,1.7c0.4,0,1.2-0.3,1.2,0.3c0,0.6-0.8,0.3-1.2,0.3c-2,0-2.4-0.4-2.4-2.4C209.9,433.2,209.9,432.6,209.9,432.1 C209.9,432.1,209.9,432.1,209.9,432.1z" class="st21"/><path d="M224.1,412.2c-0.6,0.1-0.9-0.1-0.9-0.9c0.1-1.1,0.5-1.7,1.3-1.8c0.7,0,1.4,0.6,1.3,1.4 C225.8,411.8,225.3,412.2,224.1,412.2z" class="st3"/><path d="M219.3,412.2c-1.2,0-1.7-0.4-1.7-1.3c0-0.9,0.4-1.3,1.3-1.4c0.8,0,1.3,0.6,1.3,1.7 C220.2,412.2,220.2,412.2,219.3,412.2z" class="st3"/><path d="M181.9,433.8c-0.1,1.3,1,2.5,2.5,1.6c0.2-0.1,0.4-0.3,0.5,0c0.1,0.2-0.1,0.4-0.3,0.5 c-1.2,0.9-3,0.2-3.3-1.3c-0.3-1.6,0.2-2.6,1.2-3c0.5-0.2,1-0.2,1.6,0c0.3,0.2,0.9,0.4,0.7,0.8c-0.3,0.6-0.5-0.1-0.8-0.2 C182.8,431.6,181.9,432.3,181.9,433.8z" class="st21"/><path d="M186.7,433.8c0,0.6,0,1.3,0,1.9c0,0.2-0.1,0.4-0.3,0.4c-0.2,0-0.3-0.2-0.3-0.4c0-1.3,0-2.6,0-3.9 c0-0.2,0.1-0.4,0.3-0.4c0.2,0,0.3,0.2,0.3,0.4C186.7,432.5,186.7,433.2,186.7,433.8z" class="st21"/></g><g><g id="Document_00000148637125396126938270000018328796182418237862_" transform="scale(1 -1)"><g id="Spread_00000115506324635655121420000011444442808956216752_" transform="translate(0 -1559.06)"><g id="Logo_00000140007807875991391450000006929321006803543708_"><g id="Group_00000098205212316279614860000000298483555890336931_"><defs><filter id="Adobe_OpacityMaskFilter" width="15.1" height="4" x="130.5" y="-1279.3" filterUnits="userSpaceOnUse"><feColorMatrix type="matrix" values="1 0 0 0 0 0 1 0 0 0 0 0 1 0 0 0 0 0 1 0"/></filter></defs><mask id="TranspMask_00000048496423899929273620000008248246890543615364_" width="15.1" height="4" x="130.5" y="-1279.3" maskUnits="userSpaceOnUse"><radialGradient id="SVGID_1_" cx="-532.377" cy="4296.176" r="7.546" gradientTransform="matrix(0.9997 -2.427487e-02 6.475030e-03 0.2667 642.4364 118.7684)" gradientUnits="userSpaceOnUse"><stop offset="0" style="stop-color:#727272"/><stop offset="1" style="stop-color:#000"/></radialGradient><polygon points="109 1267.3 233.9 1264.3 235 1311.6 110.1 1314.7" class="st22"/></mask><path marker-end="none" marker-start="none" d="M145.6,1277.1c0-1.1-3.4-1.9-7.6-1.8c-4.2,0.1-7.5,1.1-7.5,2.2 c0,1.1,3.4,1.9,7.6,1.8C142.2,1279.2,145.6,1278.2,145.6,1277.1L145.6,1277.1z" class="st23"/><g id="Group_1_00000172431440438504580750000012766778124157839780_"><g id="Group_2_00000152229264717252529690000013344700312907702947_"><linearGradient id="SVGID_00000083088503519877166780000003730411776075863694_" x1="119.761" x2="141.29" y1="1294.944" y2="1294.944" gradientTransform="matrix(0.9997 -2.427487e-02 2.427487e-02 0.9997 -31.2364 4.5666)" gradientUnits="userSpaceOnUse"><stop offset="0" style="stop-color:#5a9fd4"/><stop offset="1" style="stop-color:#306998"/></linearGradient><path marker-end="none" marker-start="none" style="fill:url(#SVGID_00000083088503519877166780000003730411776075863694_)" d="M138.8,1304.5c-1,0-1.9,0-2.7-0.2c-2.4-0.4-2.8-1.2-2.9-2.9l-0.1-2.1l5.6-0.1l0-0.7l-5.6,0.1l-2.1,0.1 c-1.6,0-3.1-0.9-3.6-2.8c-0.6-2.1-0.6-3.5-0.1-5.7c0.4-1.7,1.3-2.9,2.9-2.9l1.9,0l0.1,2.6c0,1.9,1.7,3.5,3.6,3.4l5.6-0.1 c1.6,0,2.8,1.2,2.9,2.8l0.1,5.4c0,1.5-1.2,2.7-2.7,3C140.8,1304.4,139.8,1304.5,138.8,1304.5L138.8,1304.5z M135.7,1302.8 c0.6,0,1-0.5,1-1.1c0-0.6-0.5-1.1-1.1-1c-0.6,0-1,0.5-1,1.1C134.6,1302.4,135.1,1302.9,135.7,1302.8L135.7,1302.8z"/><linearGradient id="SVGID_00000000215773911598483480000015272563730601162927_" x1="136.095" x2="146.673" y1="1288.859" y2="1288.859" gradientTransform="matrix(0.9997 -2.427487e-02 2.427487e-02 0.9997 -31.2364 4.5666)" gradientUnits="userSpaceOnUse"><stop offset="0" style="stop-color:#ffd43b"/><stop offset="1" style="stop-color:#ffe873"/></linearGradient><path marker-end="none" marker-start="none" style="fill:url(#SVGID_00000000215773911598483480000015272563730601162927_)" d="M145.1,1298.3l-0.1-2.5c0-1.9-1.7-3.5-3.6-3.5l-5.6,0.1c-1.5,0-2.8-1.2-2.9-2.8l-0.1-5.4c0-1.5,1.3-2.5,2.7-2.9 c1.8-0.6,3.5-0.7,5.6-0.1c1.4,0.4,2.8,1.2,2.9,2.8l0.1,2.1l-5.6,0.1l0,0.7l5.6-0.1l2.8-0.1c1.6,0,2.3,1.1,2.9,2.8 c0.6,1.7,0.6,3.4,0.1,5.7c-0.4,1.6-1.1,2.9-2.7,2.9L145.1,1298.3L145.1,1298.3z M141.6,1284.8c0.6,0,1-0.5,1-1.1 c0-0.6-0.5-1.1-1.1-1.1c-0.6,0-1,0.5-1,1.1C140.5,1284.4,141,1284.8,141.6,1284.8L141.6,1284.8z"/></g></g></g><g id="Group_3_00000026874344198869487560000005350057888696754364_"><g id="Group_4_00000075841204976680614030000010711055848715304889_"><path marker-end="none" marker-start="none" d="M164.6,1291.9c0-1.5-0.4-2.7-1.2-3.7 c-0.8-1.1-1.9-1.6-3.3-1.6c-1.1,0-2.1,0.3-3.2,1.1l-0.2-6.4l-1.8,0.7l0.3,14.2c0.3,0.4,0.7,0.7,1.2,0.9 c1.1,0.6,2.4,0.9,3.9,0.9l0,0c1.4,0,2.5-0.6,3.2-1.8C164.3,1294.9,164.6,1293.6,164.6,1291.9z M162.5,1292.1 c0.1,2.9-0.7,4.5-2.4,4.6c-0.7,0-1.3,0-2-0.3c-0.5-0.2-0.9-0.3-1-0.5l-0.2-7c1.1-0.7,2-1,2.9-1 C161.5,1287.9,162.4,1289.3,162.5,1292.1z" class="st26"/><path marker-end="none" marker-start="none" d="M175.5,1287.4c0-2-0.3-3.4-0.7-4.2c-0.4-0.8-1.2-1.4-2.4-1.8 c-0.9-0.3-1.9-0.5-3-0.5l-0.3,1.1c1.1,0.1,1.9,0.3,2.3,0.4c0.9,0.3,1.5,0.7,1.8,1.3c0.3,0.5,0.4,1.4,0.5,2.8 c0,0.3,0,0.5,0,0.5c-1.2-0.5-2.5-0.8-3.9-0.7c-0.9,0-1.7,0.3-2.3,0.9c-0.7,0.6-1.1,1.4-1.1,2.3l0.2,7.5l1.8,0.6l-0.2-7.6 c0-0.8,0.2-1.4,0.7-1.9c0.5-0.4,1.2-0.7,2-0.7c0.8,0,1.7,0.3,2.7,0.9l0.2,8.8l1.8,0L175.5,1287.4z" class="st26"/><path marker-end="none" marker-start="none" d="M182.5,1286.1c-0.2,0-0.4,0-0.6,0c-1,0-1.8,0.3-2.4,0.8 c-0.6,0.5-0.8,1.2-0.8,2l0.2,7.1l-1.2,0l0,1.2l1.2,0l0.1,3l1.8,0.6l-0.1-3.7l2,0l0-1.2l-2,0l-0.2-7c0-0.7,0.2-1.2,0.5-1.4 c0.3-0.2,0.8-0.4,1.5-0.4L182.5,1286.1z" class="st26"/><path marker-end="none" marker-start="none" d="M193.8,1286l-1.8,0l0.2,7c0,0.7-0.1,1.3-0.4,1.8 c-0.4,0.6-0.9,0.9-1.6,0.9c-0.8,0-1.9-0.4-3.1-1.2l-0.2-8.3l-1.8,0l0.4,16.6l1.8,0.5l-0.2-7.6c1.2,0.8,2.4,1.2,3.8,1.2 c1,0,1.7-0.4,2.3-1c0.6-0.7,0.9-1.5,0.8-2.4L193.8,1286z" class="st26"/><path marker-end="none" marker-start="none" d="M205.8,1291.3c0-1.6-0.5-2.9-1.3-4c-0.9-1.2-2.2-1.8-3.8-1.7 c-1.6,0-2.8,0.7-3.7,1.9c-0.8,1.1-1.2,2.4-1.1,4.1c0,1.5,0.5,2.8,1.4,3.8c0.9,1.1,2.2,1.6,3.7,1.6c1.5,0,2.7-0.6,3.6-1.7 C205.4,1294.1,205.8,1292.8,205.8,1291.3z M203.8,1291.3c0,1.1-0.2,2.1-0.6,2.8c-0.5,0.9-1.3,1.4-2.3,1.5 c-2-0.1-3-1.5-3.1-4.2l0,0c0-1.3,0.2-2.3,0.5-3.2c0.5-1.1,1.3-1.6,2.3-1.6C202.7,1286.6,203.7,1288.2,203.8,1291.3z" class="st26"/><path marker-end="none" marker-start="none" d="M216.3,1285.4l-1.8,0l0.2,7.4c0,0.8-0.2,1.4-0.7,1.9 c-0.5,0.5-1.1,0.7-1.9,0.7c-0.9,0-1.7-0.3-2.5-0.8l-0.2-9.1l-1.8,0l0.2,9.3c1.1,0.7,2,1.2,2.9,1.4c0.8,0.2,1.6,0.3,2.2,0.3 c0.4,0,0.8-0.1,1.2-0.2c0.7-0.2,1.3-0.5,1.7-1c0.5-0.5,0.7-1.1,0.7-1.8L216.3,1285.4z" class="st26"/></g></g><g id="Group_5_00000060012297422940012270000006357654198202261127_"><g id="Group_6_00000065075467971691004660000013663166826349429388_"><path marker-end="none" marker-start="none" d="M157.5,1276.4c0-0.4-0.2-0.7-0.6-1l0,0 c-0.3-0.2-0.6-0.2-0.9-0.2c-0.2,0-0.5,0.1-0.7,0.2c-0.2,0.1-0.4,0.2-0.5,0.4l0.2,0.3c0.3-0.3,0.7-0.4,1.1-0.4 c0.3,0,0.5,0,0.6,0.2c0.2,0.1,0.3,0.3,0.3,0.6c0,0.2,0,0.3-0.2,0.4c-0.1,0.1-0.3,0.2-0.5,0.3l-0.4,0.1 c-0.4,0.1-0.6,0.3-0.7,0.4c-0.2,0.2-0.2,0.4-0.2,0.7c0,0.3,0.1,0.6,0.4,0.8c0.2,0.2,0.6,0.3,1,0.3c0.4,0,0.7-0.1,1-0.4 l-0.2-0.3c-0.3,0.2-0.5,0.3-0.8,0.3c-0.3,0-0.4,0-0.6-0.2s-0.2-0.3-0.2-0.5c0-0.3,0.2-0.5,0.7-0.7l0.5-0.2 c0.3-0.1,0.6-0.3,0.7-0.5C157.4,1276.9,157.5,1276.6,157.5,1276.4z" class="st26"/><path marker-end="none" marker-start="none" d="M161.4,1277.2L161.4,1277.2c0-0.6-0.2-1-0.5-1.4 c-0.3-0.5-0.8-0.7-1.3-0.7c-0.5,0-1,0.3-1.3,0.7c-0.3,0.4-0.4,0.9-0.4,1.5c0,0.5,0.2,1,0.5,1.4c0.3,0.4,0.8,0.6,1.3,0.6 c0.5,0,1-0.2,1.3-0.7C161.3,1278.2,161.5,1277.7,161.4,1277.2z M160.9,1277.2c0,0.4-0.1,0.8-0.3,1.2 c-0.2,0.4-0.5,0.6-0.9,0.6c-0.4,0-0.7-0.2-0.9-0.5c-0.2-0.3-0.3-0.7-0.3-1.1c0-0.5,0.1-0.9,0.3-1.2 c0.2-0.4,0.5-0.6,0.9-0.6s0.7,0.2,0.9,0.5C160.8,1276.3,160.9,1276.7,160.9,1277.2z" class="st26"/><path marker-end="none" marker-start="none" d="M164.3,1279.1l-0.2-0.3l-1.6,0l0-1.4l1.4,0l-0.2-0.3l-1.2,0 l0-2l-0.5,0l0.1,4.1L164.3,1279.1z" class="st26"/><path marker-end="none" marker-start="none" d="M167.4,1278.7l-1.2,0l-0.1-3.8l-0.5,0l0.1,3.8l-1.2,0l0.2,0.3 l2.8-0.1L167.4,1278.7z" class="st26"/><path marker-end="none" marker-start="none" d="M172.5,1278.9l-1.2-4l-0.4-0.1l-0.9,3.6l-1-3.4l-0.4-0.1 l-1,4.1l0.5,0.2l0.8-3.3l0.9,3.1l0.5,0.2l0.8-3.3l1,3.3L172.5,1278.9z" class="st26"/><path marker-end="none" marker-start="none" d="M175.7,1274.7l-0.5,0l-0.4,1.3l-1.6,0l-0.5-1.3l-0.4,0l1.6,4 l0.5,0.1L175.7,1274.7z M174.7,1276.3l-0.6,2l-0.8-1.9L174.7,1276.3z" class="st26"/><path marker-end="none" marker-start="none" d="M178.7,1274.7l-0.6,0l-1,1.9l-0.3,0l0-1.9l-0.5,0l0.1,4.1 l1.3,0c0.3,0,0.6-0.1,0.8-0.3c0.2-0.2,0.3-0.5,0.3-0.8c0-0.3-0.1-0.6-0.3-0.8c-0.2-0.2-0.5-0.3-0.8-0.3L178.7,1274.7z M178.2,1277.7c0,0.2-0.1,0.4-0.2,0.5s-0.3,0.2-0.5,0.2l-0.8,0l0-1.5l0.8,0c0.2,0,0.4,0.1,0.5,0.2 C178.2,1277.3,178.2,1277.5,178.2,1277.7z" class="st26"/><path marker-end="none" marker-start="none" d="M181.6,1278.7l-0.2-0.3l-1.6,0l0-1.4l1.4,0l-0.2-0.3l-1.2,0 l0-1.7l1.8,0l0-0.3l-2.2,0.1l0.1,4.1L181.6,1278.7z" class="st26"/><path marker-end="none" marker-start="none" d="M186.5,1278.6l-0.2-0.3l-1.6,0l0-1.4l1.4,0l-0.2-0.3l-1.2,0 l0-2l-0.5,0l0.1,4.1L186.5,1278.6z" class="st26"/><path marker-end="none" marker-start="none" d="M190.1,1276.5L190.1,1276.5c0-0.6-0.2-1-0.5-1.4 c-0.3-0.5-0.8-0.7-1.3-0.7c-0.5,0-1,0.3-1.3,0.7c-0.3,0.4-0.4,0.9-0.4,1.5c0,0.5,0.2,1,0.5,1.4c0.3,0.4,0.8,0.6,1.3,0.6 c0.5,0,1-0.2,1.3-0.7C189.9,1277.5,190.1,1277,190.1,1276.5z M189.5,1276.5c0,0.4-0.1,0.8-0.3,1.2 c-0.2,0.4-0.5,0.6-0.9,0.6c-0.4,0-0.7-0.2-0.9-0.5c-0.2-0.3-0.3-0.7-0.3-1.1c0-0.5,0.1-0.9,0.3-1.2 c0.2-0.4,0.5-0.6,0.9-0.6c0.4,0,0.7,0.2,0.9,0.5C189.4,1275.6,189.5,1276,189.5,1276.5z" class="st26"/><path marker-end="none" marker-start="none" d="M193.6,1275.7c0-0.4-0.2-0.8-0.5-1c-0.3-0.3-0.6-0.4-1.1-0.4 c-0.4,0-0.8,0.2-1,0.4c-0.3,0.3-0.4,0.6-0.4,1l0.1,2.6l0.5,0.2l-0.1-2.7c0-0.8,0.3-1.1,1-1.2c0.3,0,0.6,0.1,0.8,0.3 c0.2,0.2,0.3,0.5,0.3,0.8l0.1,2.6l0.4,0L193.6,1275.7z" class="st26"/><path marker-end="none" marker-start="none" d="M197.4,1274.2l-0.5,0l-2.2,3.4l-0.1-3.3l-0.3,0l0.1,4l0.4,0.1 l2.3-3.6l0.1,3.4l0.3,0L197.4,1274.2z" class="st26"/><path marker-end="none" marker-start="none" d="M201.1,1276.1c0-0.5-0.2-1-0.5-1.4c-0.3-0.4-0.7-0.6-1.2-0.6 c-0.4,0-0.9,0.2-1.3,0.5l0.1,3.6l1.3,0c0.5,0,0.9-0.3,1.2-0.7C201,1277.1,201.1,1276.7,201.1,1276.1z M200.6,1276.1 c0,1.2-0.4,1.8-1.3,1.9l-0.5,0l-0.1-3.2c0.2-0.2,0.4-0.3,0.7-0.3c0.4,0,0.7,0.2,0.9,0.5 C200.5,1275.3,200.6,1275.6,200.6,1276.1z" class="st26"/><path marker-end="none" marker-start="none" d="M204.7,1274l-0.5,0l-0.4,1.3l-1.6,0l-0.5-1.3l-0.4,0l1.6,4 l0.5,0.1L204.7,1274z M203.7,1275.6l-0.6,2l-0.8-1.9L203.7,1275.6z" class="st26"/><path marker-end="none" marker-start="none" d="M207.4,1277.7l-1.2,0l-0.1-3.8l-0.5,0l0.1,3.8l-1.2,0l0.2,0.3 l2.8-0.1L207.4,1277.7z" class="st26"/><path marker-end="none" marker-start="none" d="M208.3,1273.9l-0.5,0l0.1,4l0.5,0.2L208.3,1273.9z" class="st26"/><path marker-end="none" marker-start="none" d="M212.5,1275.9L212.5,1275.9c0-0.6-0.2-1-0.5-1.4 c-0.3-0.5-0.8-0.7-1.3-0.7c-0.5,0-1,0.3-1.3,0.7c-0.3,0.4-0.4,0.9-0.4,1.5c0,0.5,0.2,1,0.5,1.4c0.3,0.4,0.8,0.6,1.3,0.6 c0.5,0,1-0.2,1.3-0.7C212.3,1277,212.5,1276.5,212.5,1275.9z M211.9,1276c0,0.4-0.1,0.8-0.3,1.2c-0.2,0.4-0.5,0.6-0.9,0.6 c-0.4,0-0.7-0.2-0.9-0.5c-0.2-0.3-0.3-0.7-0.3-1.1c0-0.5,0.1-0.9,0.3-1.2c0.2-0.4,0.5-0.6,0.9-0.6c0.4,0,0.7,0.2,0.9,0.5 C211.8,1275.1,211.9,1275.5,211.9,1276z" class="st26"/><path marker-end="none" marker-start="none" d="M216.1,1273.7l-0.5,0l-2.2,3.4l-0.1-3.3l-0.3,0l0.1,4l0.4,0.1 l2.3-3.6l0.1,3.4l0.3,0L216.1,1273.7z" class="st26"/></g></g><linearGradient id="SVGID_00000119831340151585636700000013529028515490159251_" x1="-2813.678" x2="-2794.877" y1="1685.063" y2="1685.063" gradientTransform="matrix(0.9997 -2.411606e-02 2.426860e-02 0.9997 2969.4185 -470.3719)" gradientUnits="userSpaceOnUse"><stop offset="0" style="stop-color:#4c8cbf"/><stop offset="1" style="stop-color:#306898"/></linearGradient><path style="fill-rule:evenodd;clip-rule:evenodd;fill:url(#SVGID_00000119831340151585636700000013529028515490159251_)" d="M216.2,1281.3l0,0.5c0,0.4-0.3,0.6-0.6,0.7l-36.3,0.9c-0.4,0-0.6-0.3-0.7-0.6l0-0.5c0-0.4,0.3-0.6,0.6-0.7l36.3-0.9 C215.9,1280.7,216.2,1281,216.2,1281.3z"/></g></g></g></g><g><path d="M296.1,421.5c0.9,0.5,2.3,1,3.8,1c1.8,0,2.8-0.9,2.8-2.1c0-1.2-0.8-1.9-2.8-2.6c-2.6-0.9-4.2-2.3-4.2-4.5 c0-2.5,2.1-4.5,5.5-4.5c1.7,0,2.9,0.4,3.7,0.8l-0.7,2.3c-0.6-0.3-1.6-0.7-3.1-0.7c-1.8,0-2.6,1-2.6,1.9c0,1.2,0.9,1.8,3,2.5 c2.7,1,4,2.4,4,4.6c0,2.5-1.9,4.7-5.9,4.7c-1.6,0-3.4-0.5-4.2-1L296.1,421.5z" class="st20"/><path d="M314.1,424.3c-0.5,0.2-1.4,0.5-2.5,0.5c-2.7,0-4.5-1.8-4.5-4.5c0-2.6,1.8-4.6,4.9-4.6 c0.8,0,1.6,0.2,2.1,0.4l-0.4,1.7c-0.4-0.2-0.9-0.3-1.7-0.3c-1.7,0-2.7,1.2-2.7,2.8c0,1.8,1.2,2.8,2.7,2.8c0.8,0,1.3-0.2,1.7-0.3 L314.1,424.3z" class="st20"/><path d="M318.1,413.4c0,0.7-0.5,1.2-1.3,1.2c-0.7,0-1.2-0.5-1.2-1.2c0-0.7,0.5-1.2,1.2-1.2 C317.6,412.2,318.1,412.7,318.1,413.4z M315.7,424.6v-8.7h2.2v8.7H315.7z" class="st20"/><path d="M330.7,424.2c-0.6,0.3-2,0.6-3.7,0.6c-4.5,0-7.2-2.8-7.2-7.1c0-4.6,3.2-7.4,7.6-7.4c1.7,0,2.9,0.3,3.4,0.6 l-0.6,2.1c-0.7-0.3-1.6-0.6-2.8-0.6c-2.9,0-5,1.8-5,5.2c0,3.1,1.8,5.1,4.9,5.1c1,0,2.1-0.2,2.8-0.5L330.7,424.2z" class="st20"/><path d="M340.9,420.1c0,3.2-2.3,4.6-4.5,4.6c-2.5,0-4.4-1.7-4.4-4.5c0-2.9,1.9-4.6,4.5-4.6 C339.2,415.7,340.9,417.5,340.9,420.1z M334.3,420.2c0,1.7,0.8,2.9,2.2,2.9c1.3,0,2.1-1.2,2.1-3c0-1.4-0.6-2.9-2.1-2.9 C335,417.3,334.3,418.8,334.3,420.2z" class="st20"/><path d="M351.1,420.1c0,3.2-2.3,4.6-4.5,4.6c-2.5,0-4.4-1.7-4.4-4.5c0-2.9,1.9-4.6,4.5-4.6 C349.3,415.7,351.1,417.5,351.1,420.1z M344.5,420.2c0,1.7,0.8,2.9,2.2,2.9c1.3,0,2.1-1.2,2.1-3c0-1.4-0.6-2.9-2.1-2.9 C345.1,417.3,344.5,418.8,344.5,420.2z" class="st20"/><path d="M355.1,419.7L355.1,419.7c0.2-0.3,0.5-0.7,0.7-1l2.1-2.8h2.7l-3.2,3.6l3.7,5.2h-2.7l-2.5-3.9l-0.7,0.9v3 h-2.2v-12.7h2.2V419.7z" class="st20"/><path d="M364.6,413.4c0,0.7-0.5,1.2-1.3,1.2c-0.7,0-1.2-0.5-1.2-1.2c0-0.7,0.5-1.2,1.2-1.2 C364.1,412.2,364.6,412.7,364.6,413.4z M362.3,424.6v-8.7h2.2v8.7H362.3z" class="st20"/><path d="M368.4,420.8c0.1,1.6,1.3,2.3,2.7,2.3c1,0,1.7-0.2,2.4-0.4l0.3,1.5c-0.7,0.3-1.8,0.6-3.1,0.6 c-2.8,0-4.5-1.8-4.5-4.4c0-2.4,1.5-4.7,4.3-4.7c2.8,0,3.8,2.3,3.8,4.2c0,0.4,0,0.7-0.1,0.9H368.4z M372.2,419.3 c0-0.8-0.3-2.1-1.8-2.1c-1.4,0-1.9,1.2-2,2.1H372.2z" class="st20"/></g></g></g></switch></svg>